<svg xmlns="http://www.w3.org/2000/svg" id="canvas" viewBox="282.773 326.898 1282.543 198.289">
<style>
    path {
      stroke-dasharray: 2000;
      stroke-dashoffset: 2000;
      -webkit-animation: dash 5s ease infinite;
      animation: dash 5s ease infinite;
    }

    @-webkit-keyframes dash {
      to {
        stroke-dashoffset: 0;
      }
    }
    @keyframes dash {
      to {
        stroke-dashoffset: 0;
      }
    }
</style>
<g>
	<path stroke-linecap="null" stroke-linejoin="null" stroke-dasharray="null" stroke-width="5" stroke="#000000" fill="none" d="M 452.53,347.28 C 452.39 346.85, 451.51 347.82, 451.15 348.68 C 450.80 349.53, 450.75 350.61, 450.76 351.57 C 450.77 352.53, 450.55 352.50, 451.20 353.48 C 451.85 354.46, 452.50 354.91, 454.01 356.48 C 455.53 358.05, 456.55 358.91, 458.78 361.31 C 461.01 363.72, 462.69 365.27, 465.16 368.51 C 467.63 371.75, 468.73 373.45, 471.13 377.52 C 473.52 381.59, 474.93 384.16, 477.15 388.85 C 479.37 393.55, 480.32 396.01, 482.23 400.98 C 484.14 405.96, 485.35 408.73, 486.70 413.72 C 488.06 418.70, 488.67 421.06, 489.01 425.90 C 489.34 430.74, 489.17 433.18, 488.36 437.91 C 487.55 442.65, 486.74 444.89, 484.97 449.59 C 483.20 454.29, 481.97 456.87, 479.50 461.42 C 477.03 465.98, 475.73 468.33, 472.62 472.36 C 469.50 476.38, 467.65 478.08, 463.93 481.55 C 460.21 485.02, 457.99 486.68, 454.02 489.72 C 450.06 492.75, 447.93 494.28, 444.11 496.71 C 440.29 499.14, 438.33 500.18, 434.91 501.88 C 431.48 503.58, 429.62 504.09, 426.99 505.19 C 424.35 506.30, 423.37 506.70, 421.71 507.39 C 420.06 508.09, 419.75 508.00, 418.73 508.66 C 417.70 509.32, 416.92 509.84, 416.57 510.70 C 416.22 511.56, 416.48 512.61, 416.98 512.95 C 417.48 513.29, 418.70 512.54, 419.08 512.40 C 419.46 512.27, 418.69 512.19, 418.87 512.28 C 419.04 512.37, 419.07 512.76, 419.96 512.86 C 420.85 512.96, 421.42 513.15, 423.33 512.76 C 425.24 512.38, 426.70 512.24, 429.51 510.95 C 432.32 509.66, 433.96 508.42, 437.38 506.32 C 440.79 504.22, 442.75 503.10, 446.59 500.44 C 450.43 497.77, 452.56 496.19, 456.58 492.99 C 460.60 489.80, 462.83 488.10, 466.67 484.46 C 470.50 480.82, 472.49 479.02, 475.76 474.79 C 479.03 470.57, 480.43 468.10, 483.02 463.34 C 485.62 458.58, 486.88 455.95, 488.73 451.00 C 490.59 446.05, 491.44 443.66, 492.30 438.58 C 493.15 433.50, 493.34 430.81, 492.99 425.63 C 492.64 420.45, 491.93 417.90, 490.53 412.68 C 489.14 407.47, 487.93 404.67, 486.02 399.55 C 484.12 394.43, 483.17 391.95, 481.03 387.08 C 478.89 382.22, 477.54 379.55, 475.31 375.21 C 473.08 370.87, 471.98 369.06, 469.87 365.39 C 467.76 361.72, 466.56 359.87, 464.77 356.86 C 462.97 353.85, 462.57 352.36, 460.88 350.34 C 459.19 348.32, 457.81 347.42, 456.31 346.76 C 454.81 346.11, 454.16 346.57, 453.39 347.07 C 452.61 347.57, 452.73 348.52, 452.43 349.27 C 452.13 350.02, 451.85 351.22, 451.87 350.82 C 451.89 350.42, 452.67 347.71, 452.53 347.28"/>
	<path stroke-linecap="null" stroke-linejoin="null" stroke-dasharray="null" stroke-width="5" stroke="#000000" fill="none" d="M 432.04,449.30 C 432.97 449.55, 433.24 449.03, 434.73 448.55 C 436.22 448.07, 436.45 447.71, 439.48 446.90 C 442.51 446.09, 444.99 445.24, 449.88 444.48 C 454.77 443.73, 457.86 443.51, 463.93 443.12 C 470.00 442.72, 473.47 442.72, 480.25 442.50 C 487.02 442.28, 491.01 442.23, 497.80 442.02 C 504.58 441.80, 507.94 441.38, 514.18 441.40 C 520.43 441.43, 523.84 441.76, 529.00 442.13 C 534.17 442.51, 536.47 443.09, 540.00 443.28 C 543.52 443.48, 545.24 443.59, 546.62 443.11 C 548.00 442.63, 548.14 441.69, 546.90 440.89 C 545.66 440.08, 543.96 439.61, 540.43 439.09 C 536.89 438.56, 534.48 438.47, 529.22 438.25 C 523.97 438.04, 520.47 437.91, 514.16 438.02 C 507.86 438.12, 504.49 438.55, 497.69 438.76 C 490.89 438.97, 486.95 439.00, 480.17 439.08 C 473.39 439.16, 469.94 439.09, 463.78 439.15 C 457.63 439.22, 454.60 439.20, 449.40 439.41 C 444.19 439.62, 441.31 439.35, 437.77 440.21 C 434.23 441.07, 433.25 442.31, 431.71 443.73 C 430.17 445.15, 429.99 446.20, 430.05 447.31 C 430.12 448.43, 431.10 449.06, 432.04 449.30"/>
	<path stroke-linecap="null" stroke-linejoin="null" stroke-dasharray="null" stroke-width="5" stroke="#000000" fill="none" d="M 581.80,339.71 C 581.03 340.56, 580.54 341.12, 580.52 343.64 C 580.50 346.16, 581.02 347.66, 581.71 352.31 C 582.40 356.97, 583.06 360.30, 583.95 366.89 C 584.85 373.49, 585.35 377.67, 586.18 385.30 C 587.01 392.93, 587.37 397.29, 588.11 405.04 C 588.85 412.80, 589.10 416.96, 589.88 424.09 C 590.66 431.21, 591.25 434.68, 592.02 440.65 C 592.79 446.63, 593.15 449.38, 593.74 453.95 C 594.33 458.52, 593.94 460.68, 594.97 463.50 C 596.00 466.32, 596.94 467.24, 598.90 468.04 C 600.86 468.84, 602.43 469.07, 604.77 467.50 C 607.11 465.94, 607.86 463.93, 610.59 460.22 C 613.32 456.51, 614.58 453.54, 618.41 448.96 C 622.24 444.38, 624.81 441.46, 629.76 437.32 C 634.71 433.19, 637.95 431.05, 643.16 428.28 C 648.37 425.50, 651.15 424.44, 655.80 423.44 C 660.45 422.44, 662.78 422.63, 666.43 423.30 C 670.09 423.96, 671.56 424.74, 674.06 426.78 C 676.57 428.81, 677.34 430.12, 678.98 433.47 C 680.62 436.83, 681.25 439.50, 682.24 443.54 C 683.23 447.58, 683.40 449.85, 683.93 453.68 C 684.45 457.51, 684.51 459.22, 684.88 462.67 C 685.25 466.12, 684.95 468.15, 685.77 470.93 C 686.60 473.70, 687.69 474.71, 689.01 476.54 C 690.33 478.37, 690.98 479.17, 692.38 480.07 C 693.78 480.98, 694.98 481.32, 696.01 481.08 C 697.04 480.84, 697.52 479.81, 697.52 478.87 C 697.51 477.92, 696.67 477.48, 695.99 476.36 C 695.31 475.24, 694.90 474.73, 694.11 473.27 C 693.32 471.81, 692.73 471.33, 692.05 469.05 C 691.36 466.77, 691.25 465.11, 690.69 461.87 C 690.13 458.63, 689.94 456.78, 689.27 452.85 C 688.59 448.92, 688.47 446.57, 687.30 442.24 C 686.13 437.90, 685.49 435.01, 683.41 431.18 C 681.34 427.35, 680.18 425.50, 676.92 423.08 C 673.67 420.66, 671.52 419.77, 667.13 419.09 C 662.74 418.42, 660.10 418.52, 654.96 419.73 C 649.83 420.93, 646.98 422.18, 641.47 425.12 C 635.96 428.07, 632.68 430.26, 627.41 434.45 C 622.15 438.63, 619.38 441.58, 615.15 446.06 C 610.92 450.55, 609.11 453.40, 606.27 456.87 C 603.44 460.34, 602.19 461.66, 600.96 463.40 C 599.74 465.14, 600.32 465.83, 600.15 465.56 C 599.98 465.29, 600.58 464.50, 600.11 462.04 C 599.64 459.58, 598.76 457.62, 597.79 453.25 C 596.83 448.87, 596.29 446.07, 595.29 440.17 C 594.30 434.27, 593.67 430.83, 592.82 423.75 C 591.96 416.67, 591.70 412.52, 591.01 404.77 C 590.32 397.02, 589.99 392.66, 589.36 385.00 C 588.74 377.34, 588.37 373.13, 587.88 366.48 C 587.38 359.84, 587.18 356.46, 586.90 351.78 C 586.62 347.09, 586.97 345.53, 586.46 343.06 C 585.95 340.59, 585.30 340.11, 584.37 339.44 C 583.44 338.77, 582.57 338.87, 581.80 339.71"/>
	<path stroke-linecap="null" stroke-linejoin="null" stroke-dasharray="null" stroke-width="5" stroke="#000000" fill="none" d="M 786.29,425.57 C 786.07 424.06, 785.22 422.15, 783.06 420.42 C 780.90 418.68, 779.05 417.88, 775.49 416.91 C 771.93 415.94, 769.50 415.28, 765.26 415.57 C 761.02 415.86, 758.79 416.39, 754.30 418.34 C 749.81 420.29, 747.24 422.12, 742.80 425.32 C 738.36 428.52, 735.79 430.47, 732.10 434.33 C 728.41 438.19, 726.37 440.37, 724.35 444.61 C 722.32 448.85, 721.67 451.49, 721.99 455.54 C 722.30 459.59, 723.27 461.94, 725.92 464.84 C 728.57 467.75, 730.89 468.75, 735.23 470.05 C 739.57 471.36, 742.49 471.47, 747.63 471.35 C 752.77 471.23, 755.62 470.73, 760.92 469.46 C 766.23 468.19, 769.07 467.19, 774.15 464.99 C 779.23 462.79, 781.93 461.41, 786.33 458.46 C 790.72 455.52, 792.90 453.74, 796.13 450.25 C 799.36 446.75, 800.66 444.66, 802.47 440.98 C 804.29 437.30, 805.24 434.83, 805.20 431.85 C 805.16 428.88, 803.66 426.90, 802.28 426.11 C 800.90 425.32, 798.99 426.02, 798.29 427.91 C 797.58 429.80, 797.72 432.14, 798.75 435.55 C 799.78 438.95, 800.88 441.20, 803.44 444.94 C 806.00 448.68, 808.06 450.92, 811.54 454.26 C 815.02 457.59, 817.03 459.10, 820.82 461.64 C 824.61 464.17, 826.60 464.98, 830.47 466.93 C 834.34 468.88, 836.38 470.06, 840.19 471.39 C 843.99 472.72, 845.96 473.10, 849.50 473.58 C 853.03 474.06, 855.01 474.26, 857.85 473.81 C 860.69 473.36, 861.60 472.40, 863.69 471.32 C 865.77 470.24, 866.74 469.99, 868.28 468.40 C 869.82 466.82, 870.74 465.14, 871.37 463.40 C 872.00 461.66, 871.48 460.59, 871.41 459.70 C 871.35 458.82, 870.89 458.93, 871.04 458.97 C 871.19 459.01, 871.25 459.31, 872.15 459.91 C 873.05 460.51, 873.56 461.21, 875.52 461.96 C 877.49 462.70, 878.97 463.47, 881.99 463.64 C 885.01 463.81, 886.87 463.31, 890.63 462.82 C 894.39 462.33, 896.23 462.14, 900.79 461.20 C 905.34 460.26, 908.10 459.52, 913.42 458.11 C 918.73 456.70, 921.94 455.67, 927.36 454.17 C 932.77 452.67, 935.62 451.79, 940.49 450.62 C 945.36 449.44, 947.74 448.72, 951.70 448.30 C 955.65 447.88, 957.23 448.00, 960.26 448.50 C 963.30 449.01, 964.48 449.63, 966.89 450.83 C 969.30 452.03, 970.16 452.81, 972.32 454.49 C 974.49 456.17, 975.48 457.37, 977.72 459.21 C 979.95 461.06, 981.17 462.08, 983.47 463.70 C 985.78 465.33, 987.11 466.37, 989.25 467.32 C 991.39 468.28, 992.56 468.30, 994.18 468.48 C 995.80 468.65, 996.56 468.67, 997.37 468.20 C 998.18 467.73, 998.44 467.03, 998.22 466.14 C 998.00 465.25, 997.33 464.75, 996.26 463.74 C 995.20 462.73, 994.55 462.37, 992.88 461.10 C 991.21 459.83, 990.07 458.92, 987.92 457.40 C 985.76 455.88, 984.46 455.18, 982.11 453.50 C 979.76 451.82, 978.74 450.63, 976.17 449.00 C 973.59 447.36, 972.30 446.45, 969.25 445.32 C 966.19 444.18, 964.53 443.62, 960.90 443.31 C 957.27 443.01, 955.39 443.13, 951.11 443.77 C 946.82 444.42, 944.44 445.27, 939.48 446.55 C 934.51 447.83, 931.69 448.72, 926.27 450.17 C 920.84 451.63, 917.62 452.63, 912.36 453.84 C 907.10 455.05, 904.37 455.69, 899.97 456.21 C 895.57 456.74, 893.78 456.67, 890.37 456.47 C 886.96 456.28, 885.46 455.70, 882.92 455.25 C 880.38 454.81, 879.55 454.58, 877.67 454.25 C 875.79 453.93, 875.19 453.59, 873.52 453.63 C 871.85 453.67, 870.88 453.74, 869.30 454.44 C 867.73 455.14, 866.70 455.81, 865.65 457.13 C 864.60 458.45, 864.46 459.55, 864.04 461.05 C 863.63 462.54, 864.14 463.59, 863.57 464.62 C 863.01 465.64, 862.56 465.62, 861.23 466.18 C 859.90 466.73, 859.14 467.10, 856.92 467.38 C 854.70 467.66, 853.15 467.79, 850.13 467.58 C 847.10 467.38, 845.30 467.35, 841.80 466.34 C 838.30 465.34, 836.28 464.29, 832.62 462.55 C 828.96 460.81, 827.00 460.03, 823.52 457.65 C 820.03 455.27, 818.14 453.86, 815.21 450.66 C 812.27 447.46, 810.72 445.16, 808.83 441.64 C 806.94 438.12, 806.96 435.94, 805.77 433.07 C 804.57 430.19, 804.02 428.49, 802.86 427.25 C 801.70 426.01, 800.84 426.05, 799.98 426.86 C 799.13 427.68, 799.04 428.93, 798.59 431.34 C 798.13 433.75, 798.86 435.73, 797.71 438.92 C 796.55 442.11, 795.55 444.07, 792.81 447.30 C 790.07 450.52, 788.06 452.25, 784.00 455.05 C 779.95 457.84, 777.35 459.21, 772.55 461.27 C 767.74 463.33, 764.97 464.24, 759.97 465.33 C 754.98 466.42, 752.24 466.73, 747.57 466.73 C 742.91 466.73, 740.24 466.39, 736.64 465.33 C 733.04 464.27, 731.54 463.46, 729.58 461.42 C 727.61 459.39, 727.04 458.14, 726.81 455.17 C 726.58 452.19, 726.75 450.12, 728.44 446.56 C 730.13 443.00, 731.88 440.89, 735.27 437.37 C 738.66 433.85, 741.20 431.86, 745.37 428.94 C 749.54 426.03, 752.13 424.34, 756.13 422.81 C 760.14 421.28, 761.91 421.15, 765.37 421.28 C 768.84 421.42, 770.65 422.49, 773.47 423.48 C 776.29 424.47, 777.35 425.33, 779.49 426.24 C 781.62 427.14, 782.79 428.14, 784.15 428.01 C 785.51 427.88, 786.51 427.09, 786.29 425.57"/>
	<path stroke-linecap="null" stroke-linejoin="null" stroke-dasharray="null" stroke-width="5" stroke="#000000" fill="none" d="M 1094.11,433.58 C 1094.24 432.14, 1094.00 430.40, 1092.29 428.24 C 1090.57 426.07, 1089.09 424.61, 1085.54 422.76 C 1082.00 420.92, 1079.42 419.56, 1074.57 419.01 C 1069.73 418.45, 1066.65 419.06, 1061.32 419.99 C 1055.99 420.92, 1052.92 421.85, 1047.92 423.66 C 1042.93 425.46, 1040.08 426.49, 1036.34 429.02 C 1032.60 431.55, 1030.46 433.21, 1029.23 436.30 C 1027.99 439.38, 1028.54 441.88, 1030.18 444.43 C 1031.81 446.99, 1033.78 448.15, 1037.38 449.09 C 1040.99 450.02, 1043.44 449.56, 1048.19 449.12 C 1052.94 448.68, 1055.98 448.23, 1061.13 446.89 C 1066.28 445.54, 1069.27 444.20, 1073.94 442.41 C 1078.60 440.61, 1080.88 439.24, 1084.45 437.92 C 1088.02 436.59, 1089.62 436.35, 1091.80 435.79 C 1093.98 435.23, 1094.39 434.57, 1095.37 435.12 C 1096.35 435.68, 1095.63 436.53, 1096.71 438.55 C 1097.78 440.57, 1098.68 442.17, 1100.75 445.23 C 1102.82 448.28, 1104.18 450.04, 1107.05 453.81 C 1109.92 457.58, 1111.47 459.88, 1115.10 464.10 C 1118.73 468.31, 1121.19 470.64, 1125.20 474.87 C 1129.20 479.10, 1131.38 481.22, 1135.14 485.23 C 1138.90 489.24, 1141.14 491.21, 1144.00 494.93 C 1146.87 498.65, 1148.10 500.61, 1149.47 503.85 C 1150.84 507.08, 1151.06 508.35, 1150.87 511.11 C 1150.67 513.87, 1150.49 515.10, 1148.50 517.63 C 1146.51 520.17, 1145.13 521.37, 1140.90 523.80 C 1136.68 526.22, 1133.63 527.74, 1127.38 529.74 C 1121.12 531.74, 1117.02 532.74, 1109.63 533.79 C 1102.23 534.83, 1097.79 534.94, 1090.40 534.97 C 1083.01 534.99, 1078.87 534.76, 1072.68 533.89 C 1066.48 533.02, 1063.60 532.30, 1059.44 530.63 C 1055.28 528.95, 1053.84 527.77, 1051.86 525.52 C 1049.88 523.26, 1049.52 522.20, 1049.56 519.35 C 1049.59 516.51, 1049.82 515.06, 1052.03 511.29 C 1054.24 507.53, 1056.89 504.84, 1060.60 500.51 C 1064.30 496.19, 1066.96 493.37, 1070.56 489.67 C 1074.17 485.97, 1077.42 484.00, 1078.63 482.00 C 1079.83 480.00, 1078.79 478.72, 1076.60 479.66 C 1074.41 480.60, 1071.55 483.11, 1067.67 486.70 C 1063.80 490.29, 1061.15 493.13, 1057.23 497.59 C 1053.31 502.06, 1050.55 504.67, 1048.09 509.03 C 1045.63 513.39, 1044.84 515.53, 1044.94 519.40 C 1045.05 523.27, 1046.00 525.45, 1048.63 528.38 C 1051.26 531.32, 1053.38 532.35, 1058.11 534.09 C 1062.83 535.84, 1065.80 536.32, 1072.26 537.10 C 1078.72 537.88, 1082.85 538.04, 1090.41 538.01 C 1097.97 537.97, 1102.44 537.89, 1110.05 536.92 C 1117.65 535.96, 1121.84 535.06, 1128.42 533.17 C 1134.99 531.29, 1138.16 530.01, 1142.93 527.50 C 1147.70 524.99, 1149.68 523.83, 1152.26 520.63 C 1154.84 517.43, 1155.54 515.21, 1155.83 511.48 C 1156.13 507.75, 1155.44 505.81, 1153.73 501.98 C 1152.02 498.15, 1150.43 496.22, 1147.28 492.34 C 1144.13 488.45, 1141.82 486.58, 1137.98 482.54 C 1134.14 478.51, 1131.99 476.41, 1128.07 472.18 C 1124.16 467.94, 1121.78 465.62, 1118.41 461.36 C 1115.04 457.10, 1113.70 454.79, 1111.24 450.89 C 1108.78 447.00, 1107.94 445.07, 1106.09 441.88 C 1104.25 438.68, 1103.79 437.08, 1102.02 434.92 C 1100.24 432.77, 1099.47 432.05, 1097.22 431.11 C 1094.96 430.18, 1093.68 429.84, 1090.75 430.24 C 1087.82 430.65, 1086.27 431.59, 1082.56 433.16 C 1078.86 434.72, 1076.75 436.25, 1072.23 438.07 C 1067.71 439.89, 1064.87 441.10, 1059.98 442.24 C 1055.10 443.39, 1052.08 443.57, 1047.80 443.78 C 1043.53 444.00, 1041.38 443.74, 1038.61 443.32 C 1035.83 442.91, 1034.85 442.67, 1033.92 441.71 C 1032.99 440.75, 1032.93 440.26, 1033.97 438.54 C 1035.01 436.81, 1036.01 435.21, 1039.11 433.08 C 1042.21 430.95, 1044.88 429.60, 1049.47 427.88 C 1054.06 426.17, 1057.19 425.24, 1062.06 424.51 C 1066.92 423.77, 1069.74 423.45, 1073.81 424.21 C 1077.87 424.96, 1079.64 426.55, 1082.39 428.29 C 1085.15 430.03, 1085.72 431.49, 1087.57 432.91 C 1089.42 434.34, 1090.33 435.30, 1091.64 435.44 C 1092.95 435.57, 1093.98 435.02, 1094.11 433.58"/>
	<path stroke-linecap="null" stroke-linejoin="null" stroke-dasharray="null" stroke-width="5" stroke="#000000" fill="none" d="M 1265.59,396.62 C 1265.71 395.18, 1265.21 393.35, 1263.57 391.50 C 1261.93 389.64, 1260.60 388.41, 1257.38 387.36 C 1254.17 386.30, 1252.12 385.87, 1247.49 386.22 C 1242.87 386.57, 1240.07 387.25, 1234.24 389.11 C 1228.41 390.97, 1224.72 392.26, 1218.34 395.53 C 1211.96 398.79, 1208.23 401.00, 1202.35 405.45 C 1196.47 409.90, 1193.04 412.70, 1188.93 417.77 C 1184.81 422.83, 1183.20 425.66, 1181.77 430.78 C 1180.34 435.90, 1180.30 438.86, 1181.77 443.37 C 1183.24 447.88, 1184.95 450.14, 1189.10 453.34 C 1193.26 456.55, 1196.37 457.65, 1202.55 459.39 C 1208.73 461.12, 1212.71 461.59, 1220.01 462.02 C 1227.32 462.46, 1231.69 462.33, 1239.08 461.56 C 1246.47 460.79, 1250.47 459.93, 1256.96 458.17 C 1263.45 456.40, 1266.69 455.26, 1271.52 452.73 C 1276.35 450.21, 1278.44 448.76, 1281.11 445.56 C 1283.78 442.36, 1284.58 440.26, 1284.88 436.73 C 1285.18 433.20, 1284.60 430.86, 1282.61 427.90 C 1280.63 424.93, 1278.39 423.63, 1274.96 421.92 C 1271.53 420.22, 1269.17 419.61, 1265.46 419.38 C 1261.74 419.15, 1259.46 419.29, 1256.37 420.78 C 1253.28 422.27, 1251.49 423.84, 1250.00 426.82 C 1248.51 429.80, 1248.38 432.15, 1248.91 435.67 C 1249.44 439.18, 1250.50 441.14, 1252.66 444.39 C 1254.81 447.63, 1256.58 449.13, 1259.69 451.89 C 1262.79 454.65, 1264.43 455.84, 1268.19 458.19 C 1271.95 460.54, 1274.48 461.74, 1278.48 463.65 C 1282.49 465.56, 1284.73 466.30, 1288.22 467.73 C 1291.70 469.17, 1293.30 470.20, 1295.92 470.81 C 1298.54 471.42, 1300.10 471.22, 1301.31 470.77 C 1302.53 470.31, 1302.69 469.57, 1302.00 468.53 C 1301.31 467.49, 1300.19 466.79, 1297.86 465.57 C 1295.53 464.34, 1293.79 463.73, 1290.35 462.39 C 1286.91 461.06, 1284.54 460.63, 1280.67 458.90 C 1276.80 457.18, 1274.43 456.01, 1271.00 453.78 C 1267.56 451.55, 1266.12 450.32, 1263.51 447.77 C 1260.90 445.22, 1259.54 443.67, 1257.93 441.02 C 1256.33 438.37, 1255.96 436.82, 1255.47 434.51 C 1254.98 432.21, 1254.78 431.03, 1255.48 429.50 C 1256.19 427.97, 1257.10 427.54, 1259.00 426.87 C 1260.91 426.20, 1262.36 425.95, 1265.01 426.14 C 1267.65 426.34, 1269.67 426.77, 1272.24 427.83 C 1274.80 428.90, 1276.32 429.73, 1277.81 431.46 C 1279.31 433.18, 1279.72 434.17, 1279.70 436.45 C 1279.68 438.73, 1279.70 440.23, 1277.72 442.85 C 1275.74 445.47, 1274.12 447.10, 1269.79 449.54 C 1265.46 451.98, 1262.30 453.28, 1256.09 455.06 C 1249.88 456.85, 1245.93 457.72, 1238.76 458.46 C 1231.59 459.20, 1227.27 459.26, 1220.22 458.77 C 1213.18 458.27, 1209.29 457.66, 1203.53 455.98 C 1197.77 454.29, 1195.04 453.09, 1191.41 450.33 C 1187.77 447.58, 1186.59 445.91, 1185.34 442.19 C 1184.10 438.47, 1183.95 436.20, 1185.17 431.73 C 1186.40 427.26, 1187.66 424.57, 1191.48 419.83 C 1195.30 415.09, 1198.61 412.27, 1204.29 408.03 C 1209.97 403.78, 1213.66 401.62, 1219.88 398.62 C 1226.10 395.62, 1229.83 394.47, 1235.38 393.04 C 1240.92 391.61, 1243.69 391.29, 1247.61 391.46 C 1251.53 391.62, 1252.64 392.88, 1254.98 393.88 C 1257.32 394.87, 1257.70 395.46, 1259.30 396.42 C 1260.90 397.37, 1261.70 398.61, 1262.96 398.65 C 1264.22 398.69, 1265.47 398.05, 1265.59 396.62"/>
	<path stroke-linecap="null" stroke-linejoin="null" stroke-dasharray="null" stroke-width="5" stroke="#000000" fill="none" d="M 1385.02,433.08 C 1385.10 431.84, 1384.73 430.83, 1383.33 429.17 C 1381.93 427.51, 1380.97 425.92, 1378.02 424.78 C 1375.08 423.63, 1372.76 423.33, 1368.60 423.44 C 1364.45 423.55, 1362.15 423.73, 1357.26 425.33 C 1352.37 426.92, 1349.11 428.59, 1344.15 431.41 C 1339.19 434.22, 1336.53 435.93, 1332.47 439.40 C 1328.41 442.86, 1325.93 444.86, 1323.84 448.72 C 1321.75 452.58, 1321.32 455.20, 1322.03 458.72 C 1322.73 462.23, 1324.32 464.22, 1327.36 466.30 C 1330.40 468.38, 1332.68 468.79, 1337.24 469.11 C 1341.80 469.43, 1344.79 469.03, 1350.16 467.90 C 1355.53 466.77, 1358.71 465.65, 1364.09 463.44 C 1369.46 461.23, 1372.39 459.48, 1377.03 456.85 C 1381.67 454.22, 1384.08 452.52, 1387.27 450.27 C 1390.45 448.02, 1391.69 446.59, 1392.96 445.61 C 1394.23 444.62, 1393.30 444.26, 1393.62 445.35 C 1393.94 446.43, 1393.28 448.47, 1394.57 451.04 C 1395.87 453.61, 1397.40 455.39, 1400.09 458.19 C 1402.78 460.98, 1404.28 462.67, 1408.01 465.01 C 1411.73 467.34, 1414.19 468.55, 1418.72 469.87 C 1423.25 471.18, 1425.81 471.28, 1430.65 471.58 C 1435.50 471.88, 1437.91 471.83, 1442.93 471.38 C 1447.95 470.92, 1451.20 470.36, 1455.76 469.29 C 1460.32 468.23, 1462.65 467.42, 1465.74 466.05 C 1468.83 464.69, 1470.30 463.63, 1471.22 462.47 C 1472.14 461.31, 1471.77 460.47, 1470.34 460.24 C 1468.90 460.01, 1467.21 460.45, 1464.05 461.31 C 1460.90 462.16, 1458.90 463.40, 1454.58 464.52 C 1450.27 465.63, 1447.21 466.38, 1442.49 466.88 C 1437.77 467.38, 1435.43 467.37, 1430.97 467.02 C 1426.51 466.68, 1424.14 466.48, 1420.18 465.16 C 1416.22 463.84, 1414.16 462.71, 1411.17 460.42 C 1408.19 458.13, 1407.31 456.39, 1405.25 453.71 C 1403.19 451.03, 1402.65 449.25, 1400.86 447.01 C 1399.08 444.77, 1398.27 443.58, 1396.32 442.51 C 1394.37 441.43, 1393.51 440.91, 1391.11 441.64 C 1388.71 442.36, 1387.59 443.83, 1384.34 446.13 C 1381.09 448.44, 1379.22 450.48, 1374.85 453.16 C 1370.49 455.85, 1367.62 457.49, 1362.51 459.55 C 1357.39 461.61, 1354.26 462.54, 1349.28 463.44 C 1344.31 464.35, 1341.43 464.39, 1337.62 464.07 C 1333.81 463.76, 1332.36 463.14, 1330.25 461.86 C 1328.14 460.59, 1327.53 459.86, 1327.07 457.69 C 1326.61 455.51, 1326.29 453.95, 1327.95 450.97 C 1329.60 447.98, 1331.67 445.90, 1335.34 442.76 C 1339.01 439.62, 1341.65 437.82, 1346.31 435.28 C 1350.97 432.75, 1354.25 431.21, 1358.65 430.07 C 1363.06 428.93, 1365.07 429.13, 1368.33 429.57 C 1371.60 430.00, 1372.75 431.29, 1374.96 432.25 C 1377.17 433.21, 1377.78 433.76, 1379.38 434.38 C 1380.98 434.99, 1381.82 435.58, 1382.95 435.32 C 1384.08 435.06, 1384.95 434.31, 1385.02 433.08"/>
	<path stroke-linecap="null" stroke-linejoin="null" stroke-dasharray="null" stroke-width="5" stroke="#000000" fill="none" d="M 1535.20,447.77 C 1535.90 446.48, 1536.48 444.43, 1535.53 441.98 C 1534.58 439.52, 1533.42 437.54, 1530.44 435.49 C 1527.46 433.44, 1525.20 432.32, 1520.63 431.74 C 1516.06 431.17, 1513.27 431.52, 1507.59 432.61 C 1501.91 433.70, 1497.96 434.88, 1492.22 437.20 C 1486.48 439.51, 1483.40 441.11, 1478.89 444.17 C 1474.38 447.24, 1472.15 449.06, 1469.68 452.51 C 1467.21 455.96, 1466.07 458.12, 1466.53 461.42 C 1466.98 464.72, 1468.69 466.81, 1471.96 469.03 C 1475.23 471.26, 1477.94 471.81, 1482.88 472.56 C 1487.82 473.32, 1490.76 473.36, 1496.68 472.81 C 1502.60 472.25, 1506.23 471.52, 1512.47 469.80 C 1518.72 468.08, 1522.54 466.70, 1527.92 464.21 C 1533.30 461.71, 1535.65 460.20, 1539.37 457.32 C 1543.10 454.45, 1544.68 453.05, 1546.54 449.82 C 1548.40 446.59, 1549.07 444.46, 1548.67 441.16 C 1548.27 437.86, 1546.93 435.79, 1544.54 433.30 C 1542.15 430.82, 1540.15 429.97, 1536.71 428.75 C 1533.28 427.53, 1530.91 427.20, 1527.37 427.19 C 1523.83 427.19, 1521.65 427.74, 1519.01 428.73 C 1516.37 429.72, 1515.37 430.73, 1514.15 432.14 C 1512.94 433.54, 1512.83 434.79, 1512.92 435.76 C 1513.00 436.73, 1513.81 436.93, 1514.57 436.98 C 1515.33 437.04, 1515.45 436.27, 1516.72 436.03 C 1517.99 435.80, 1518.77 436.13, 1520.92 435.83 C 1523.08 435.53, 1524.76 434.63, 1527.49 434.52 C 1530.22 434.41, 1532.07 434.57, 1534.58 435.29 C 1537.10 436.00, 1538.35 436.75, 1540.08 438.10 C 1541.81 439.45, 1542.82 440.17, 1543.26 442.03 C 1543.69 443.89, 1543.55 445.01, 1542.25 447.41 C 1540.94 449.81, 1539.93 451.37, 1536.74 454.03 C 1533.54 456.69, 1531.33 458.31, 1526.28 460.73 C 1521.23 463.16, 1517.47 464.55, 1511.48 466.14 C 1505.50 467.74, 1501.92 468.35, 1496.36 468.70 C 1490.79 469.05, 1487.99 468.67, 1483.66 467.87 C 1479.33 467.07, 1477.21 466.12, 1474.71 464.70 C 1472.21 463.28, 1471.44 462.67, 1471.17 460.77 C 1470.90 458.87, 1471.32 457.85, 1473.34 455.22 C 1475.36 452.59, 1477.18 450.47, 1481.26 447.63 C 1485.34 444.78, 1488.32 443.13, 1493.73 441.00 C 1499.15 438.88, 1503.15 437.79, 1508.35 436.99 C 1513.55 436.20, 1516.13 436.21, 1519.73 437.02 C 1523.33 437.84, 1524.35 439.47, 1526.35 441.07 C 1528.36 442.67, 1528.63 443.57, 1529.77 445.04 C 1530.90 446.51, 1530.95 447.89, 1532.04 448.44 C 1533.12 448.98, 1534.50 449.06, 1535.20 447.77"/>
</g>
</svg>