<svg xmlns="http://www.w3.org/2000/svg" id="canvas" viewBox="392.027 322.789 1112.147 306.878"><path d="M 431.13,338.52 C 429.51 339.37, 429.69 340.07, 428.94 341.62 C 428.19 343.17, 427.23 343.89, 427.38 346.26 C 427.53 348.63, 428.41 350.40, 429.68 353.48 C 430.94 356.56, 432.02 358.19, 433.71 361.65 C 435.41 365.11, 436.31 366.79, 438.14 370.78 C 439.97 374.78, 440.92 377.00, 442.86 381.65 C 444.79 386.29, 446.01 388.80, 447.82 394.01 C 449.62 399.22, 450.39 402.19, 451.90 407.71 C 453.42 413.22, 454.24 415.91, 455.39 421.59 C 456.53 427.28, 456.95 430.39, 457.63 436.15 C 458.30 441.90, 458.62 444.87, 458.77 450.37 C 458.92 455.87, 458.87 458.54, 458.39 463.65 C 457.91 468.76, 457.42 471.31, 456.35 475.90 C 455.29 480.48, 454.63 482.69, 453.05 486.57 C 451.46 490.44, 450.21 492.35, 448.44 495.26 C 446.68 498.17, 445.14 499.23, 444.20 501.12 C 443.27 503.00, 443.54 503.67, 443.76 504.68 C 443.98 505.69, 444.22 505.76, 445.31 506.19 C 446.40 506.61, 448.00 507.13, 449.20 506.81 C 450.41 506.50, 450.58 505.48, 451.33 504.61 C 452.08 503.75, 452.75 503.84, 452.95 502.50 C 453.15 501.15, 453.03 499.31, 452.33 497.90 C 451.63 496.49, 450.68 496.10, 449.45 495.43 C 448.23 494.77, 447.95 494.73, 446.21 494.56 C 444.47 494.38, 442.48 493.99, 440.74 494.58 C 439.00 495.17, 438.45 496.51, 437.52 497.51 C 436.58 498.51, 436.55 498.76, 436.08 499.59 C 435.61 500.42, 435.09 500.63, 435.18 501.66 C 435.27 502.68, 435.75 503.60, 436.51 504.72 C 437.28 505.84, 437.73 506.04, 439.00 507.26 C 440.27 508.48, 440.81 509.90, 442.87 510.83 C 444.93 511.77, 446.91 512.56, 449.28 511.94 C 451.65 511.32, 452.96 510.15, 454.72 507.74 C 456.49 505.33, 456.73 503.55, 458.11 499.89 C 459.49 496.23, 460.38 493.93, 461.61 489.45 C 462.85 484.97, 463.42 482.53, 464.28 477.48 C 465.13 472.44, 465.55 469.71, 465.90 464.24 C 466.24 458.76, 466.25 455.90, 466.00 450.11 C 465.75 444.33, 465.38 441.28, 464.64 435.31 C 463.91 429.33, 463.46 426.12, 462.34 420.23 C 461.22 414.34, 460.43 411.59, 459.04 405.87 C 457.65 400.14, 456.99 397.05, 455.40 391.59 C 453.81 386.14, 452.66 383.45, 451.09 378.60 C 449.51 373.75, 448.65 371.49, 447.51 367.36 C 446.38 363.24, 445.91 361.55, 445.40 357.98 C 444.89 354.42, 445.30 352.67, 444.95 349.52 C 444.60 346.37, 444.62 344.33, 443.66 342.24 C 442.71 340.15, 441.50 340.04, 440.18 339.06 C 438.85 338.08, 438.84 337.45, 437.03 337.34 C 435.22 337.24, 432.75 337.66, 431.13 338.52" style="stroke: black; fill: black;"/><path d="M 395.66,432.86 C 396.46 434.71, 397.48 435.37, 399.47 436.17 C 401.47 436.98, 402.66 437.15, 405.64 436.89 C 408.63 436.63, 410.26 435.62, 414.40 434.87 C 418.55 434.12, 421.33 433.69, 426.36 433.15 C 431.40 432.60, 434.05 432.62, 439.57 432.15 C 445.10 431.68, 448.27 431.13, 453.98 430.80 C 459.69 430.46, 462.31 430.60, 468.13 430.45 C 473.95 430.30, 477.29 430.00, 483.09 430.03 C 488.90 430.05, 491.58 430.41, 497.17 430.58 C 502.77 430.75, 506.09 430.56, 511.05 430.86 C 516.02 431.17, 518.49 431.93, 522.00 432.09 C 525.51 432.26, 526.45 432.21, 528.62 431.69 C 530.79 431.18, 531.96 430.77, 532.83 429.51 C 533.71 428.25, 533.74 426.73, 532.98 425.41 C 532.22 424.10, 531.14 423.65, 529.02 422.94 C 526.90 422.22, 525.97 421.94, 522.38 421.85 C 518.80 421.75, 516.13 422.21, 511.10 422.46 C 506.07 422.71, 502.83 423.02, 497.22 423.11 C 491.62 423.20, 488.94 422.88, 483.09 422.91 C 477.24 422.94, 473.86 423.16, 467.98 423.26 C 462.09 423.36, 459.42 423.25, 453.66 423.40 C 447.90 423.55, 444.70 423.94, 439.17 424.02 C 433.64 424.11, 431.07 423.97, 426.01 423.82 C 420.95 423.66, 418.09 423.59, 413.87 423.23 C 409.65 422.87, 407.91 421.96, 404.91 421.99 C 401.91 422.03, 400.76 422.42, 398.87 423.41 C 396.99 424.39, 396.12 425.05, 395.48 426.94 C 394.84 428.83, 394.86 431.01, 395.66 432.86" style="stroke: black; fill: black;"/><path d="M 554.59,326.56 C 552.77 327.55, 551.87 328.60, 551.23 331.54 C 550.59 334.48, 551.14 336.67, 551.40 341.24 C 551.66 345.81, 552.00 348.81, 552.53 354.40 C 553.05 359.99, 553.50 363.02, 554.02 369.19 C 554.54 375.37, 554.70 378.52, 555.14 385.27 C 555.57 392.02, 555.53 395.76, 556.18 402.95 C 556.83 410.15, 557.43 413.91, 558.38 421.24 C 559.33 428.57, 559.91 432.47, 560.91 439.59 C 561.92 446.71, 562.53 450.35, 563.41 456.82 C 564.29 463.28, 564.90 466.64, 565.30 471.92 C 565.70 477.21, 564.62 479.90, 565.42 483.25 C 566.21 486.59, 567.20 487.92, 569.29 488.64 C 571.37 489.36, 574.17 488.93, 575.86 486.84 C 577.56 484.75, 577.41 482.38, 577.76 478.20 C 578.10 474.02, 577.61 470.92, 577.59 465.94 C 577.58 460.96, 577.10 458.12, 577.70 453.29 C 578.30 448.46, 579.05 446.22, 580.60 441.79 C 582.15 437.36, 583.18 435.20, 585.47 431.14 C 587.76 427.07, 589.00 425.16, 592.05 421.47 C 595.09 417.77, 597.10 415.85, 600.69 412.67 C 604.29 409.49, 606.28 407.78, 610.03 405.56 C 613.79 403.34, 615.91 402.54, 619.46 401.56 C 623.01 400.58, 624.76 400.49, 627.78 400.66 C 630.79 400.82, 631.77 401.00, 634.53 402.38 C 637.29 403.76, 638.95 404.68, 641.58 407.56 C 644.22 410.43, 645.58 412.64, 647.72 416.75 C 649.86 420.87, 650.72 423.05, 652.28 428.13 C 653.84 433.21, 654.44 436.13, 655.52 442.15 C 656.61 448.17, 656.77 451.88, 657.70 458.25 C 658.63 464.62, 658.85 467.95, 660.18 474.01 C 661.51 480.06, 662.84 483.33, 664.34 488.51 C 665.83 493.69, 666.43 496.19, 667.65 499.90 C 668.88 503.61, 669.07 505.03, 670.46 507.07 C 671.84 509.12, 673.03 509.84, 674.58 510.13 C 676.13 510.43, 677.34 509.81, 678.20 508.54 C 679.06 507.27, 679.21 506.18, 678.88 503.80 C 678.55 501.43, 677.98 500.20, 676.54 496.64 C 675.09 493.09, 673.57 490.87, 671.66 486.03 C 669.75 481.18, 668.41 478.17, 666.97 472.42 C 665.54 466.67, 665.38 463.56, 664.49 457.27 C 663.60 450.98, 663.49 447.21, 662.52 440.98 C 661.55 434.74, 661.05 431.67, 659.63 426.08 C 658.22 420.49, 657.66 417.98, 655.45 413.04 C 653.24 408.09, 651.90 405.21, 648.58 401.36 C 645.26 397.51, 642.92 395.84, 638.85 393.79 C 634.79 391.73, 632.65 391.29, 628.25 391.09 C 623.85 390.89, 621.40 391.35, 616.86 392.78 C 612.31 394.20, 609.86 395.46, 605.52 398.20 C 601.18 400.95, 599.10 402.89, 595.14 406.51 C 591.19 410.14, 589.09 412.19, 585.75 416.33 C 582.41 420.46, 581.01 422.64, 578.45 427.18 C 575.89 431.71, 574.80 434.08, 572.94 439.00 C 571.09 443.92, 570.35 446.55, 569.17 451.79 C 568.00 457.03, 567.82 460.05, 567.08 465.18 C 566.34 470.32, 565.65 473.24, 565.48 477.45 C 565.32 481.65, 564.83 484.08, 566.24 486.19 C 567.65 488.31, 570.73 488.85, 572.54 488.03 C 574.35 487.22, 575.24 485.57, 575.27 482.14 C 575.31 478.70, 573.84 476.12, 572.72 470.85 C 571.59 465.59, 570.85 462.24, 569.65 455.81 C 568.46 449.39, 567.82 445.79, 566.72 438.73 C 565.62 431.66, 565.06 427.76, 564.15 420.50 C 563.24 413.25, 562.67 409.57, 562.15 402.46 C 561.63 395.36, 561.73 391.70, 561.54 384.98 C 561.35 378.26, 561.28 375.02, 561.22 368.85 C 561.16 362.68, 561.06 359.60, 561.24 354.12 C 561.42 348.65, 561.62 345.89, 562.10 341.50 C 562.57 337.10, 563.97 335.12, 563.62 332.14 C 563.26 329.16, 562.13 327.71, 560.33 326.60 C 558.52 325.48, 556.41 325.57, 554.59 326.56" style="stroke: black; fill: black;"/><path d="M 778.23,409.41 C 779.69 407.46, 779.88 404.99, 779.15 401.94 C 778.41 398.89, 777.23 397.07, 774.56 394.16 C 771.88 391.25, 769.56 389.25, 765.77 387.40 C 761.97 385.55, 759.86 385.31, 755.58 384.90 C 751.30 384.48, 749.16 384.67, 744.37 385.31 C 739.58 385.96, 736.65 386.33, 731.64 388.11 C 726.63 389.90, 724.22 391.37, 719.32 394.23 C 714.43 397.10, 711.87 398.69, 707.17 402.44 C 702.46 406.19, 699.82 408.27, 695.79 412.97 C 691.76 417.67, 689.84 420.61, 687.02 425.94 C 684.19 431.27, 683.19 434.09, 681.67 439.63 C 680.14 445.18, 679.51 448.11, 679.39 453.66 C 679.28 459.21, 679.62 462.24, 681.09 467.39 C 682.56 472.53, 683.78 475.10, 686.73 479.40 C 689.69 483.69, 691.55 485.78, 695.89 488.87 C 700.22 491.97, 703.23 493.12, 708.42 494.86 C 713.61 496.60, 716.39 497.15, 721.83 497.57 C 727.27 497.99, 730.34 497.87, 735.62 496.98 C 740.89 496.10, 743.56 495.41, 748.21 493.15 C 752.85 490.89, 754.96 489.02, 758.82 485.68 C 762.68 482.34, 764.49 480.52, 767.51 476.46 C 770.52 472.41, 771.82 469.99, 773.90 465.39 C 775.98 460.79, 776.66 458.31, 777.92 453.46 C 779.19 448.61, 779.72 445.94, 780.22 441.14 C 780.72 436.35, 780.43 433.99, 780.43 429.48 C 780.42 424.97, 780.73 422.50, 780.20 418.58 C 779.68 414.67, 779.68 411.86, 777.78 409.92 C 775.89 407.97, 773.14 408.01, 770.72 408.87 C 768.29 409.73, 766.21 411.31, 765.66 414.20 C 765.10 417.08, 766.64 419.16, 767.95 423.28 C 769.26 427.40, 770.49 429.99, 772.21 434.81 C 773.94 439.62, 774.81 442.36, 776.59 447.36 C 778.37 452.35, 779.17 454.88, 781.12 459.79 C 783.08 464.69, 784.25 467.11, 786.35 471.88 C 788.45 476.65, 789.50 479.25, 791.64 483.64 C 793.78 488.03, 794.78 490.56, 797.06 493.82 C 799.34 497.08, 800.82 498.57, 803.04 499.94 C 805.26 501.30, 806.63 501.05, 808.17 500.64 C 809.71 500.22, 810.36 499.34, 810.75 497.86 C 811.14 496.37, 811.15 495.27, 810.13 493.21 C 809.10 491.15, 807.75 490.33, 805.62 487.56 C 803.49 484.79, 801.84 483.16, 799.47 479.34 C 797.10 475.52, 795.96 472.95, 793.78 468.45 C 791.61 463.95, 790.42 461.59, 788.60 456.86 C 786.79 452.13, 786.04 449.74, 784.69 444.80 C 783.34 439.87, 782.77 437.07, 781.86 432.19 C 780.95 427.30, 780.81 424.48, 780.15 420.37 C 779.50 416.25, 780.17 413.84, 778.59 411.62 C 777.02 409.39, 774.59 408.97, 772.30 409.23 C 770.01 409.49, 767.85 410.66, 767.14 412.93 C 766.44 415.19, 768.02 417.14, 768.76 420.56 C 769.51 423.99, 770.36 426.09, 770.86 430.05 C 771.35 434.01, 771.54 436.11, 771.26 440.36 C 770.97 444.61, 770.46 447.00, 769.42 451.31 C 768.37 455.61, 767.78 457.86, 766.01 461.86 C 764.25 465.87, 763.13 467.86, 760.58 471.34 C 758.02 474.83, 756.45 476.44, 753.23 479.30 C 750.02 482.16, 748.29 483.74, 744.50 485.65 C 740.70 487.56, 738.66 488.12, 734.26 488.85 C 729.85 489.59, 727.12 489.70, 722.47 489.33 C 717.83 488.97, 715.39 488.47, 711.03 487.03 C 706.67 485.59, 704.18 484.58, 700.67 482.12 C 697.15 479.66, 695.85 478.13, 693.47 474.73 C 691.10 471.33, 690.09 469.31, 688.81 465.12 C 687.52 460.92, 687.07 458.46, 687.06 453.74 C 687.05 449.03, 687.51 446.42, 688.77 441.53 C 690.04 436.65, 690.90 434.07, 693.40 429.30 C 695.90 424.54, 697.61 421.91, 701.27 417.72 C 704.94 413.52, 707.34 411.62, 711.73 408.33 C 716.11 405.03, 718.67 403.59, 723.20 401.25 C 727.73 398.91, 729.95 397.86, 734.36 396.63 C 738.78 395.40, 741.36 395.27, 745.28 395.11 C 749.19 394.94, 751.12 395.16, 753.94 395.81 C 756.76 396.46, 757.39 396.86, 759.39 398.37 C 761.38 399.89, 762.40 401.45, 763.89 403.37 C 765.39 405.29, 765.28 406.31, 766.86 407.98 C 768.45 409.65, 769.55 411.43, 771.82 411.72 C 774.10 412.01, 776.76 411.37, 778.23 409.41" style="stroke: black; fill: black;"/><path d="M 819.02,412.69 C 817.07 412.70, 816.03 413.24, 814.62 414.82 C 813.21 416.40, 812.29 417.75, 811.97 420.58 C 811.65 423.42, 812.22 425.32, 813.02 428.97 C 813.81 432.62, 815.03 434.66, 815.95 438.83 C 816.88 443.00, 817.15 445.47, 817.64 449.83 C 818.13 454.19, 818.32 456.42, 818.42 460.63 C 818.51 464.85, 818.32 467.09, 818.13 470.90 C 817.95 474.71, 816.77 476.81, 817.47 479.70 C 818.18 482.59, 819.47 484.10, 821.68 485.36 C 823.89 486.61, 825.96 486.72, 828.53 485.98 C 831.11 485.24, 833.27 484.14, 834.55 481.63 C 835.84 479.13, 835.20 477.16, 834.97 473.44 C 834.73 469.72, 833.79 467.33, 833.37 463.05 C 832.96 458.77, 832.88 456.26, 832.90 452.04 C 832.92 447.81, 832.89 445.73, 833.48 441.92 C 834.08 438.10, 834.54 436.38, 835.86 432.95 C 837.19 429.53, 838.04 427.79, 840.10 424.78 C 842.15 421.76, 843.33 420.34, 846.12 417.89 C 848.91 415.44, 850.50 414.39, 854.03 412.52 C 857.57 410.64, 859.72 409.67, 863.78 408.52 C 867.83 407.36, 870.02 406.88, 874.30 406.75 C 878.59 406.61, 881.09 406.85, 885.21 407.83 C 889.32 408.81, 891.05 409.48, 894.88 411.63 C 898.70 413.77, 900.85 415.18, 904.33 418.55 C 907.82 421.92, 909.45 424.13, 912.30 428.48 C 915.14 432.83, 916.64 435.31, 918.56 440.31 C 920.47 445.31, 920.72 448.11, 921.85 453.49 C 922.98 458.87, 923.56 461.88, 924.21 467.22 C 924.85 472.57, 924.77 475.16, 925.06 480.22 C 925.35 485.28, 925.45 488.16, 925.65 492.52 C 925.86 496.88, 925.23 499.10, 926.09 502.03 C 926.96 504.96, 928.35 506.31, 930.00 507.17 C 931.64 508.03, 933.09 507.62, 934.32 506.34 C 935.56 505.06, 936.03 503.71, 936.17 500.77 C 936.30 497.83, 935.60 495.90, 934.99 491.63 C 934.38 487.37, 933.78 484.55, 933.12 479.46 C 932.45 474.38, 932.46 471.73, 931.66 466.23 C 930.85 460.72, 930.30 457.66, 929.07 451.96 C 927.83 446.25, 927.55 443.22, 925.50 437.70 C 923.44 432.17, 921.91 429.29, 918.80 424.32 C 915.68 419.36, 913.88 416.86, 909.92 412.89 C 905.96 408.91, 903.53 407.13, 899.01 404.46 C 894.48 401.79, 892.28 400.85, 887.30 399.53 C 882.32 398.21, 879.30 397.83, 874.13 397.88 C 868.95 397.93, 866.28 398.51, 861.41 399.78 C 856.54 401.05, 854.07 402.05, 849.76 404.21 C 845.44 406.38, 843.38 407.60, 839.84 410.61 C 836.29 413.62, 834.64 415.49, 832.04 419.26 C 829.44 423.04, 828.47 425.28, 826.85 429.48 C 825.23 433.68, 824.77 435.87, 823.95 440.27 C 823.12 444.67, 823.16 446.96, 822.71 451.49 C 822.26 456.01, 822.23 458.56, 821.71 462.90 C 821.18 467.23, 820.45 469.70, 820.08 473.16 C 819.71 476.62, 819.01 478.12, 819.85 480.20 C 820.69 482.27, 822.40 483.05, 824.27 483.53 C 826.14 484.01, 827.86 483.73, 829.20 482.61 C 830.54 481.48, 830.98 480.34, 830.98 477.90 C 830.98 475.47, 829.71 473.97, 829.20 470.43 C 828.70 466.89, 828.75 464.48, 828.48 460.20 C 828.21 455.91, 828.08 453.57, 827.86 449.01 C 827.63 444.44, 827.50 441.65, 827.35 437.38 C 827.20 433.10, 826.96 430.81, 827.10 427.63 C 827.25 424.45, 828.14 423.47, 828.08 421.46 C 828.02 419.46, 827.57 418.93, 826.82 417.59 C 826.07 416.25, 825.91 415.74, 824.35 414.76 C 822.79 413.78, 820.96 412.68, 819.02 412.69" style="stroke: black; fill: black;"/><path d="M 1054.23,429.33 C 1055.26 427.14, 1055.02 424.77, 1053.69 421.95 C 1052.36 419.13, 1050.74 417.53, 1047.58 415.23 C 1044.42 412.93, 1041.85 411.80, 1037.89 410.45 C 1033.92 409.11, 1032.22 408.88, 1027.74 408.49 C 1023.26 408.09, 1020.54 407.84, 1015.50 408.49 C 1010.47 409.14, 1007.64 409.99, 1002.57 411.74 C 997.50 413.49, 995.14 414.64, 990.15 417.23 C 985.15 419.81, 982.26 421.36, 977.60 424.69 C 972.94 428.02, 970.47 429.88, 966.86 433.87 C 963.25 437.86, 961.78 440.18, 959.55 444.64 C 957.32 449.09, 956.15 451.48, 955.70 456.13 C 955.26 460.79, 955.60 463.56, 957.33 467.89 C 959.05 472.21, 960.92 474.37, 964.31 477.77 C 967.71 481.17, 969.76 482.67, 974.28 484.90 C 978.80 487.12, 981.63 487.88, 986.93 488.89 C 992.23 489.90, 995.50 489.96, 1000.79 489.93 C 1006.08 489.91, 1008.58 489.68, 1013.38 488.77 C 1018.17 487.86, 1020.57 487.19, 1024.77 485.39 C 1028.97 483.58, 1031.01 482.30, 1034.36 479.74 C 1037.71 477.18, 1038.94 475.51, 1041.53 472.57 C 1044.13 469.64, 1046.08 468.05, 1047.35 465.06 C 1048.63 462.08, 1048.73 460.06, 1047.91 457.64 C 1047.10 455.22, 1045.60 453.65, 1043.28 452.97 C 1040.95 452.30, 1038.43 452.72, 1036.30 454.28 C 1034.17 455.84, 1032.75 457.75, 1032.63 460.76 C 1032.50 463.77, 1034.09 465.53, 1035.69 469.33 C 1037.28 473.12, 1038.51 475.14, 1040.60 479.74 C 1042.69 484.33, 1043.69 487.02, 1046.15 492.31 C 1048.61 497.60, 1050.29 500.46, 1052.88 506.19 C 1055.48 511.91, 1056.91 514.91, 1059.12 520.95 C 1061.33 526.98, 1062.19 530.30, 1063.92 536.36 C 1065.65 542.43, 1066.43 545.39, 1067.77 551.28 C 1069.11 557.16, 1069.86 560.22, 1070.61 565.77 C 1071.36 571.32, 1071.44 574.02, 1071.53 579.02 C 1071.62 584.02, 1071.58 586.51, 1071.07 590.77 C 1070.55 595.04, 1070.00 597.10, 1068.95 600.36 C 1067.90 603.63, 1067.20 604.91, 1065.82 607.08 C 1064.45 609.25, 1063.97 609.82, 1062.07 611.21 C 1060.16 612.61, 1058.98 613.07, 1056.32 614.05 C 1053.66 615.04, 1052.28 615.65, 1048.76 616.16 C 1045.24 616.66, 1043.10 616.83, 1038.72 616.58 C 1034.34 616.33, 1031.66 615.99, 1026.86 614.90 C 1022.06 613.80, 1019.53 613.06, 1014.71 611.11 C 1009.90 609.16, 1007.36 607.89, 1002.79 605.16 C 998.21 602.42, 995.70 600.64, 991.85 597.44 C 987.99 594.23, 986.27 592.70, 983.50 589.13 C 980.74 585.56, 979.57 583.69, 978.02 579.57 C 976.48 575.46, 976.50 572.79, 975.77 568.55 C 975.04 564.31, 975.25 561.79, 974.36 558.37 C 973.47 554.94, 973.00 552.67, 971.33 551.41 C 969.65 550.15, 967.30 550.40, 965.99 552.07 C 964.67 553.73, 964.63 556.06, 964.75 559.74 C 964.88 563.42, 965.52 565.85, 966.63 570.46 C 967.75 575.07, 968.20 578.06, 970.33 582.78 C 972.46 587.49, 973.98 589.90, 977.29 594.03 C 980.61 598.16, 982.60 599.87, 986.90 603.41 C 991.21 606.96, 993.87 608.75, 998.82 611.75 C 1003.77 614.74, 1006.46 616.09, 1011.64 618.37 C 1016.82 620.65, 1019.49 621.63, 1024.72 623.14 C 1029.95 624.65, 1032.79 625.23, 1037.79 625.92 C 1042.79 626.61, 1045.26 626.80, 1049.71 626.58 C 1054.16 626.35, 1056.13 626.08, 1060.02 624.81 C 1063.92 623.54, 1066.14 622.72, 1069.17 620.23 C 1072.19 617.74, 1073.33 615.85, 1075.16 612.36 C 1076.98 608.87, 1077.42 606.96, 1078.29 602.77 C 1079.16 598.58, 1079.35 596.23, 1079.52 591.41 C 1079.69 586.59, 1079.53 584.01, 1079.14 578.67 C 1078.74 573.33, 1078.52 570.50, 1077.54 564.72 C 1076.57 558.93, 1075.72 555.78, 1074.24 549.75 C 1072.77 543.72, 1071.95 540.78, 1070.18 534.58 C 1068.41 528.37, 1067.54 524.95, 1065.38 518.72 C 1063.22 512.49, 1061.75 509.30, 1059.39 503.41 C 1057.03 497.52, 1055.47 494.63, 1053.57 489.28 C 1051.67 483.92, 1050.88 481.25, 1049.89 476.63 C 1048.91 472.01, 1048.79 469.65, 1048.63 466.19 C 1048.46 462.73, 1049.62 461.25, 1049.06 459.31 C 1048.50 457.37, 1047.42 457.25, 1045.83 456.50 C 1044.24 455.74, 1042.79 455.68, 1041.10 455.54 C 1039.42 455.41, 1038.74 455.16, 1037.40 455.82 C 1036.05 456.49, 1035.47 456.87, 1034.37 458.85 C 1033.27 460.83, 1033.24 463.10, 1031.89 465.71 C 1030.54 468.32, 1029.85 469.68, 1027.63 471.90 C 1025.41 474.13, 1024.00 475.20, 1020.80 476.83 C 1017.60 478.46, 1015.63 479.17, 1011.61 480.04 C 1007.60 480.91, 1005.33 481.14, 1000.73 481.18 C 996.13 481.21, 993.08 481.11, 988.62 480.22 C 984.16 479.33, 981.92 478.55, 978.43 476.71 C 974.94 474.87, 973.60 473.52, 971.16 471.02 C 968.72 468.51, 967.48 467.00, 966.23 464.18 C 964.97 461.36, 964.66 460.07, 964.88 456.92 C 965.10 453.76, 965.71 451.91, 967.33 448.39 C 968.95 444.87, 970.00 442.74, 972.98 439.30 C 975.96 435.85, 978.07 434.12, 982.22 431.14 C 986.38 428.17, 989.17 426.65, 993.76 424.41 C 998.36 422.18, 1000.67 421.28, 1005.19 419.97 C 1009.72 418.67, 1012.18 418.09, 1016.39 417.87 C 1020.60 417.65, 1022.88 418.13, 1026.23 418.87 C 1029.58 419.61, 1030.59 420.15, 1033.15 421.58 C 1035.70 423.01, 1037.07 424.27, 1039.00 426.02 C 1040.94 427.77, 1040.92 428.95, 1042.83 430.33 C 1044.74 431.71, 1046.27 433.11, 1048.55 432.91 C 1050.83 432.71, 1053.20 431.52, 1054.23 429.33" style="stroke: black; fill: black;"/><path d="M 1185.00,393.66 C 1186.32 391.68, 1186.45 389.42, 1185.63 386.34 C 1184.81 383.25, 1183.43 381.41, 1180.91 378.23 C 1178.39 375.04, 1176.53 373.02, 1173.02 370.41 C 1169.52 367.80, 1167.51 366.61, 1163.38 365.18 C 1159.25 363.75, 1157.09 363.70, 1152.37 363.26 C 1147.65 362.82, 1144.99 362.62, 1139.78 362.97 C 1134.58 363.32, 1131.74 363.63, 1126.33 365.03 C 1120.93 366.43, 1118.01 367.60, 1112.77 369.98 C 1107.52 372.36, 1105.14 373.64, 1100.10 376.92 C 1095.07 380.20, 1092.35 382.19, 1087.59 386.39 C 1082.84 390.59, 1080.30 392.95, 1076.32 397.93 C 1072.34 402.91, 1070.65 405.66, 1067.69 411.30 C 1064.74 416.95, 1063.32 420.08, 1061.54 426.16 C 1059.76 432.25, 1059.30 435.59, 1058.77 441.73 C 1058.25 447.87, 1058.18 451.06, 1058.91 456.84 C 1059.63 462.62, 1060.23 465.33, 1062.41 470.65 C 1064.60 475.96, 1066.26 478.85, 1069.83 483.42 C 1073.40 487.98, 1075.37 490.16, 1080.28 493.47 C 1085.19 496.79, 1088.48 498.22, 1094.37 500.00 C 1100.27 501.78, 1103.56 501.99, 1109.76 502.39 C 1115.96 502.79, 1119.29 502.56, 1125.39 501.98 C 1131.49 501.41, 1134.69 501.06, 1140.27 499.52 C 1145.85 497.98, 1148.53 496.75, 1153.29 494.27 C 1158.05 491.79, 1160.60 490.39, 1164.08 487.13 C 1167.56 483.87, 1168.88 481.94, 1170.69 477.98 C 1172.50 474.01, 1173.05 471.49, 1173.12 467.29 C 1173.20 463.10, 1172.44 460.83, 1171.07 457.00 C 1169.71 453.17, 1168.37 451.35, 1166.31 448.15 C 1164.25 444.95, 1162.86 443.12, 1160.76 440.99 C 1158.66 438.86, 1157.59 438.41, 1155.81 437.49 C 1154.04 436.56, 1153.28 435.95, 1151.89 436.38 C 1150.51 436.81, 1149.70 438.01, 1148.89 439.64 C 1148.07 441.26, 1147.50 442.76, 1147.82 444.50 C 1148.14 446.24, 1148.57 447.16, 1150.49 448.34 C 1152.41 449.53, 1154.44 448.91, 1157.44 450.41 C 1160.44 451.91, 1162.41 453.02, 1165.51 455.85 C 1168.61 458.68, 1170.12 460.56, 1172.95 464.54 C 1175.78 468.52, 1177.07 470.98, 1179.66 475.76 C 1182.25 480.54, 1183.66 483.22, 1185.90 488.45 C 1188.15 493.69, 1189.05 496.41, 1190.87 501.94 C 1192.69 507.47, 1193.41 510.60, 1194.99 516.09 C 1196.57 521.57, 1197.34 524.17, 1198.76 529.36 C 1200.19 534.56, 1201.05 537.20, 1202.10 542.06 C 1203.15 546.92, 1203.52 549.48, 1204.00 553.65 C 1204.48 557.83, 1204.27 560.06, 1204.50 562.93 C 1204.73 565.81, 1204.96 566.51, 1205.15 568.02 C 1205.34 569.53, 1204.92 569.85, 1205.45 570.48 C 1205.99 571.10, 1207.17 571.03, 1207.81 571.12 C 1208.46 571.21, 1208.96 570.26, 1208.67 570.94 C 1208.38 571.61, 1206.22 573.55, 1206.38 574.52 C 1206.53 575.48, 1208.00 575.96, 1209.46 575.76 C 1210.93 575.56, 1212.42 574.93, 1213.71 573.51 C 1214.99 572.09, 1215.46 571.06, 1215.89 568.66 C 1216.31 566.26, 1216.38 564.88, 1215.83 561.52 C 1215.29 558.16, 1214.34 556.14, 1213.15 551.85 C 1211.97 547.56, 1211.34 544.98, 1209.90 540.07 C 1208.45 535.16, 1207.52 532.48, 1205.92 527.28 C 1204.32 522.08, 1203.55 519.58, 1201.90 514.06 C 1200.25 508.55, 1199.53 505.40, 1197.69 499.71 C 1195.85 494.03, 1194.90 491.14, 1192.69 485.64 C 1190.48 480.14, 1189.12 477.36, 1186.64 472.20 C 1184.16 467.04, 1182.98 464.47, 1180.29 459.84 C 1177.61 455.21, 1176.08 452.98, 1173.20 449.04 C 1170.32 445.11, 1168.59 443.36, 1165.89 440.16 C 1163.19 436.96, 1162.43 434.67, 1159.72 433.05 C 1157.00 431.44, 1154.88 431.37, 1152.31 432.07 C 1149.74 432.77, 1148.32 434.49, 1146.86 436.54 C 1145.40 438.59, 1145.00 440.25, 1145.02 442.30 C 1145.04 444.36, 1145.87 445.03, 1146.94 446.82 C 1148.02 448.61, 1148.58 449.42, 1150.40 451.25 C 1152.23 453.08, 1154.11 453.90, 1156.06 455.97 C 1158.02 458.04, 1158.96 459.26, 1160.20 461.58 C 1161.43 463.91, 1161.96 465.06, 1162.22 467.59 C 1162.49 470.12, 1162.39 471.59, 1161.51 474.24 C 1160.62 476.89, 1160.24 478.24, 1157.82 480.84 C 1155.40 483.44, 1153.35 484.95, 1149.42 487.26 C 1145.50 489.58, 1143.14 490.90, 1138.20 492.43 C 1133.25 493.96, 1130.29 494.33, 1124.69 494.91 C 1119.09 495.48, 1115.85 495.66, 1110.21 495.31 C 1104.56 494.96, 1101.62 494.74, 1096.46 493.15 C 1091.30 491.57, 1088.57 490.26, 1084.41 487.41 C 1080.25 484.55, 1078.69 482.79, 1075.64 478.87 C 1072.59 474.96, 1071.10 472.43, 1069.16 467.84 C 1067.22 463.25, 1066.64 461.03, 1065.95 455.92 C 1065.26 450.81, 1065.29 447.87, 1065.71 442.29 C 1066.12 436.71, 1066.45 433.61, 1068.03 428.03 C 1069.61 422.46, 1070.89 419.57, 1073.61 414.41 C 1076.33 409.24, 1077.90 406.75, 1081.61 402.20 C 1085.32 397.64, 1087.69 395.47, 1092.16 391.63 C 1096.63 387.78, 1099.24 385.92, 1103.97 382.98 C 1108.69 380.04, 1110.93 378.93, 1115.78 376.94 C 1120.63 374.95, 1123.34 374.05, 1128.22 373.04 C 1133.09 372.03, 1135.56 371.92, 1140.15 371.86 C 1144.75 371.81, 1147.33 372.17, 1151.20 372.79 C 1155.07 373.40, 1156.67 373.59, 1159.50 374.93 C 1162.34 376.26, 1163.20 377.31, 1165.37 379.48 C 1167.54 381.66, 1168.74 383.25, 1170.36 385.82 C 1171.98 388.38, 1171.74 390.23, 1173.46 392.32 C 1175.19 394.41, 1176.69 396.00, 1179.00 396.27 C 1181.31 396.54, 1183.67 395.65, 1185.00 393.66" style="stroke: black; fill: black;"/><path d="M 1279.12,443.29 C 1279.85 441.22, 1279.65 439.72, 1278.53 437.55 C 1277.41 435.38, 1276.25 434.12, 1273.51 432.44 C 1270.76 430.76, 1268.69 429.65, 1264.80 429.13 C 1260.92 428.62, 1258.30 429.00, 1254.10 429.86 C 1249.90 430.71, 1247.88 431.53, 1243.83 433.40 C 1239.77 435.27, 1237.59 436.46, 1233.84 439.21 C 1230.08 441.96, 1228.31 443.74, 1225.05 447.14 C 1221.79 450.54, 1220.22 452.46, 1217.53 456.19 C 1214.83 459.92, 1213.38 461.79, 1211.57 465.77 C 1209.76 469.76, 1208.96 472.00, 1208.48 476.12 C 1207.99 480.24, 1208.23 482.51, 1209.15 486.37 C 1210.06 490.24, 1210.86 492.23, 1213.05 495.44 C 1215.25 498.65, 1216.83 500.35, 1220.13 502.41 C 1223.43 504.47, 1225.66 505.08, 1229.56 505.73 C 1233.46 506.39, 1235.56 506.15, 1239.63 505.70 C 1243.70 505.26, 1245.98 504.93, 1249.92 503.51 C 1253.86 502.09, 1255.79 500.92, 1259.35 498.61 C 1262.90 496.30, 1264.53 494.91, 1267.72 491.96 C 1270.90 489.01, 1272.45 487.50, 1275.27 483.86 C 1278.09 480.22, 1279.30 477.73, 1281.82 473.75 C 1284.35 469.78, 1285.77 467.60, 1287.89 463.99 C 1290.00 460.39, 1291.96 458.48, 1292.40 455.73 C 1292.85 452.98, 1291.72 451.37, 1290.13 450.24 C 1288.53 449.11, 1286.30 448.89, 1284.41 450.08 C 1282.52 451.28, 1281.07 453.02, 1280.68 456.23 C 1280.28 459.44, 1281.26 461.98, 1282.43 466.15 C 1283.60 470.31, 1284.69 472.71, 1286.52 477.06 C 1288.35 481.40, 1289.20 483.60, 1291.56 487.86 C 1293.91 492.12, 1295.13 494.47, 1298.29 498.36 C 1301.45 502.26, 1303.42 504.22, 1307.35 507.35 C 1311.28 510.48, 1313.25 511.82, 1317.94 514.02 C 1322.63 516.23, 1325.51 517.24, 1330.78 518.36 C 1336.06 519.47, 1338.95 519.57, 1344.32 519.60 C 1349.69 519.64, 1352.19 519.44, 1357.63 518.53 C 1363.07 517.61, 1366.25 516.88, 1371.53 515.03 C 1376.81 513.18, 1379.25 512.07, 1384.03 509.29 C 1388.80 506.51, 1391.52 504.41, 1395.39 501.14 C 1399.26 497.86, 1401.22 496.02, 1403.39 492.91 C 1405.56 489.81, 1406.48 487.68, 1406.24 485.61 C 1406.00 483.55, 1404.15 482.33, 1402.18 482.59 C 1400.20 482.84, 1398.90 484.52, 1396.37 486.91 C 1393.84 489.30, 1392.84 491.44, 1389.53 494.53 C 1386.22 497.63, 1383.96 499.77, 1379.84 502.39 C 1375.71 505.01, 1373.63 505.97, 1368.93 507.64 C 1364.23 509.30, 1361.26 509.94, 1356.36 510.72 C 1351.46 511.49, 1349.19 511.61, 1344.43 511.51 C 1339.67 511.41, 1337.12 511.24, 1332.56 510.21 C 1327.99 509.18, 1325.54 508.29, 1321.60 506.37 C 1317.66 504.45, 1316.10 503.31, 1312.86 500.59 C 1309.62 497.87, 1307.98 496.19, 1305.40 492.78 C 1302.82 489.37, 1301.74 487.35, 1299.96 483.56 C 1298.18 479.76, 1297.38 477.66, 1296.51 473.79 C 1295.65 469.91, 1295.62 467.75, 1295.65 464.19 C 1295.68 460.64, 1297.13 458.91, 1296.65 455.99 C 1296.16 453.08, 1295.26 451.38, 1293.22 449.63 C 1291.17 447.88, 1289.10 447.06, 1286.43 447.24 C 1283.77 447.42, 1281.58 448.13, 1279.89 450.54 C 1278.20 452.95, 1279.29 455.66, 1277.97 459.28 C 1276.65 462.89, 1275.41 464.92, 1273.31 468.62 C 1271.21 472.32, 1269.95 474.63, 1267.47 477.76 C 1264.99 480.89, 1263.69 481.97, 1260.92 484.28 C 1258.16 486.58, 1256.57 487.65, 1253.66 489.30 C 1250.74 490.95, 1249.35 491.67, 1246.34 492.52 C 1243.33 493.37, 1241.53 493.40, 1238.61 493.54 C 1235.69 493.69, 1234.06 493.68, 1231.74 493.25 C 1229.42 492.82, 1228.67 492.46, 1227.02 491.42 C 1225.36 490.37, 1224.73 489.68, 1223.47 488.02 C 1222.20 486.37, 1221.47 485.32, 1220.67 483.12 C 1219.88 480.92, 1219.41 479.68, 1219.49 477.04 C 1219.57 474.39, 1219.85 472.91, 1221.07 469.89 C 1222.30 466.87, 1223.40 465.11, 1225.61 461.94 C 1227.83 458.77, 1229.32 456.88, 1232.13 454.02 C 1234.94 451.16, 1236.49 449.69, 1239.67 447.64 C 1242.85 445.59, 1244.83 444.83, 1248.03 443.76 C 1251.23 442.69, 1252.97 442.31, 1255.68 442.29 C 1258.38 442.27, 1259.64 442.87, 1261.56 443.65 C 1263.49 444.43, 1263.67 445.26, 1265.29 446.18 C 1266.91 447.11, 1267.75 447.95, 1269.67 448.29 C 1271.59 448.63, 1273.00 448.89, 1274.89 447.89 C 1276.78 446.89, 1278.39 445.36, 1279.12 443.29" style="stroke: black; fill: black;"/><path d="M 1453.26,441.86 C 1453.75 439.59, 1453.29 437.23, 1451.28 435.01 C 1449.27 432.78, 1446.95 431.87, 1443.20 430.72 C 1439.44 429.58, 1437.04 429.36, 1432.49 429.26 C 1427.95 429.16, 1425.42 429.30, 1420.48 430.23 C 1415.55 431.15, 1412.72 431.96, 1407.83 433.89 C 1402.94 435.83, 1400.68 437.05, 1396.02 439.91 C 1391.37 442.78, 1388.82 444.57, 1384.55 448.23 C 1380.28 451.88, 1377.85 453.92, 1374.68 458.18 C 1371.50 462.44, 1370.24 464.89, 1368.67 469.55 C 1367.11 474.20, 1366.40 476.75, 1366.85 481.47 C 1367.29 486.19, 1368.00 488.99, 1370.90 493.14 C 1373.81 497.28, 1376.39 499.31, 1381.38 502.17 C 1386.37 505.04, 1389.64 505.98, 1395.86 507.48 C 1402.07 508.98, 1405.39 509.21, 1412.44 509.68 C 1419.50 510.15, 1423.71 510.34, 1431.12 509.82 C 1438.54 509.31, 1442.62 508.76, 1449.52 507.10 C 1456.41 505.43, 1459.47 504.02, 1465.58 501.52 C 1471.70 499.02, 1474.94 497.80, 1480.09 494.58 C 1485.24 491.37, 1487.56 489.51, 1491.33 485.45 C 1495.10 481.38, 1497.01 478.92, 1498.96 474.25 C 1500.91 469.57, 1501.41 466.78, 1501.08 462.05 C 1500.75 457.32, 1499.46 454.80, 1497.30 450.59 C 1495.15 446.39, 1493.78 444.09, 1490.32 441.05 C 1486.87 438.01, 1482.95 435.26, 1480.05 435.39 C 1477.15 435.51, 1475.10 439.13, 1475.81 441.69 C 1476.53 444.24, 1480.99 445.50, 1483.62 448.18 C 1486.25 450.86, 1487.26 452.13, 1488.96 455.08 C 1490.65 458.03, 1491.63 459.72, 1492.09 462.95 C 1492.55 466.17, 1492.54 467.71, 1491.26 471.21 C 1489.99 474.72, 1488.68 476.92, 1485.71 480.47 C 1482.74 484.01, 1480.93 485.87, 1476.42 488.93 C 1471.91 491.99, 1468.83 493.31, 1463.16 495.76 C 1457.49 498.22, 1454.57 499.63, 1448.09 501.21 C 1441.60 502.80, 1437.76 503.30, 1430.73 503.70 C 1423.71 504.10, 1419.57 503.86, 1412.97 503.22 C 1406.36 502.58, 1403.19 502.11, 1397.71 500.50 C 1392.23 498.90, 1389.48 497.67, 1385.56 495.20 C 1381.64 492.73, 1380.08 491.05, 1378.12 488.15 C 1376.17 485.25, 1376.01 483.88, 1375.78 480.71 C 1375.55 477.53, 1375.84 475.80, 1376.98 472.29 C 1378.11 468.78, 1378.88 466.73, 1381.45 463.15 C 1384.03 459.58, 1386.10 457.65, 1389.86 454.42 C 1393.62 451.18, 1396.08 449.44, 1400.27 446.99 C 1404.47 444.53, 1406.53 443.57, 1410.83 442.16 C 1415.14 440.75, 1417.71 440.26, 1421.81 439.96 C 1425.90 439.66, 1427.96 439.93, 1431.31 440.65 C 1434.67 441.37, 1436.11 442.47, 1438.58 443.56 C 1441.06 444.65, 1441.63 445.55, 1443.68 446.11 C 1445.73 446.66, 1446.91 447.18, 1448.83 446.33 C 1450.74 445.48, 1452.77 444.12, 1453.26 441.86" style="stroke: black; fill: black;"/></svg>