<svg xmlns="http://www.w3.org/2000/svg" id="canvas" viewBox="300.773 300.898 1282.543 400.289">
<style>
    path {
      stroke-dasharray: 2000;
      stroke-dashoffset: 2000;
      -webkit-animation: dash 5s ease infinite;
      animation: dash 5s ease infinite;
    }

    @-webkit-keyframes dash {
      0% {
            stroke: yellow;
        }
        50% {
            stroke: orange;
        }
        100% {
            stroke: yellow;
        }
      to {
        stroke-dashoffset: 0;
      }
    }
    @keyframes dash {
      0% {
            stroke: yellow;
        }
        50% {
            stroke: orange;
        }
        100% {
            stroke: yellow;
        }
      to {
        stroke-dashoffset: 0;
      }
    }
</style>
<g>
  <path stroke-linecap="null" stroke-linejoin="null" stroke-dasharray="null" stroke-width="5" stroke="#000000" fill="blue" d="M 472.70,324.71 C 471.91 324.31, 471.89 324.28, 471.95 324.96 C 472.01 325.64, 472.45 326.97, 473.01 328.13 C 473.56 329.29, 473.66 330.14, 474.72 330.75 C 475.79 331.36, 476.64 331.31, 478.33 331.17 C 480.03 331.03, 481.00 330.72, 483.20 330.05 C 485.40 329.38, 486.45 328.94, 489.33 327.82 C 492.20 326.70, 493.84 325.89, 497.58 324.44 C 501.31 322.98, 503.61 322.09, 507.98 320.54 C 512.35 318.99, 514.93 318.04, 519.41 316.69 C 523.90 315.34, 526.10 314.68, 530.40 313.79 C 534.70 312.89, 536.98 312.47, 540.93 312.22 C 544.88 311.97, 546.92 311.94, 550.16 312.52 C 553.40 313.10, 554.62 313.60, 557.14 315.13 C 559.66 316.66, 560.84 317.64, 562.74 320.18 C 564.64 322.71, 565.64 324.14, 566.64 327.81 C 567.65 331.47, 568.18 333.57, 567.77 338.50 C 567.35 343.44, 566.77 346.34, 564.56 352.49 C 562.35 358.64, 560.63 361.86, 556.72 369.27 C 552.81 376.68, 550.42 380.88, 545.01 389.53 C 539.60 398.18, 536.13 403.17, 529.67 412.52 C 523.21 421.87, 519.72 426.57, 512.71 436.27 C 505.69 445.98, 501.88 451.13, 494.60 461.05 C 487.33 470.97, 483.42 476.38, 476.34 485.87 C 469.26 495.35, 465.67 499.98, 459.20 508.46 C 452.73 516.93, 449.69 521.38, 443.98 528.22 C 438.28 535.07, 435.55 538.16, 430.68 542.67 C 425.81 547.18, 423.28 548.78, 419.61 550.80 C 415.94 552.82, 414.44 553.05, 412.33 552.77 C 410.21 552.49, 410.12 551.82, 409.04 549.40 C 407.96 546.97, 407.40 544.84, 406.94 540.63 C 406.47 536.43, 406.30 533.55, 406.71 528.37 C 407.13 523.18, 407.57 520.12, 409.01 514.70 C 410.46 509.27, 411.46 506.47, 413.95 501.25 C 416.44 496.02, 417.90 493.32, 421.45 488.60 C 425.00 483.87, 427.19 481.47, 431.70 477.61 C 436.22 473.76, 438.86 472.07, 444.03 469.33 C 449.20 466.59, 451.81 465.52, 457.57 463.90 C 463.33 462.28, 466.48 461.74, 472.81 461.22 C 479.14 460.70, 482.73 460.71, 489.23 461.28 C 495.73 461.85, 498.90 462.61, 505.31 464.08 C 511.71 465.55, 515.13 466.68, 521.24 468.64 C 527.36 470.60, 530.41 471.88, 535.88 473.87 C 541.35 475.86, 544.03 476.89, 548.60 478.59 C 553.17 480.29, 555.15 481.40, 558.71 482.38 C 562.27 483.36, 564.09 483.50, 566.41 483.49 C 568.72 483.48, 569.08 483.02, 570.29 482.34 C 571.50 481.65, 571.95 481.03, 572.44 480.06 C 572.93 479.10, 572.96 478.15, 572.74 477.52 C 572.52 476.89, 572.10 476.77, 571.35 476.90 C 570.60 477.03, 569.56 477.72, 568.99 478.17 C 568.41 478.63, 568.37 478.99, 568.46 479.16 C 568.56 479.33, 569.27 479.07, 569.44 479.03 C 569.61 479.00, 569.84 479.18, 569.31 479.00 C 568.79 478.82, 568.69 478.46, 566.81 478.14 C 564.93 477.81, 563.29 478.05, 559.91 477.37 C 556.52 476.69, 554.46 476.11, 549.89 474.74 C 545.32 473.37, 542.59 472.36, 537.05 470.52 C 531.52 468.67, 528.43 467.42, 522.22 465.51 C 516.01 463.61, 512.56 462.46, 506.02 460.98 C 499.47 459.49, 496.21 458.69, 489.52 458.09 C 482.82 457.48, 479.11 457.44, 472.54 457.96 C 465.98 458.49, 462.70 459.03, 456.68 460.71 C 450.66 462.38, 447.89 463.48, 442.45 466.33 C 437.01 469.19, 434.23 470.96, 429.48 475.00 C 424.72 479.03, 422.43 481.57, 418.68 486.50 C 414.93 491.44, 413.40 494.25, 410.72 499.68 C 408.04 505.11, 406.96 507.99, 405.28 513.64 C 403.59 519.29, 402.95 522.43, 402.30 527.93 C 401.65 533.43, 401.55 536.39, 402.03 541.15 C 402.51 545.92, 402.74 548.58, 404.69 551.75 C 406.65 554.92, 408.46 556.59, 411.79 557.01 C 415.12 557.42, 417.19 556.29, 421.35 553.81 C 425.50 551.33, 427.68 549.45, 432.55 544.61 C 437.41 539.78, 440.04 536.61, 445.68 529.61 C 451.32 522.61, 454.31 518.15, 460.74 509.62 C 467.16 501.08, 470.73 496.45, 477.78 486.94 C 484.84 477.43, 488.75 472.01, 496.03 462.09 C 503.31 452.17, 507.13 447.03, 514.18 437.35 C 521.24 427.66, 524.76 422.98, 531.31 413.66 C 537.86 404.34, 541.37 399.37, 546.93 390.75 C 552.48 382.13, 554.93 377.97, 559.08 370.55 C 563.23 363.14, 565.11 359.99, 567.66 353.67 C 570.21 347.35, 571.09 344.36, 571.84 338.96 C 572.58 333.56, 572.34 331.04, 571.39 326.65 C 570.45 322.26, 569.39 320.25, 567.11 317.01 C 564.82 313.77, 563.18 312.39, 559.96 310.46 C 556.75 308.53, 554.91 307.98, 551.03 307.35 C 547.15 306.73, 544.88 306.97, 540.56 307.34 C 536.24 307.72, 533.93 308.27, 529.44 309.23 C 524.95 310.19, 522.71 310.85, 518.10 312.13 C 513.49 313.41, 510.86 314.30, 506.39 315.60 C 501.91 316.91, 499.60 317.69, 495.73 318.66 C 491.87 319.62, 489.96 319.77, 487.05 320.43 C 484.13 321.09, 483.06 321.60, 481.15 321.97 C 479.25 322.34, 478.69 322.16, 477.52 322.28 C 476.34 322.41, 475.79 322.10, 475.26 322.60 C 474.73 323.10, 474.69 323.85, 474.87 324.80 C 475.06 325.75, 475.98 326.92, 476.19 327.35 C 476.39 327.79, 476.59 327.49, 475.89 326.96 C 475.19 326.43, 473.49 325.11, 472.70 324.71"/>
  <path stroke-linecap="null" stroke-linejoin="null" stroke-dasharray="null" stroke-width="5" stroke="#000000" fill="red" d="M 662.92,254.32 C 661.84 255.61, 661.36 257.46, 660.38 261.47 C 659.41 265.49, 659.34 268.29, 658.06 274.40 C 656.78 280.52, 655.77 283.96, 653.98 292.03 C 652.19 300.11, 651.31 304.99, 649.12 314.77 C 646.94 324.55, 645.83 329.96, 643.05 340.93 C 640.27 351.90, 638.44 358.07, 635.24 369.63 C 632.04 381.19, 630.34 387.41, 627.06 398.74 C 623.78 410.07, 621.89 415.89, 618.85 426.30 C 615.81 436.70, 614.15 442.12, 611.88 450.79 C 609.60 459.46, 608.79 463.66, 607.47 469.64 C 606.15 475.62, 605.07 477.76, 605.29 480.67 C 605.51 483.58, 606.78 484.65, 608.55 484.20 C 610.32 483.75, 611.57 482.40, 614.15 478.41 C 616.73 474.42, 617.93 470.72, 621.43 464.24 C 624.93 457.77, 627.08 453.48, 631.64 446.04 C 636.21 438.60, 639.09 434.13, 644.26 427.04 C 649.44 419.94, 652.43 416.14, 657.53 410.55 C 662.62 404.96, 665.20 402.55, 669.72 399.11 C 674.25 395.66, 676.64 394.63, 680.17 393.33 C 683.70 392.02, 684.92 391.93, 687.38 392.58 C 689.84 393.22, 690.63 393.92, 692.47 396.56 C 694.30 399.19, 695.46 401.08, 696.55 405.75 C 697.64 410.43, 697.97 413.35, 697.92 419.93 C 697.87 426.52, 697.36 430.76, 696.31 438.68 C 695.26 446.60, 694.28 451.35, 692.67 459.54 C 691.07 467.72, 689.85 471.96, 688.30 479.60 C 686.75 487.25, 685.80 491.31, 684.93 497.75 C 684.05 504.20, 683.42 507.30, 683.92 511.81 C 684.42 516.32, 684.97 518.27, 687.42 520.32 C 689.88 522.36, 692.21 523.10, 696.20 522.05 C 700.19 521.00, 702.32 519.30, 707.37 515.08 C 712.41 510.86, 715.12 507.73, 721.41 500.94 C 727.70 494.16, 731.45 489.82, 738.81 481.17 C 746.17 472.51, 750.34 467.19, 758.22 457.67 C 766.09 448.14, 770.38 442.83, 778.19 433.55 C 786.00 424.27, 790.26 419.44, 797.27 411.28 C 804.28 403.13, 807.60 399.14, 813.24 392.78 C 818.88 386.42, 821.57 383.55, 825.45 379.50 C 829.34 375.46, 831.25 374.69, 832.68 372.57 C 834.11 370.46, 833.66 369.34, 832.58 368.93 C 831.51 368.51, 829.91 368.52, 827.31 370.49 C 824.70 372.47, 823.45 374.48, 819.53 378.82 C 815.62 383.16, 812.79 385.58, 807.72 392.17 C 802.65 398.76, 799.56 403.23, 794.20 411.77 C 788.84 420.31, 785.78 425.70, 780.91 434.89 C 776.03 444.07, 773.46 449.10, 769.83 457.69 C 766.21 466.28, 764.65 470.81, 762.79 477.83 C 760.94 484.85, 760.53 487.91, 760.55 492.80 C 760.57 497.68, 760.90 499.67, 762.90 502.24 C 764.90 504.82, 767.14 505.98, 770.55 505.67 C 773.96 505.36, 776.03 503.80, 779.94 500.67 C 783.85 497.54, 785.86 495.19, 790.11 490.01 C 794.35 484.83, 796.76 481.75, 801.17 474.79 C 805.58 467.84, 808.02 463.29, 812.17 455.24 C 816.31 447.19, 818.26 442.66, 821.90 434.55 C 825.55 426.44, 827.29 422.16, 830.38 414.71 C 833.47 407.25, 835.46 402.82, 837.37 397.28 C 839.28 391.73, 840.26 389.30, 839.94 386.96 C 839.63 384.63, 837.51 383.79, 835.80 385.62 C 834.10 387.45, 833.43 390.34, 831.43 396.11 C 829.43 401.89, 827.96 406.36, 825.81 414.50 C 823.66 422.63, 822.48 427.93, 820.69 436.79 C 818.90 445.64, 817.85 450.59, 816.86 458.79 C 815.86 466.99, 815.48 470.93, 815.72 477.79 C 815.97 484.66, 816.28 488.15, 818.08 493.12 C 819.89 498.09, 821.32 500.16, 824.76 502.64 C 828.20 505.12, 830.66 505.88, 835.28 505.51 C 839.89 505.14, 842.76 504.01, 847.82 500.78 C 852.87 497.54, 855.32 494.84, 860.54 489.32 C 865.77 483.81, 868.44 480.19, 873.95 473.22 C 879.45 466.24, 882.81 461.96, 888.07 454.45 C 893.34 446.94, 895.79 442.63, 900.29 435.64 C 904.80 428.65, 906.92 425.24, 910.62 419.51 C 914.31 413.78, 916.42 411.11, 918.76 407.00 C 921.11 402.89, 921.99 400.92, 922.35 398.97 C 922.70 397.02, 921.54 396.36, 920.53 397.24 C 919.53 398.11, 918.74 399.18, 917.32 403.33 C 915.90 407.47, 915.35 411.23, 913.44 417.96 C 911.53 424.70, 910.26 429.20, 907.78 437.00 C 905.29 444.81, 903.56 449.45, 901.02 456.98 C 898.48 464.50, 897.02 468.72, 895.09 474.64 C 893.16 480.56, 891.42 483.50, 891.36 486.57 C 891.29 489.64, 892.86 490.80, 894.76 489.98 C 896.66 489.17, 897.89 487.22, 900.84 482.50 C 903.79 477.77, 905.49 473.77, 909.50 466.36 C 913.51 458.96, 916.05 453.84, 920.89 445.49 C 925.72 437.14, 928.60 432.45, 933.68 424.63 C 938.76 416.80, 941.40 412.80, 946.28 406.37 C 951.15 399.95, 953.67 396.97, 958.04 392.50 C 962.40 388.03, 964.60 386.30, 968.09 384.02 C 971.58 381.74, 973.07 381.26, 975.49 381.11 C 977.90 380.96, 978.42 381.33, 980.18 383.27 C 981.95 385.20, 983.00 386.64, 984.30 390.77 C 985.60 394.89, 986.18 397.76, 986.69 403.90 C 987.20 410.04, 986.93 413.99, 986.84 421.47 C 986.74 428.96, 986.44 433.73, 986.22 441.32 C 986.00 448.90, 985.87 452.77, 985.76 459.39 C 985.64 466.00, 984.97 469.32, 985.66 474.41 C 986.34 479.50, 986.92 481.91, 989.18 484.85 C 991.44 487.79, 993.46 488.85, 996.95 489.10 C 1000.44 489.36, 1002.49 488.37, 1006.63 486.12 C 1010.77 483.88, 1013.02 482.16, 1017.66 477.87 C 1022.30 473.58, 1024.89 470.51, 1029.83 464.68 C 1034.76 458.85, 1037.31 455.36, 1042.33 448.72 C 1047.34 442.08, 1049.98 438.38, 1054.90 431.48 C 1059.81 424.58, 1062.52 420.53, 1066.89 414.21 C 1071.25 407.90, 1073.33 404.75, 1076.72 399.90 C 1080.12 395.05, 1081.71 393.12, 1083.84 389.97 C 1085.97 386.82, 1086.99 385.57, 1087.37 384.15 C 1087.75 382.73, 1087.02 382.14, 1085.73 382.88 C 1084.44 383.62, 1083.26 384.82, 1080.92 387.86 C 1078.58 390.89, 1077.28 393.10, 1074.01 398.06 C 1070.73 403.01, 1068.82 406.26, 1064.56 412.63 C 1060.31 419.01, 1057.62 423.06, 1052.73 429.94 C 1047.85 436.82, 1045.19 440.51, 1040.13 447.04 C 1035.06 453.56, 1032.43 457.00, 1027.43 462.59 C 1022.42 468.17, 1019.68 471.07, 1015.09 474.97 C 1010.50 478.88, 1008.07 480.23, 1004.49 482.10 C 1000.90 483.96, 999.50 484.28, 997.15 484.29 C 994.79 484.31, 994.26 484.26, 992.70 482.17 C 991.14 480.09, 990.09 478.42, 989.34 473.86 C 988.60 469.31, 988.99 465.90, 988.98 459.41 C 988.97 452.92, 989.07 448.98, 989.29 441.41 C 989.52 433.83, 989.87 429.09, 990.11 421.54 C 990.34 413.99, 990.77 410.07, 990.48 403.66 C 990.18 397.24, 989.98 394.23, 988.62 389.47 C 987.25 384.71, 986.33 382.41, 983.65 379.84 C 980.96 377.28, 978.73 376.40, 975.20 376.63 C 971.67 376.86, 969.87 378.21, 966.01 380.98 C 962.15 383.75, 960.24 385.70, 955.89 390.48 C 951.54 395.25, 949.10 398.29, 944.25 404.86 C 939.41 411.43, 936.78 415.45, 931.65 423.31 C 926.53 431.17, 923.63 435.86, 918.62 444.15 C 913.61 452.43, 910.84 457.47, 906.60 464.74 C 902.37 472.00, 900.17 475.78, 897.47 480.47 C 894.76 485.17, 893.50 486.83, 893.08 488.21 C 892.66 489.60, 894.29 489.89, 895.36 487.38 C 896.43 484.88, 896.73 481.56, 898.43 475.66 C 900.12 469.77, 901.37 465.45, 903.84 457.92 C 906.31 450.39, 908.10 445.76, 910.79 438.01 C 913.48 430.26, 915.03 425.81, 917.29 419.17 C 919.56 412.52, 920.99 409.06, 922.10 404.76 C 923.22 400.46, 923.45 399.16, 922.87 397.66 C 922.30 396.16, 920.72 395.78, 919.21 397.27 C 917.70 398.76, 917.56 400.97, 915.34 405.11 C 913.13 409.25, 911.57 412.14, 908.13 417.97 C 904.68 423.80, 902.55 427.25, 898.12 434.26 C 893.70 441.26, 891.26 445.54, 886.01 453.00 C 880.75 460.45, 877.38 464.70, 871.84 471.53 C 866.30 478.36, 863.50 481.93, 858.30 487.15 C 853.11 492.37, 850.53 494.78, 845.85 497.65 C 841.18 500.52, 838.69 501.13, 834.92 501.50 C 831.16 501.86, 829.75 501.38, 827.02 499.46 C 824.29 497.55, 822.95 496.29, 821.27 491.93 C 819.59 487.57, 818.97 484.23, 818.62 477.66 C 818.26 471.10, 818.53 467.17, 819.48 459.11 C 820.44 451.04, 821.47 446.09, 823.39 437.35 C 825.31 428.61, 826.71 423.40, 829.08 415.41 C 831.44 407.43, 833.27 403.08, 835.23 397.43 C 837.19 391.78, 838.54 389.37, 838.88 387.18 C 839.22 384.99, 837.87 384.69, 836.91 386.49 C 835.95 388.28, 835.88 390.72, 834.08 396.16 C 832.27 401.60, 830.76 406.23, 827.87 413.70 C 824.98 421.18, 823.23 425.47, 819.63 433.53 C 816.03 441.60, 814.05 446.11, 809.86 454.04 C 805.67 461.96, 803.20 466.46, 798.69 473.18 C 794.19 479.89, 791.64 482.84, 787.33 487.62 C 783.02 492.41, 780.65 494.44, 777.15 497.09 C 773.64 499.73, 772.02 500.31, 769.81 500.85 C 767.61 501.39, 767.30 501.42, 766.14 499.80 C 764.97 498.18, 764.12 497.00, 763.97 492.73 C 763.82 488.47, 763.80 485.31, 765.40 478.48 C 767.01 471.65, 768.48 467.09, 771.98 458.59 C 775.48 450.08, 778.05 445.05, 782.91 435.95 C 787.77 426.85, 790.85 421.48, 796.29 413.11 C 801.73 404.74, 804.86 400.36, 810.12 394.11 C 815.39 387.86, 818.41 385.76, 822.61 381.85 C 826.82 377.95, 829.03 377.00, 831.13 374.58 C 833.22 372.16, 833.34 370.67, 833.09 369.74 C 832.84 368.81, 831.84 368.40, 829.86 369.94 C 827.88 371.48, 826.85 373.17, 823.18 377.44 C 819.51 381.71, 816.98 384.77, 811.51 391.29 C 806.03 397.80, 802.74 401.81, 795.80 410.03 C 788.86 418.24, 784.60 423.09, 776.79 432.38 C 768.99 441.66, 764.69 446.98, 756.77 456.46 C 748.84 465.94, 744.64 471.24, 737.18 479.76 C 729.72 488.28, 725.86 492.57, 719.46 499.08 C 713.05 505.59, 710.04 508.54, 705.15 512.32 C 700.26 516.09, 698.02 516.95, 695.00 517.94 C 691.98 518.93, 691.50 518.57, 690.04 517.26 C 688.59 515.95, 688.14 515.23, 687.74 511.40 C 687.35 507.58, 687.42 504.39, 688.08 498.14 C 688.73 491.88, 689.58 487.76, 691.04 480.14 C 692.50 472.53, 693.73 468.28, 695.38 460.07 C 697.03 451.86, 698.07 447.11, 699.28 439.10 C 700.49 431.09, 701.14 426.86, 701.42 420.02 C 701.70 413.17, 701.70 410.12, 700.68 404.87 C 699.66 399.63, 698.76 397.15, 696.31 393.80 C 693.87 390.46, 691.96 388.98, 688.46 388.16 C 684.95 387.35, 682.91 388.05, 678.77 389.75 C 674.64 391.44, 672.43 392.84, 667.77 396.63 C 663.12 400.43, 660.62 402.95, 655.49 408.72 C 650.36 414.49, 647.40 418.32, 642.13 425.48 C 636.87 432.63, 633.95 437.09, 629.17 444.48 C 624.38 451.87, 621.98 456.08, 618.21 462.41 C 614.44 468.75, 612.47 472.11, 610.30 476.14 C 608.14 480.16, 607.64 481.58, 607.39 482.54 C 607.14 483.50, 608.47 483.40, 609.07 480.94 C 609.66 478.47, 609.39 476.13, 610.39 470.21 C 611.39 464.29, 612.00 460.01, 614.06 451.34 C 616.13 442.66, 617.76 437.25, 620.72 426.83 C 623.67 416.41, 625.56 410.59, 628.82 399.25 C 632.09 387.91, 633.80 381.69, 637.04 370.13 C 640.27 358.57, 642.14 352.40, 645.01 341.43 C 647.88 330.47, 649.03 325.04, 651.39 315.30 C 653.75 305.55, 654.75 300.72, 656.81 292.71 C 658.87 284.70, 660.10 281.31, 661.69 275.26 C 663.27 269.21, 663.93 266.49, 664.75 262.45 C 665.57 258.40, 666.16 256.65, 665.79 255.03 C 665.43 253.40, 664.01 253.03, 662.92 254.32"/>
  <path stroke-linecap="null" stroke-linejoin="null" stroke-dasharray="null" stroke-width="5" stroke="#000000" fill="green" d="M 1156.03,380.93 C 1155.76 379.50, 1154.71 377.78, 1152.62 376.42 C 1150.53 375.06, 1148.99 374.40, 1145.59 374.11 C 1142.18 373.82, 1139.91 373.87, 1135.60 374.96 C 1131.30 376.05, 1128.74 376.89, 1124.05 379.57 C 1119.37 382.24, 1117.02 384.19, 1112.19 388.33 C 1107.36 392.47, 1104.57 394.79, 1099.91 400.28 C 1095.24 405.78, 1092.63 409.18, 1088.86 415.81 C 1085.08 422.44, 1083.48 426.46, 1081.03 433.43 C 1078.59 440.41, 1077.66 444.17, 1076.63 450.70 C 1075.60 457.23, 1075.25 460.59, 1075.88 466.09 C 1076.50 471.58, 1077.24 474.42, 1079.75 478.18 C 1082.27 481.94, 1084.36 483.69, 1088.44 484.90 C 1092.51 486.11, 1095.16 485.86, 1100.15 484.24 C 1105.14 482.62, 1108.06 480.95, 1113.40 476.80 C 1118.73 472.66, 1121.47 469.57, 1126.83 463.52 C 1132.18 457.48, 1134.98 453.53, 1140.17 446.57 C 1145.35 439.62, 1148.32 435.57, 1152.74 428.75 C 1157.17 421.94, 1159.21 418.11, 1162.29 412.50 C 1165.38 406.88, 1167.06 404.08, 1168.17 400.68 C 1169.28 397.28, 1168.68 395.70, 1167.85 395.48 C 1167.02 395.27, 1165.44 395.90, 1164.04 399.59 C 1162.63 403.28, 1162.34 406.52, 1160.83 413.94 C 1159.33 421.36, 1158.59 426.28, 1156.50 436.68 C 1154.40 447.08, 1153.15 453.29, 1150.36 465.96 C 1147.58 478.64, 1146.05 485.55, 1142.59 500.06 C 1139.12 514.57, 1137.33 522.85, 1133.05 538.52 C 1128.76 554.19, 1126.26 562.83, 1121.17 578.41 C 1116.09 593.99, 1113.52 601.84, 1107.61 616.41 C 1101.71 630.99, 1098.56 638.67, 1091.65 651.29 C 1084.74 663.91, 1080.45 670.22, 1073.08 679.52 C 1065.72 688.81, 1061.74 692.47, 1054.81 697.78 C 1047.89 703.08, 1044.43 704.68, 1038.45 706.04 C 1032.48 707.39, 1029.78 707.04, 1024.94 704.56 C 1020.10 702.08, 1017.72 699.63, 1014.25 693.64 C 1010.77 687.65, 1009.04 683.55, 1007.54 674.60 C 1006.05 665.65, 1005.72 660.04, 1006.76 648.89 C 1007.79 637.75, 1008.82 631.07, 1012.71 618.88 C 1016.59 606.69, 1019.52 599.99, 1026.16 587.93 C 1032.81 575.86, 1037.13 569.90, 1045.93 558.56 C 1054.74 547.21, 1059.97 541.59, 1070.17 531.20 C 1080.36 520.82, 1085.98 515.82, 1096.90 506.63 C 1107.82 497.44, 1113.69 493.20, 1124.76 485.25 C 1135.83 477.30, 1141.59 473.46, 1152.24 466.88 C 1162.89 460.29, 1168.20 457.57, 1178.02 452.32 C 1187.83 447.06, 1192.70 445.01, 1201.32 440.62 C 1209.94 436.23, 1214.17 433.99, 1221.11 430.36 C 1228.05 426.73, 1231.15 425.16, 1236.03 422.45 C 1240.92 419.74, 1242.92 418.67, 1245.54 416.82 C 1248.15 414.97, 1248.37 414.45, 1249.10 413.20 C 1249.84 411.95, 1249.39 411.71, 1249.22 410.56 C 1249.05 409.41, 1248.88 408.54, 1248.23 407.44 C 1247.59 406.35, 1246.94 405.23, 1246.00 405.08 C 1245.07 404.92, 1244.21 405.80, 1243.57 406.67 C 1242.93 407.54, 1242.47 408.42, 1242.82 409.43 C 1243.17 410.44, 1244.22 411.43, 1245.33 411.70 C 1246.44 411.97, 1247.09 411.74, 1248.37 410.79 C 1249.66 409.84, 1250.46 409.02, 1251.76 406.96 C 1253.06 404.89, 1253.67 403.42, 1254.86 400.46 C 1256.05 397.51, 1256.35 395.81, 1257.71 392.19 C 1259.07 388.56, 1260.14 386.73, 1261.65 382.35 C 1263.15 377.97, 1264.09 375.43, 1265.23 370.28 C 1266.36 365.13, 1266.78 362.30, 1267.32 356.60 C 1267.85 350.90, 1268.09 347.72, 1267.90 341.77 C 1267.72 335.82, 1267.47 332.59, 1266.40 326.84 C 1265.33 321.09, 1264.58 318.01, 1262.57 313.03 C 1260.56 308.05, 1259.34 305.93, 1256.35 301.96 C 1253.36 297.98, 1251.52 295.85, 1247.61 293.16 C 1243.70 290.46, 1241.45 289.31, 1236.80 288.47 C 1232.14 287.64, 1229.49 287.80, 1224.32 288.98 C 1219.14 290.15, 1216.30 291.08, 1210.93 294.36 C 1205.56 297.64, 1202.60 299.91, 1197.46 305.36 C 1192.32 310.81, 1189.65 314.25, 1185.23 321.62 C 1180.81 328.98, 1178.82 333.49, 1175.35 342.18 C 1171.88 350.87, 1170.20 355.84, 1167.90 365.07 C 1165.59 374.30, 1164.52 379.12, 1163.80 388.33 C 1163.09 397.53, 1163.25 402.58, 1164.33 411.08 C 1165.41 419.58, 1166.26 423.67, 1169.20 430.84 C 1172.14 438.01, 1174.46 441.44, 1179.04 446.94 C 1183.63 452.44, 1186.58 454.75, 1192.14 458.35 C 1197.70 461.95, 1200.81 463.27, 1206.84 464.95 C 1212.87 466.64, 1216.24 466.87, 1222.30 466.77 C 1228.36 466.68, 1231.38 466.06, 1237.13 464.46 C 1242.88 462.86, 1245.93 461.47, 1251.06 458.76 C 1256.19 456.06, 1258.78 454.41, 1262.79 450.93 C 1266.80 447.44, 1268.65 445.21, 1271.10 441.35 C 1273.55 437.50, 1274.59 435.19, 1275.04 431.64 C 1275.49 428.09, 1274.92 426.26, 1273.34 423.61 C 1271.77 420.96, 1270.28 419.53, 1267.17 418.38 C 1264.05 417.23, 1261.44 417.25, 1257.76 417.88 C 1254.09 418.52, 1252.11 419.78, 1248.79 421.54 C 1245.47 423.31, 1243.64 424.31, 1241.16 426.71 C 1238.68 429.10, 1237.13 430.73, 1236.40 433.51 C 1235.67 436.28, 1236.06 438.34, 1237.51 440.60 C 1238.97 442.86, 1240.23 444.11, 1243.68 444.81 C 1247.14 445.51, 1249.84 445.05, 1254.78 444.10 C 1259.73 443.15, 1262.41 442.27, 1268.42 440.05 C 1274.42 437.83, 1278.10 436.26, 1284.79 433.00 C 1291.48 429.73, 1295.15 427.51, 1301.85 423.73 C 1308.55 419.95, 1311.99 417.87, 1318.29 414.10 C 1324.58 410.34, 1328.05 408.41, 1333.33 404.90 C 1338.60 401.38, 1341.01 399.39, 1344.66 396.53 C 1348.31 393.67, 1350.11 392.82, 1351.58 390.60 C 1353.05 388.37, 1353.12 386.79, 1351.99 385.41 C 1350.87 384.03, 1349.06 382.78, 1345.94 383.69 C 1342.82 384.60, 1340.64 386.69, 1336.39 389.96 C 1332.14 393.22, 1329.65 395.40, 1324.69 400.04 C 1319.73 404.67, 1316.69 407.46, 1311.60 413.15 C 1306.51 418.84, 1303.58 422.41, 1299.24 428.50 C 1294.91 434.58, 1292.78 437.84, 1289.94 443.58 C 1287.09 449.31, 1285.92 452.34, 1285.01 457.19 C 1284.10 462.03, 1283.84 464.56, 1285.38 467.79 C 1286.91 471.02, 1289.05 472.45, 1292.69 473.33 C 1296.33 474.21, 1298.65 473.63, 1303.58 472.20 C 1308.51 470.76, 1311.41 469.40, 1317.35 466.16 C 1323.28 462.92, 1327.05 460.81, 1333.26 456.00 C 1339.47 451.20, 1342.64 447.84, 1348.39 442.12 C 1354.15 436.39, 1357.28 433.21, 1362.05 427.39 C 1366.82 421.57, 1369.06 418.35, 1372.26 413.02 C 1375.46 407.68, 1376.90 404.70, 1378.04 400.72 C 1379.18 396.74, 1379.21 395.08, 1377.97 393.12 C 1376.73 391.15, 1374.52 390.32, 1371.84 390.89 C 1369.17 391.47, 1367.27 392.85, 1364.60 396.00 C 1361.93 399.16, 1360.70 401.75, 1358.49 406.67 C 1356.28 411.58, 1354.94 414.75, 1353.53 420.60 C 1352.13 426.44, 1351.55 429.87, 1351.46 435.88 C 1351.37 441.90, 1351.50 445.19, 1353.08 450.67 C 1354.67 456.16, 1355.75 459.06, 1359.38 463.30 C 1363.02 467.53, 1365.56 469.54, 1371.25 471.85 C 1376.95 474.15, 1380.54 474.62, 1387.85 474.83 C 1395.15 475.05, 1399.55 474.61, 1407.78 472.92 C 1416.01 471.22, 1420.49 469.80, 1429.01 466.37 C 1437.53 462.94, 1442.31 460.17, 1450.38 455.77 C 1458.44 451.36, 1462.54 449.01, 1469.33 444.35 C 1476.12 439.70, 1479.36 436.97, 1484.32 432.50 C 1489.29 428.02, 1491.66 425.99, 1494.15 421.97 C 1496.64 417.95, 1497.46 415.71, 1496.77 412.38 C 1496.08 409.05, 1494.25 407.03, 1490.70 405.31 C 1487.16 403.58, 1484.47 403.41, 1479.04 403.75 C 1473.60 404.08, 1469.97 404.72, 1463.54 406.97 C 1457.10 409.22, 1453.18 410.98, 1446.87 415.00 C 1440.55 419.03, 1437.23 421.78, 1431.96 427.10 C 1426.69 432.42, 1424.03 435.55, 1420.52 441.60 C 1417.01 447.65, 1415.54 451.24, 1414.41 457.35 C 1413.27 463.46, 1413.24 466.80, 1414.84 472.14 C 1416.45 477.49, 1418.31 480.16, 1422.44 484.09 C 1426.56 488.03, 1429.41 489.62, 1435.48 491.81 C 1441.55 494.00, 1445.45 494.77, 1452.80 495.04 C 1460.14 495.31, 1464.55 494.85, 1472.19 493.15 C 1479.83 491.45, 1484.08 490.03, 1491.01 486.52 C 1497.94 483.01, 1501.47 480.68, 1506.84 475.60 C 1512.21 470.52, 1514.80 467.31, 1517.86 461.11 C 1520.91 454.90, 1522.01 451.19, 1522.12 444.58 C 1522.24 437.97, 1521.24 434.23, 1518.44 428.05 C 1515.64 421.88, 1513.04 418.71, 1508.12 413.69 C 1503.20 408.67, 1499.66 406.53, 1493.85 402.94 C 1488.03 399.35, 1484.13 398.05, 1479.06 395.75 C 1473.99 393.45, 1471.84 392.66, 1468.50 391.42 C 1465.15 390.19, 1463.75 389.55, 1462.34 389.56 C 1460.92 389.57, 1460.52 390.35, 1461.44 391.46 C 1462.35 392.57, 1463.71 393.58, 1466.93 395.12 C 1470.15 396.67, 1472.51 397.07, 1477.55 399.20 C 1482.59 401.33, 1486.47 402.43, 1492.14 405.76 C 1497.82 409.10, 1501.21 411.16, 1505.91 415.87 C 1510.62 420.58, 1513.03 423.59, 1515.67 429.32 C 1518.31 435.05, 1519.21 438.43, 1519.12 444.53 C 1519.04 450.63, 1518.09 454.02, 1515.24 459.82 C 1512.40 465.62, 1510.00 468.71, 1504.90 473.55 C 1499.80 478.39, 1496.41 480.66, 1489.74 484.01 C 1483.08 487.37, 1478.93 488.73, 1471.57 490.31 C 1464.20 491.90, 1459.91 492.27, 1452.92 491.94 C 1445.93 491.62, 1442.24 490.76, 1436.61 488.70 C 1430.99 486.63, 1428.51 485.10, 1424.81 481.60 C 1421.10 478.09, 1419.54 475.89, 1418.09 471.16 C 1416.65 466.43, 1416.56 463.54, 1417.57 457.93 C 1418.58 452.32, 1419.84 448.86, 1423.14 443.12 C 1426.44 437.37, 1428.99 434.29, 1434.08 429.21 C 1439.16 424.13, 1442.44 421.46, 1448.56 417.71 C 1454.69 413.96, 1458.56 412.40, 1464.70 410.47 C 1470.84 408.54, 1474.43 408.25, 1479.25 408.07 C 1484.07 407.88, 1486.15 408.51, 1488.81 409.55 C 1491.47 410.59, 1492.09 411.16, 1492.53 413.26 C 1492.97 415.37, 1493.07 416.65, 1491.02 420.06 C 1488.97 423.47, 1486.93 425.88, 1482.30 430.31 C 1477.66 434.75, 1474.48 437.58, 1467.86 442.24 C 1461.24 446.90, 1457.16 449.27, 1449.21 453.63 C 1441.25 457.99, 1436.48 460.72, 1428.09 464.05 C 1419.69 467.37, 1415.27 468.71, 1407.25 470.26 C 1399.22 471.81, 1394.90 472.09, 1387.96 471.79 C 1381.01 471.49, 1377.70 470.91, 1372.52 468.75 C 1367.35 466.59, 1365.28 464.81, 1362.10 461.00 C 1358.91 457.18, 1357.98 454.68, 1356.60 449.68 C 1355.23 444.67, 1355.05 441.58, 1355.23 435.97 C 1355.41 430.36, 1355.98 427.06, 1357.51 421.64 C 1359.05 416.21, 1360.59 413.21, 1362.92 408.83 C 1365.25 404.45, 1367.02 402.47, 1369.16 399.73 C 1371.30 396.98, 1372.40 396.18, 1373.62 395.11 C 1374.84 394.03, 1375.19 393.50, 1375.27 394.37 C 1375.34 395.23, 1375.16 396.04, 1373.98 399.44 C 1372.80 402.84, 1372.18 406.13, 1369.35 411.35 C 1366.51 416.58, 1364.39 419.82, 1359.80 425.57 C 1355.21 431.32, 1352.07 434.50, 1346.39 440.09 C 1340.71 445.68, 1337.53 448.97, 1331.38 453.53 C 1325.23 458.09, 1321.44 460.01, 1315.64 462.90 C 1309.85 465.80, 1306.81 466.85, 1302.41 468.01 C 1298.01 469.17, 1296.24 469.13, 1293.65 468.71 C 1291.06 468.29, 1290.42 468.08, 1289.45 465.90 C 1288.47 463.73, 1288.10 462.04, 1288.79 457.86 C 1289.48 453.68, 1290.31 450.53, 1292.90 445.01 C 1295.49 439.49, 1297.53 436.21, 1301.74 430.27 C 1305.95 424.33, 1308.86 420.77, 1313.95 415.29 C 1319.05 409.81, 1322.15 407.13, 1327.21 402.88 C 1332.27 398.62, 1335.02 396.74, 1339.26 394.02 C 1343.49 391.30, 1346.08 390.75, 1348.39 389.27 C 1350.71 387.79, 1350.90 386.97, 1350.85 386.62 C 1350.80 386.26, 1349.90 386.13, 1348.14 387.48 C 1346.37 388.83, 1345.36 390.41, 1342.02 393.35 C 1338.69 396.29, 1336.50 398.55, 1331.45 402.19 C 1326.40 405.83, 1322.96 407.78, 1316.75 411.57 C 1310.55 415.36, 1307.08 417.44, 1300.41 421.14 C 1293.74 424.84, 1290.05 427.03, 1283.40 430.07 C 1276.75 433.12, 1273.03 434.55, 1267.16 436.36 C 1261.29 438.17, 1258.55 438.71, 1254.05 439.15 C 1249.55 439.59, 1247.23 438.80, 1244.65 438.56 C 1242.08 438.33, 1241.74 438.52, 1241.17 437.96 C 1240.60 437.41, 1240.86 436.97, 1241.80 435.78 C 1242.75 434.59, 1243.84 433.65, 1245.89 432.01 C 1247.94 430.37, 1249.41 429.03, 1252.05 427.56 C 1254.69 426.10, 1256.42 425.29, 1259.09 424.68 C 1261.76 424.07, 1263.42 424.19, 1265.40 424.51 C 1267.38 424.84, 1268.14 425.01, 1268.99 426.29 C 1269.84 427.57, 1270.02 428.38, 1269.65 430.92 C 1269.28 433.45, 1269.06 435.58, 1267.15 438.98 C 1265.24 442.39, 1263.67 444.63, 1260.11 447.93 C 1256.54 451.24, 1254.10 452.88, 1249.31 455.51 C 1244.52 458.14, 1241.58 459.50, 1236.16 461.08 C 1230.75 462.66, 1227.92 463.25, 1222.23 463.41 C 1216.53 463.56, 1213.38 463.38, 1207.68 461.86 C 1201.99 460.34, 1199.06 459.16, 1193.75 455.82 C 1188.45 452.48, 1185.60 450.35, 1181.16 445.16 C 1176.72 439.96, 1174.45 436.74, 1171.56 429.86 C 1168.67 422.98, 1167.79 419.05, 1166.70 410.78 C 1165.61 402.50, 1165.41 397.53, 1166.10 388.50 C 1166.78 379.47, 1167.83 374.72, 1170.13 365.63 C 1172.43 356.55, 1174.12 351.61, 1177.59 343.08 C 1181.07 334.56, 1183.09 330.13, 1187.50 323.00 C 1191.91 315.88, 1194.61 312.59, 1199.66 307.47 C 1204.70 302.35, 1207.62 300.32, 1212.72 297.40 C 1217.82 294.48, 1220.50 293.81, 1225.16 292.87 C 1229.81 291.92, 1232.01 291.93, 1236.02 292.69 C 1240.02 293.46, 1241.76 294.34, 1245.18 296.68 C 1248.60 299.03, 1250.34 300.87, 1253.11 304.43 C 1255.87 307.99, 1257.08 309.87, 1259.00 314.49 C 1260.92 319.11, 1261.68 322.05, 1262.71 327.53 C 1263.74 333.01, 1264.02 336.14, 1264.16 341.88 C 1264.29 347.61, 1264.03 350.71, 1263.39 356.19 C 1262.76 361.66, 1262.28 364.38, 1260.99 369.25 C 1259.70 374.12, 1258.71 376.46, 1256.95 380.54 C 1255.19 384.62, 1254.01 386.38, 1252.18 389.63 C 1250.36 392.89, 1249.45 394.39, 1247.84 396.81 C 1246.24 399.24, 1245.40 400.10, 1244.16 401.76 C 1242.91 403.42, 1242.16 403.87, 1241.61 405.10 C 1241.05 406.34, 1241.06 406.86, 1241.40 407.94 C 1241.74 409.02, 1242.78 409.57, 1243.30 410.50 C 1243.82 411.43, 1243.87 411.78, 1244.00 412.59 C 1244.13 413.41, 1243.47 414.42, 1243.96 414.57 C 1244.46 414.72, 1245.71 414.03, 1246.46 413.35 C 1247.22 412.67, 1247.61 411.65, 1247.71 411.17 C 1247.81 410.70, 1247.92 410.58, 1246.96 410.95 C 1245.99 411.33, 1245.40 411.29, 1242.88 413.04 C 1240.37 414.79, 1238.96 416.68, 1234.37 419.71 C 1229.79 422.75, 1226.74 424.39, 1219.94 428.21 C 1213.15 432.03, 1208.94 434.31, 1200.39 438.82 C 1191.84 443.33, 1186.98 445.42, 1177.18 450.76 C 1167.38 456.10, 1162.05 458.85, 1151.39 465.51 C 1140.72 472.16, 1134.96 476.02, 1123.88 484.02 C 1112.79 492.03, 1106.91 496.28, 1095.96 505.51 C 1085.01 514.75, 1079.37 519.76, 1069.13 530.18 C 1058.89 540.61, 1053.63 546.24, 1044.75 557.64 C 1035.88 569.03, 1031.52 575.02, 1024.77 587.16 C 1018.03 599.30, 1015.04 606.03, 1011.03 618.34 C 1007.02 630.65, 1005.91 637.37, 1004.74 648.69 C 1003.56 660.02, 1003.74 665.72, 1005.18 674.98 C 1006.61 684.24, 1008.20 688.60, 1011.91 694.99 C 1015.62 701.39, 1018.31 704.30, 1023.73 706.97 C 1029.14 709.64, 1032.53 709.87, 1038.99 708.34 C 1045.45 706.82, 1048.94 704.89, 1056.02 699.33 C 1063.10 693.77, 1067.00 690.00, 1074.38 680.53 C 1081.75 671.06, 1086.02 664.70, 1092.91 651.98 C 1099.80 639.25, 1102.94 631.54, 1108.85 616.91 C 1114.75 602.28, 1117.33 594.43, 1122.43 578.83 C 1127.54 563.22, 1130.06 554.57, 1134.38 538.89 C 1138.71 523.21, 1140.52 514.93, 1144.07 500.42 C 1147.62 485.92, 1149.18 479.01, 1152.14 466.36 C 1155.09 453.72, 1156.46 447.52, 1158.85 437.19 C 1161.24 426.85, 1162.24 421.97, 1164.10 414.69 C 1165.96 407.41, 1167.38 404.61, 1168.15 400.78 C 1168.92 396.95, 1168.70 395.89, 1167.95 395.55 C 1167.21 395.20, 1166.12 395.96, 1164.41 399.05 C 1162.70 402.13, 1162.21 405.35, 1159.41 410.99 C 1156.61 416.63, 1154.70 420.47, 1150.41 427.26 C 1146.13 434.05, 1143.15 438.09, 1137.99 444.94 C 1132.83 451.79, 1129.95 455.71, 1124.61 461.53 C 1119.28 467.35, 1116.44 470.26, 1111.30 474.04 C 1106.17 477.83, 1103.27 479.09, 1098.94 480.45 C 1094.60 481.81, 1092.78 481.76, 1089.62 480.85 C 1086.45 479.95, 1085.14 478.98, 1083.09 475.94 C 1081.05 472.90, 1080.07 470.61, 1079.40 465.65 C 1078.73 460.70, 1078.86 457.42, 1079.75 451.17 C 1080.63 444.92, 1081.50 441.19, 1083.84 434.41 C 1086.18 427.64, 1087.76 423.71, 1091.46 417.30 C 1095.16 410.90, 1097.72 407.61, 1102.34 402.39 C 1106.95 397.16, 1109.76 394.93, 1114.52 391.15 C 1119.28 387.38, 1121.70 385.64, 1126.13 383.50 C 1130.56 381.37, 1132.93 380.94, 1136.67 380.47 C 1140.41 380.01, 1142.19 380.80, 1144.83 381.15 C 1147.47 381.51, 1148.04 381.77, 1149.87 382.25 C 1151.70 382.73, 1152.75 383.84, 1153.98 383.57 C 1155.22 383.31, 1156.31 382.36, 1156.03 380.93"/>
	<!-- <path stroke-linecap="null" stroke-linejoin="null" stroke-dasharray="null" stroke-width="5" stroke="#000000" fill="none" d="M 452.53,347.28 C 452.39 346.85, 451.51 347.82, 451.15 348.68 C 450.80 349.53, 450.75 350.61, 450.76 351.57 C 450.77 352.53, 450.55 352.50, 451.20 353.48 C 451.85 354.46, 452.50 354.91, 454.01 356.48 C 455.53 358.05, 456.55 358.91, 458.78 361.31 C 461.01 363.72, 462.69 365.27, 465.16 368.51 C 467.63 371.75, 468.73 373.45, 471.13 377.52 C 473.52 381.59, 474.93 384.16, 477.15 388.85 C 479.37 393.55, 480.32 396.01, 482.23 400.98 C 484.14 405.96, 485.35 408.73, 486.70 413.72 C 488.06 418.70, 488.67 421.06, 489.01 425.90 C 489.34 430.74, 489.17 433.18, 488.36 437.91 C 487.55 442.65, 486.74 444.89, 484.97 449.59 C 483.20 454.29, 481.97 456.87, 479.50 461.42 C 477.03 465.98, 475.73 468.33, 472.62 472.36 C 469.50 476.38, 467.65 478.08, 463.93 481.55 C 460.21 485.02, 457.99 486.68, 454.02 489.72 C 450.06 492.75, 447.93 494.28, 444.11 496.71 C 440.29 499.14, 438.33 500.18, 434.91 501.88 C 431.48 503.58, 429.62 504.09, 426.99 505.19 C 424.35 506.30, 423.37 506.70, 421.71 507.39 C 420.06 508.09, 419.75 508.00, 418.73 508.66 C 417.70 509.32, 416.92 509.84, 416.57 510.70 C 416.22 511.56, 416.48 512.61, 416.98 512.95 C 417.48 513.29, 418.70 512.54, 419.08 512.40 C 419.46 512.27, 418.69 512.19, 418.87 512.28 C 419.04 512.37, 419.07 512.76, 419.96 512.86 C 420.85 512.96, 421.42 513.15, 423.33 512.76 C 425.24 512.38, 426.70 512.24, 429.51 510.95 C 432.32 509.66, 433.96 508.42, 437.38 506.32 C 440.79 504.22, 442.75 503.10, 446.59 500.44 C 450.43 497.77, 452.56 496.19, 456.58 492.99 C 460.60 489.80, 462.83 488.10, 466.67 484.46 C 470.50 480.82, 472.49 479.02, 475.76 474.79 C 479.03 470.57, 480.43 468.10, 483.02 463.34 C 485.62 458.58, 486.88 455.95, 488.73 451.00 C 490.59 446.05, 491.44 443.66, 492.30 438.58 C 493.15 433.50, 493.34 430.81, 492.99 425.63 C 492.64 420.45, 491.93 417.90, 490.53 412.68 C 489.14 407.47, 487.93 404.67, 486.02 399.55 C 484.12 394.43, 483.17 391.95, 481.03 387.08 C 478.89 382.22, 477.54 379.55, 475.31 375.21 C 473.08 370.87, 471.98 369.06, 469.87 365.39 C 467.76 361.72, 466.56 359.87, 464.77 356.86 C 462.97 353.85, 462.57 352.36, 460.88 350.34 C 459.19 348.32, 457.81 347.42, 456.31 346.76 C 454.81 346.11, 454.16 346.57, 453.39 347.07 C 452.61 347.57, 452.73 348.52, 452.43 349.27 C 452.13 350.02, 451.85 351.22, 451.87 350.82 C 451.89 350.42, 452.67 347.71, 452.53 347.28"/>
	<path stroke-linecap="null" stroke-linejoin="null" stroke-dasharray="null" stroke-width="5" stroke="#000000" fill="none" d="M 432.04,449.30 C 432.97 449.55, 433.24 449.03, 434.73 448.55 C 436.22 448.07, 436.45 447.71, 439.48 446.90 C 442.51 446.09, 444.99 445.24, 449.88 444.48 C 454.77 443.73, 457.86 443.51, 463.93 443.12 C 470.00 442.72, 473.47 442.72, 480.25 442.50 C 487.02 442.28, 491.01 442.23, 497.80 442.02 C 504.58 441.80, 507.94 441.38, 514.18 441.40 C 520.43 441.43, 523.84 441.76, 529.00 442.13 C 534.17 442.51, 536.47 443.09, 540.00 443.28 C 543.52 443.48, 545.24 443.59, 546.62 443.11 C 548.00 442.63, 548.14 441.69, 546.90 440.89 C 545.66 440.08, 543.96 439.61, 540.43 439.09 C 536.89 438.56, 534.48 438.47, 529.22 438.25 C 523.97 438.04, 520.47 437.91, 514.16 438.02 C 507.86 438.12, 504.49 438.55, 497.69 438.76 C 490.89 438.97, 486.95 439.00, 480.17 439.08 C 473.39 439.16, 469.94 439.09, 463.78 439.15 C 457.63 439.22, 454.60 439.20, 449.40 439.41 C 444.19 439.62, 441.31 439.35, 437.77 440.21 C 434.23 441.07, 433.25 442.31, 431.71 443.73 C 430.17 445.15, 429.99 446.20, 430.05 447.31 C 430.12 448.43, 431.10 449.06, 432.04 449.30"/>
	<path stroke-linecap="null" stroke-linejoin="null" stroke-dasharray="null" stroke-width="5" stroke="#000000" fill="none" d="M 581.80,339.71 C 581.03 340.56, 580.54 341.12, 580.52 343.64 C 580.50 346.16, 581.02 347.66, 581.71 352.31 C 582.40 356.97, 583.06 360.30, 583.95 366.89 C 584.85 373.49, 585.35 377.67, 586.18 385.30 C 587.01 392.93, 587.37 397.29, 588.11 405.04 C 588.85 412.80, 589.10 416.96, 589.88 424.09 C 590.66 431.21, 591.25 434.68, 592.02 440.65 C 592.79 446.63, 593.15 449.38, 593.74 453.95 C 594.33 458.52, 593.94 460.68, 594.97 463.50 C 596.00 466.32, 596.94 467.24, 598.90 468.04 C 600.86 468.84, 602.43 469.07, 604.77 467.50 C 607.11 465.94, 607.86 463.93, 610.59 460.22 C 613.32 456.51, 614.58 453.54, 618.41 448.96 C 622.24 444.38, 624.81 441.46, 629.76 437.32 C 634.71 433.19, 637.95 431.05, 643.16 428.28 C 648.37 425.50, 651.15 424.44, 655.80 423.44 C 660.45 422.44, 662.78 422.63, 666.43 423.30 C 670.09 423.96, 671.56 424.74, 674.06 426.78 C 676.57 428.81, 677.34 430.12, 678.98 433.47 C 680.62 436.83, 681.25 439.50, 682.24 443.54 C 683.23 447.58, 683.40 449.85, 683.93 453.68 C 684.45 457.51, 684.51 459.22, 684.88 462.67 C 685.25 466.12, 684.95 468.15, 685.77 470.93 C 686.60 473.70, 687.69 474.71, 689.01 476.54 C 690.33 478.37, 690.98 479.17, 692.38 480.07 C 693.78 480.98, 694.98 481.32, 696.01 481.08 C 697.04 480.84, 697.52 479.81, 697.52 478.87 C 697.51 477.92, 696.67 477.48, 695.99 476.36 C 695.31 475.24, 694.90 474.73, 694.11 473.27 C 693.32 471.81, 692.73 471.33, 692.05 469.05 C 691.36 466.77, 691.25 465.11, 690.69 461.87 C 690.13 458.63, 689.94 456.78, 689.27 452.85 C 688.59 448.92, 688.47 446.57, 687.30 442.24 C 686.13 437.90, 685.49 435.01, 683.41 431.18 C 681.34 427.35, 680.18 425.50, 676.92 423.08 C 673.67 420.66, 671.52 419.77, 667.13 419.09 C 662.74 418.42, 660.10 418.52, 654.96 419.73 C 649.83 420.93, 646.98 422.18, 641.47 425.12 C 635.96 428.07, 632.68 430.26, 627.41 434.45 C 622.15 438.63, 619.38 441.58, 615.15 446.06 C 610.92 450.55, 609.11 453.40, 606.27 456.87 C 603.44 460.34, 602.19 461.66, 600.96 463.40 C 599.74 465.14, 600.32 465.83, 600.15 465.56 C 599.98 465.29, 600.58 464.50, 600.11 462.04 C 599.64 459.58, 598.76 457.62, 597.79 453.25 C 596.83 448.87, 596.29 446.07, 595.29 440.17 C 594.30 434.27, 593.67 430.83, 592.82 423.75 C 591.96 416.67, 591.70 412.52, 591.01 404.77 C 590.32 397.02, 589.99 392.66, 589.36 385.00 C 588.74 377.34, 588.37 373.13, 587.88 366.48 C 587.38 359.84, 587.18 356.46, 586.90 351.78 C 586.62 347.09, 586.97 345.53, 586.46 343.06 C 585.95 340.59, 585.30 340.11, 584.37 339.44 C 583.44 338.77, 582.57 338.87, 581.80 339.71"/>
	<path stroke-linecap="null" stroke-linejoin="null" stroke-dasharray="null" stroke-width="5" stroke="#000000" fill="none" d="M 786.29,425.57 C 786.07 424.06, 785.22 422.15, 783.06 420.42 C 780.90 418.68, 779.05 417.88, 775.49 416.91 C 771.93 415.94, 769.50 415.28, 765.26 415.57 C 761.02 415.86, 758.79 416.39, 754.30 418.34 C 749.81 420.29, 747.24 422.12, 742.80 425.32 C 738.36 428.52, 735.79 430.47, 732.10 434.33 C 728.41 438.19, 726.37 440.37, 724.35 444.61 C 722.32 448.85, 721.67 451.49, 721.99 455.54 C 722.30 459.59, 723.27 461.94, 725.92 464.84 C 728.57 467.75, 730.89 468.75, 735.23 470.05 C 739.57 471.36, 742.49 471.47, 747.63 471.35 C 752.77 471.23, 755.62 470.73, 760.92 469.46 C 766.23 468.19, 769.07 467.19, 774.15 464.99 C 779.23 462.79, 781.93 461.41, 786.33 458.46 C 790.72 455.52, 792.90 453.74, 796.13 450.25 C 799.36 446.75, 800.66 444.66, 802.47 440.98 C 804.29 437.30, 805.24 434.83, 805.20 431.85 C 805.16 428.88, 803.66 426.90, 802.28 426.11 C 800.90 425.32, 798.99 426.02, 798.29 427.91 C 797.58 429.80, 797.72 432.14, 798.75 435.55 C 799.78 438.95, 800.88 441.20, 803.44 444.94 C 806.00 448.68, 808.06 450.92, 811.54 454.26 C 815.02 457.59, 817.03 459.10, 820.82 461.64 C 824.61 464.17, 826.60 464.98, 830.47 466.93 C 834.34 468.88, 836.38 470.06, 840.19 471.39 C 843.99 472.72, 845.96 473.10, 849.50 473.58 C 853.03 474.06, 855.01 474.26, 857.85 473.81 C 860.69 473.36, 861.60 472.40, 863.69 471.32 C 865.77 470.24, 866.74 469.99, 868.28 468.40 C 869.82 466.82, 870.74 465.14, 871.37 463.40 C 872.00 461.66, 871.48 460.59, 871.41 459.70 C 871.35 458.82, 870.89 458.93, 871.04 458.97 C 871.19 459.01, 871.25 459.31, 872.15 459.91 C 873.05 460.51, 873.56 461.21, 875.52 461.96 C 877.49 462.70, 878.97 463.47, 881.99 463.64 C 885.01 463.81, 886.87 463.31, 890.63 462.82 C 894.39 462.33, 896.23 462.14, 900.79 461.20 C 905.34 460.26, 908.10 459.52, 913.42 458.11 C 918.73 456.70, 921.94 455.67, 927.36 454.17 C 932.77 452.67, 935.62 451.79, 940.49 450.62 C 945.36 449.44, 947.74 448.72, 951.70 448.30 C 955.65 447.88, 957.23 448.00, 960.26 448.50 C 963.30 449.01, 964.48 449.63, 966.89 450.83 C 969.30 452.03, 970.16 452.81, 972.32 454.49 C 974.49 456.17, 975.48 457.37, 977.72 459.21 C 979.95 461.06, 981.17 462.08, 983.47 463.70 C 985.78 465.33, 987.11 466.37, 989.25 467.32 C 991.39 468.28, 992.56 468.30, 994.18 468.48 C 995.80 468.65, 996.56 468.67, 997.37 468.20 C 998.18 467.73, 998.44 467.03, 998.22 466.14 C 998.00 465.25, 997.33 464.75, 996.26 463.74 C 995.20 462.73, 994.55 462.37, 992.88 461.10 C 991.21 459.83, 990.07 458.92, 987.92 457.40 C 985.76 455.88, 984.46 455.18, 982.11 453.50 C 979.76 451.82, 978.74 450.63, 976.17 449.00 C 973.59 447.36, 972.30 446.45, 969.25 445.32 C 966.19 444.18, 964.53 443.62, 960.90 443.31 C 957.27 443.01, 955.39 443.13, 951.11 443.77 C 946.82 444.42, 944.44 445.27, 939.48 446.55 C 934.51 447.83, 931.69 448.72, 926.27 450.17 C 920.84 451.63, 917.62 452.63, 912.36 453.84 C 907.10 455.05, 904.37 455.69, 899.97 456.21 C 895.57 456.74, 893.78 456.67, 890.37 456.47 C 886.96 456.28, 885.46 455.70, 882.92 455.25 C 880.38 454.81, 879.55 454.58, 877.67 454.25 C 875.79 453.93, 875.19 453.59, 873.52 453.63 C 871.85 453.67, 870.88 453.74, 869.30 454.44 C 867.73 455.14, 866.70 455.81, 865.65 457.13 C 864.60 458.45, 864.46 459.55, 864.04 461.05 C 863.63 462.54, 864.14 463.59, 863.57 464.62 C 863.01 465.64, 862.56 465.62, 861.23 466.18 C 859.90 466.73, 859.14 467.10, 856.92 467.38 C 854.70 467.66, 853.15 467.79, 850.13 467.58 C 847.10 467.38, 845.30 467.35, 841.80 466.34 C 838.30 465.34, 836.28 464.29, 832.62 462.55 C 828.96 460.81, 827.00 460.03, 823.52 457.65 C 820.03 455.27, 818.14 453.86, 815.21 450.66 C 812.27 447.46, 810.72 445.16, 808.83 441.64 C 806.94 438.12, 806.96 435.94, 805.77 433.07 C 804.57 430.19, 804.02 428.49, 802.86 427.25 C 801.70 426.01, 800.84 426.05, 799.98 426.86 C 799.13 427.68, 799.04 428.93, 798.59 431.34 C 798.13 433.75, 798.86 435.73, 797.71 438.92 C 796.55 442.11, 795.55 444.07, 792.81 447.30 C 790.07 450.52, 788.06 452.25, 784.00 455.05 C 779.95 457.84, 777.35 459.21, 772.55 461.27 C 767.74 463.33, 764.97 464.24, 759.97 465.33 C 754.98 466.42, 752.24 466.73, 747.57 466.73 C 742.91 466.73, 740.24 466.39, 736.64 465.33 C 733.04 464.27, 731.54 463.46, 729.58 461.42 C 727.61 459.39, 727.04 458.14, 726.81 455.17 C 726.58 452.19, 726.75 450.12, 728.44 446.56 C 730.13 443.00, 731.88 440.89, 735.27 437.37 C 738.66 433.85, 741.20 431.86, 745.37 428.94 C 749.54 426.03, 752.13 424.34, 756.13 422.81 C 760.14 421.28, 761.91 421.15, 765.37 421.28 C 768.84 421.42, 770.65 422.49, 773.47 423.48 C 776.29 424.47, 777.35 425.33, 779.49 426.24 C 781.62 427.14, 782.79 428.14, 784.15 428.01 C 785.51 427.88, 786.51 427.09, 786.29 425.57"/>
	<path stroke-linecap="null" stroke-linejoin="null" stroke-dasharray="null" stroke-width="5" stroke="#000000" fill="none" d="M 1094.11,433.58 C 1094.24 432.14, 1094.00 430.40, 1092.29 428.24 C 1090.57 426.07, 1089.09 424.61, 1085.54 422.76 C 1082.00 420.92, 1079.42 419.56, 1074.57 419.01 C 1069.73 418.45, 1066.65 419.06, 1061.32 419.99 C 1055.99 420.92, 1052.92 421.85, 1047.92 423.66 C 1042.93 425.46, 1040.08 426.49, 1036.34 429.02 C 1032.60 431.55, 1030.46 433.21, 1029.23 436.30 C 1027.99 439.38, 1028.54 441.88, 1030.18 444.43 C 1031.81 446.99, 1033.78 448.15, 1037.38 449.09 C 1040.99 450.02, 1043.44 449.56, 1048.19 449.12 C 1052.94 448.68, 1055.98 448.23, 1061.13 446.89 C 1066.28 445.54, 1069.27 444.20, 1073.94 442.41 C 1078.60 440.61, 1080.88 439.24, 1084.45 437.92 C 1088.02 436.59, 1089.62 436.35, 1091.80 435.79 C 1093.98 435.23, 1094.39 434.57, 1095.37 435.12 C 1096.35 435.68, 1095.63 436.53, 1096.71 438.55 C 1097.78 440.57, 1098.68 442.17, 1100.75 445.23 C 1102.82 448.28, 1104.18 450.04, 1107.05 453.81 C 1109.92 457.58, 1111.47 459.88, 1115.10 464.10 C 1118.73 468.31, 1121.19 470.64, 1125.20 474.87 C 1129.20 479.10, 1131.38 481.22, 1135.14 485.23 C 1138.90 489.24, 1141.14 491.21, 1144.00 494.93 C 1146.87 498.65, 1148.10 500.61, 1149.47 503.85 C 1150.84 507.08, 1151.06 508.35, 1150.87 511.11 C 1150.67 513.87, 1150.49 515.10, 1148.50 517.63 C 1146.51 520.17, 1145.13 521.37, 1140.90 523.80 C 1136.68 526.22, 1133.63 527.74, 1127.38 529.74 C 1121.12 531.74, 1117.02 532.74, 1109.63 533.79 C 1102.23 534.83, 1097.79 534.94, 1090.40 534.97 C 1083.01 534.99, 1078.87 534.76, 1072.68 533.89 C 1066.48 533.02, 1063.60 532.30, 1059.44 530.63 C 1055.28 528.95, 1053.84 527.77, 1051.86 525.52 C 1049.88 523.26, 1049.52 522.20, 1049.56 519.35 C 1049.59 516.51, 1049.82 515.06, 1052.03 511.29 C 1054.24 507.53, 1056.89 504.84, 1060.60 500.51 C 1064.30 496.19, 1066.96 493.37, 1070.56 489.67 C 1074.17 485.97, 1077.42 484.00, 1078.63 482.00 C 1079.83 480.00, 1078.79 478.72, 1076.60 479.66 C 1074.41 480.60, 1071.55 483.11, 1067.67 486.70 C 1063.80 490.29, 1061.15 493.13, 1057.23 497.59 C 1053.31 502.06, 1050.55 504.67, 1048.09 509.03 C 1045.63 513.39, 1044.84 515.53, 1044.94 519.40 C 1045.05 523.27, 1046.00 525.45, 1048.63 528.38 C 1051.26 531.32, 1053.38 532.35, 1058.11 534.09 C 1062.83 535.84, 1065.80 536.32, 1072.26 537.10 C 1078.72 537.88, 1082.85 538.04, 1090.41 538.01 C 1097.97 537.97, 1102.44 537.89, 1110.05 536.92 C 1117.65 535.96, 1121.84 535.06, 1128.42 533.17 C 1134.99 531.29, 1138.16 530.01, 1142.93 527.50 C 1147.70 524.99, 1149.68 523.83, 1152.26 520.63 C 1154.84 517.43, 1155.54 515.21, 1155.83 511.48 C 1156.13 507.75, 1155.44 505.81, 1153.73 501.98 C 1152.02 498.15, 1150.43 496.22, 1147.28 492.34 C 1144.13 488.45, 1141.82 486.58, 1137.98 482.54 C 1134.14 478.51, 1131.99 476.41, 1128.07 472.18 C 1124.16 467.94, 1121.78 465.62, 1118.41 461.36 C 1115.04 457.10, 1113.70 454.79, 1111.24 450.89 C 1108.78 447.00, 1107.94 445.07, 1106.09 441.88 C 1104.25 438.68, 1103.79 437.08, 1102.02 434.92 C 1100.24 432.77, 1099.47 432.05, 1097.22 431.11 C 1094.96 430.18, 1093.68 429.84, 1090.75 430.24 C 1087.82 430.65, 1086.27 431.59, 1082.56 433.16 C 1078.86 434.72, 1076.75 436.25, 1072.23 438.07 C 1067.71 439.89, 1064.87 441.10, 1059.98 442.24 C 1055.10 443.39, 1052.08 443.57, 1047.80 443.78 C 1043.53 444.00, 1041.38 443.74, 1038.61 443.32 C 1035.83 442.91, 1034.85 442.67, 1033.92 441.71 C 1032.99 440.75, 1032.93 440.26, 1033.97 438.54 C 1035.01 436.81, 1036.01 435.21, 1039.11 433.08 C 1042.21 430.95, 1044.88 429.60, 1049.47 427.88 C 1054.06 426.17, 1057.19 425.24, 1062.06 424.51 C 1066.92 423.77, 1069.74 423.45, 1073.81 424.21 C 1077.87 424.96, 1079.64 426.55, 1082.39 428.29 C 1085.15 430.03, 1085.72 431.49, 1087.57 432.91 C 1089.42 434.34, 1090.33 435.30, 1091.64 435.44 C 1092.95 435.57, 1093.98 435.02, 1094.11 433.58"/>
	<path stroke-linecap="null" stroke-linejoin="null" stroke-dasharray="null" stroke-width="5" stroke="#000000" fill="none" d="M 1265.59,396.62 C 1265.71 395.18, 1265.21 393.35, 1263.57 391.50 C 1261.93 389.64, 1260.60 388.41, 1257.38 387.36 C 1254.17 386.30, 1252.12 385.87, 1247.49 386.22 C 1242.87 386.57, 1240.07 387.25, 1234.24 389.11 C 1228.41 390.97, 1224.72 392.26, 1218.34 395.53 C 1211.96 398.79, 1208.23 401.00, 1202.35 405.45 C 1196.47 409.90, 1193.04 412.70, 1188.93 417.77 C 1184.81 422.83, 1183.20 425.66, 1181.77 430.78 C 1180.34 435.90, 1180.30 438.86, 1181.77 443.37 C 1183.24 447.88, 1184.95 450.14, 1189.10 453.34 C 1193.26 456.55, 1196.37 457.65, 1202.55 459.39 C 1208.73 461.12, 1212.71 461.59, 1220.01 462.02 C 1227.32 462.46, 1231.69 462.33, 1239.08 461.56 C 1246.47 460.79, 1250.47 459.93, 1256.96 458.17 C 1263.45 456.40, 1266.69 455.26, 1271.52 452.73 C 1276.35 450.21, 1278.44 448.76, 1281.11 445.56 C 1283.78 442.36, 1284.58 440.26, 1284.88 436.73 C 1285.18 433.20, 1284.60 430.86, 1282.61 427.90 C 1280.63 424.93, 1278.39 423.63, 1274.96 421.92 C 1271.53 420.22, 1269.17 419.61, 1265.46 419.38 C 1261.74 419.15, 1259.46 419.29, 1256.37 420.78 C 1253.28 422.27, 1251.49 423.84, 1250.00 426.82 C 1248.51 429.80, 1248.38 432.15, 1248.91 435.67 C 1249.44 439.18, 1250.50 441.14, 1252.66 444.39 C 1254.81 447.63, 1256.58 449.13, 1259.69 451.89 C 1262.79 454.65, 1264.43 455.84, 1268.19 458.19 C 1271.95 460.54, 1274.48 461.74, 1278.48 463.65 C 1282.49 465.56, 1284.73 466.30, 1288.22 467.73 C 1291.70 469.17, 1293.30 470.20, 1295.92 470.81 C 1298.54 471.42, 1300.10 471.22, 1301.31 470.77 C 1302.53 470.31, 1302.69 469.57, 1302.00 468.53 C 1301.31 467.49, 1300.19 466.79, 1297.86 465.57 C 1295.53 464.34, 1293.79 463.73, 1290.35 462.39 C 1286.91 461.06, 1284.54 460.63, 1280.67 458.90 C 1276.80 457.18, 1274.43 456.01, 1271.00 453.78 C 1267.56 451.55, 1266.12 450.32, 1263.51 447.77 C 1260.90 445.22, 1259.54 443.67, 1257.93 441.02 C 1256.33 438.37, 1255.96 436.82, 1255.47 434.51 C 1254.98 432.21, 1254.78 431.03, 1255.48 429.50 C 1256.19 427.97, 1257.10 427.54, 1259.00 426.87 C 1260.91 426.20, 1262.36 425.95, 1265.01 426.14 C 1267.65 426.34, 1269.67 426.77, 1272.24 427.83 C 1274.80 428.90, 1276.32 429.73, 1277.81 431.46 C 1279.31 433.18, 1279.72 434.17, 1279.70 436.45 C 1279.68 438.73, 1279.70 440.23, 1277.72 442.85 C 1275.74 445.47, 1274.12 447.10, 1269.79 449.54 C 1265.46 451.98, 1262.30 453.28, 1256.09 455.06 C 1249.88 456.85, 1245.93 457.72, 1238.76 458.46 C 1231.59 459.20, 1227.27 459.26, 1220.22 458.77 C 1213.18 458.27, 1209.29 457.66, 1203.53 455.98 C 1197.77 454.29, 1195.04 453.09, 1191.41 450.33 C 1187.77 447.58, 1186.59 445.91, 1185.34 442.19 C 1184.10 438.47, 1183.95 436.20, 1185.17 431.73 C 1186.40 427.26, 1187.66 424.57, 1191.48 419.83 C 1195.30 415.09, 1198.61 412.27, 1204.29 408.03 C 1209.97 403.78, 1213.66 401.62, 1219.88 398.62 C 1226.10 395.62, 1229.83 394.47, 1235.38 393.04 C 1240.92 391.61, 1243.69 391.29, 1247.61 391.46 C 1251.53 391.62, 1252.64 392.88, 1254.98 393.88 C 1257.32 394.87, 1257.70 395.46, 1259.30 396.42 C 1260.90 397.37, 1261.70 398.61, 1262.96 398.65 C 1264.22 398.69, 1265.47 398.05, 1265.59 396.62"/>
	<path stroke-linecap="null" stroke-linejoin="null" stroke-dasharray="null" stroke-width="5" stroke="#000000" fill="none" d="M 1385.02,433.08 C 1385.10 431.84, 1384.73 430.83, 1383.33 429.17 C 1381.93 427.51, 1380.97 425.92, 1378.02 424.78 C 1375.08 423.63, 1372.76 423.33, 1368.60 423.44 C 1364.45 423.55, 1362.15 423.73, 1357.26 425.33 C 1352.37 426.92, 1349.11 428.59, 1344.15 431.41 C 1339.19 434.22, 1336.53 435.93, 1332.47 439.40 C 1328.41 442.86, 1325.93 444.86, 1323.84 448.72 C 1321.75 452.58, 1321.32 455.20, 1322.03 458.72 C 1322.73 462.23, 1324.32 464.22, 1327.36 466.30 C 1330.40 468.38, 1332.68 468.79, 1337.24 469.11 C 1341.80 469.43, 1344.79 469.03, 1350.16 467.90 C 1355.53 466.77, 1358.71 465.65, 1364.09 463.44 C 1369.46 461.23, 1372.39 459.48, 1377.03 456.85 C 1381.67 454.22, 1384.08 452.52, 1387.27 450.27 C 1390.45 448.02, 1391.69 446.59, 1392.96 445.61 C 1394.23 444.62, 1393.30 444.26, 1393.62 445.35 C 1393.94 446.43, 1393.28 448.47, 1394.57 451.04 C 1395.87 453.61, 1397.40 455.39, 1400.09 458.19 C 1402.78 460.98, 1404.28 462.67, 1408.01 465.01 C 1411.73 467.34, 1414.19 468.55, 1418.72 469.87 C 1423.25 471.18, 1425.81 471.28, 1430.65 471.58 C 1435.50 471.88, 1437.91 471.83, 1442.93 471.38 C 1447.95 470.92, 1451.20 470.36, 1455.76 469.29 C 1460.32 468.23, 1462.65 467.42, 1465.74 466.05 C 1468.83 464.69, 1470.30 463.63, 1471.22 462.47 C 1472.14 461.31, 1471.77 460.47, 1470.34 460.24 C 1468.90 460.01, 1467.21 460.45, 1464.05 461.31 C 1460.90 462.16, 1458.90 463.40, 1454.58 464.52 C 1450.27 465.63, 1447.21 466.38, 1442.49 466.88 C 1437.77 467.38, 1435.43 467.37, 1430.97 467.02 C 1426.51 466.68, 1424.14 466.48, 1420.18 465.16 C 1416.22 463.84, 1414.16 462.71, 1411.17 460.42 C 1408.19 458.13, 1407.31 456.39, 1405.25 453.71 C 1403.19 451.03, 1402.65 449.25, 1400.86 447.01 C 1399.08 444.77, 1398.27 443.58, 1396.32 442.51 C 1394.37 441.43, 1393.51 440.91, 1391.11 441.64 C 1388.71 442.36, 1387.59 443.83, 1384.34 446.13 C 1381.09 448.44, 1379.22 450.48, 1374.85 453.16 C 1370.49 455.85, 1367.62 457.49, 1362.51 459.55 C 1357.39 461.61, 1354.26 462.54, 1349.28 463.44 C 1344.31 464.35, 1341.43 464.39, 1337.62 464.07 C 1333.81 463.76, 1332.36 463.14, 1330.25 461.86 C 1328.14 460.59, 1327.53 459.86, 1327.07 457.69 C 1326.61 455.51, 1326.29 453.95, 1327.95 450.97 C 1329.60 447.98, 1331.67 445.90, 1335.34 442.76 C 1339.01 439.62, 1341.65 437.82, 1346.31 435.28 C 1350.97 432.75, 1354.25 431.21, 1358.65 430.07 C 1363.06 428.93, 1365.07 429.13, 1368.33 429.57 C 1371.60 430.00, 1372.75 431.29, 1374.96 432.25 C 1377.17 433.21, 1377.78 433.76, 1379.38 434.38 C 1380.98 434.99, 1381.82 435.58, 1382.95 435.32 C 1384.08 435.06, 1384.95 434.31, 1385.02 433.08"/>
	<path stroke-linecap="null" stroke-linejoin="null" stroke-dasharray="null" stroke-width="5" stroke="#000000" fill="none" d="M 1535.20,447.77 C 1535.90 446.48, 1536.48 444.43, 1535.53 441.98 C 1534.58 439.52, 1533.42 437.54, 1530.44 435.49 C 1527.46 433.44, 1525.20 432.32, 1520.63 431.74 C 1516.06 431.17, 1513.27 431.52, 1507.59 432.61 C 1501.91 433.70, 1497.96 434.88, 1492.22 437.20 C 1486.48 439.51, 1483.40 441.11, 1478.89 444.17 C 1474.38 447.24, 1472.15 449.06, 1469.68 452.51 C 1467.21 455.96, 1466.07 458.12, 1466.53 461.42 C 1466.98 464.72, 1468.69 466.81, 1471.96 469.03 C 1475.23 471.26, 1477.94 471.81, 1482.88 472.56 C 1487.82 473.32, 1490.76 473.36, 1496.68 472.81 C 1502.60 472.25, 1506.23 471.52, 1512.47 469.80 C 1518.72 468.08, 1522.54 466.70, 1527.92 464.21 C 1533.30 461.71, 1535.65 460.20, 1539.37 457.32 C 1543.10 454.45, 1544.68 453.05, 1546.54 449.82 C 1548.40 446.59, 1549.07 444.46, 1548.67 441.16 C 1548.27 437.86, 1546.93 435.79, 1544.54 433.30 C 1542.15 430.82, 1540.15 429.97, 1536.71 428.75 C 1533.28 427.53, 1530.91 427.20, 1527.37 427.19 C 1523.83 427.19, 1521.65 427.74, 1519.01 428.73 C 1516.37 429.72, 1515.37 430.73, 1514.15 432.14 C 1512.94 433.54, 1512.83 434.79, 1512.92 435.76 C 1513.00 436.73, 1513.81 436.93, 1514.57 436.98 C 1515.33 437.04, 1515.45 436.27, 1516.72 436.03 C 1517.99 435.80, 1518.77 436.13, 1520.92 435.83 C 1523.08 435.53, 1524.76 434.63, 1527.49 434.52 C 1530.22 434.41, 1532.07 434.57, 1534.58 435.29 C 1537.10 436.00, 1538.35 436.75, 1540.08 438.10 C 1541.81 439.45, 1542.82 440.17, 1543.26 442.03 C 1543.69 443.89, 1543.55 445.01, 1542.25 447.41 C 1540.94 449.81, 1539.93 451.37, 1536.74 454.03 C 1533.54 456.69, 1531.33 458.31, 1526.28 460.73 C 1521.23 463.16, 1517.47 464.55, 1511.48 466.14 C 1505.50 467.74, 1501.92 468.35, 1496.36 468.70 C 1490.79 469.05, 1487.99 468.67, 1483.66 467.87 C 1479.33 467.07, 1477.21 466.12, 1474.71 464.70 C 1472.21 463.28, 1471.44 462.67, 1471.17 460.77 C 1470.90 458.87, 1471.32 457.85, 1473.34 455.22 C 1475.36 452.59, 1477.18 450.47, 1481.26 447.63 C 1485.34 444.78, 1488.32 443.13, 1493.73 441.00 C 1499.15 438.88, 1503.15 437.79, 1508.35 436.99 C 1513.55 436.20, 1516.13 436.21, 1519.73 437.02 C 1523.33 437.84, 1524.35 439.47, 1526.35 441.07 C 1528.36 442.67, 1528.63 443.57, 1529.77 445.04 C 1530.90 446.51, 1530.95 447.89, 1532.04 448.44 C 1533.12 448.98, 1534.50 449.06, 1535.20 447.77"/> -->
</g>
</svg>