<svg xmlns="http://www.w3.org/2000/svg" id="canvas" viewBox="300.773 300.898 1282.543 400.289">
<style>
    path {
      stroke-dasharray: 2000;
      stroke-dashoffset: 2000;
      -webkit-animation: dash 5s ease infinite;
      animation: dash 5s ease infinite;
    }

    @-webkit-keyframes dash {
      0% {
            stroke: yellow;
        }
        50% {
            stroke: orange;
        }
        100% {
            stroke: pink;
        }
      to {
        stroke-dashoffset: 0;
      }
    }
    @keyframes dash {
      0% {
            stroke: yellow;
        }
        50% {
            stroke: orange;
        }
        100% {
            stroke: pink;
        }
      to {
        stroke-dashoffset: 0;
      }
    }
</style>
<g>
  <path stroke-linecap="null" stroke-linejoin="null" stroke-dasharray="null" stroke-width="5" stroke="#000000" fill="blue" d="M 472.70,324.71 C 471.91 324.31, 471.89 324.28, 471.95 324.96 C 472.01 325.64, 472.45 326.97, 473.01 328.13 C 473.56 329.29, 473.66 330.14, 474.72 330.75 C 475.79 331.36, 476.64 331.31, 478.33 331.17 C 480.03 331.03, 481.00 330.72, 483.20 330.05 C 485.40 329.38, 486.45 328.94, 489.33 327.82 C 492.20 326.70, 493.84 325.89, 497.58 324.44 C 501.31 322.98, 503.61 322.09, 507.98 320.54 C 512.35 318.99, 514.93 318.04, 519.41 316.69 C 523.90 315.34, 526.10 314.68, 530.40 313.79 C 534.70 312.89, 536.98 312.47, 540.93 312.22 C 544.88 311.97, 546.92 311.94, 550.16 312.52 C 553.40 313.10, 554.62 313.60, 557.14 315.13 C 559.66 316.66, 560.84 317.64, 562.74 320.18 C 564.64 322.71, 565.64 324.14, 566.64 327.81 C 567.65 331.47, 568.18 333.57, 567.77 338.50 C 567.35 343.44, 566.77 346.34, 564.56 352.49 C 562.35 358.64, 560.63 361.86, 556.72 369.27 C 552.81 376.68, 550.42 380.88, 545.01 389.53 C 539.60 398.18, 536.13 403.17, 529.67 412.52 C 523.21 421.87, 519.72 426.57, 512.71 436.27 C 505.69 445.98, 501.88 451.13, 494.60 461.05 C 487.33 470.97, 483.42 476.38, 476.34 485.87 C 469.26 495.35, 465.67 499.98, 459.20 508.46 C 452.73 516.93, 449.69 521.38, 443.98 528.22 C 438.28 535.07, 435.55 538.16, 430.68 542.67 C 425.81 547.18, 423.28 548.78, 419.61 550.80 C 415.94 552.82, 414.44 553.05, 412.33 552.77 C 410.21 552.49, 410.12 551.82, 409.04 549.40 C 407.96 546.97, 407.40 544.84, 406.94 540.63 C 406.47 536.43, 406.30 533.55, 406.71 528.37 C 407.13 523.18, 407.57 520.12, 409.01 514.70 C 410.46 509.27, 411.46 506.47, 413.95 501.25 C 416.44 496.02, 417.90 493.32, 421.45 488.60 C 425.00 483.87, 427.19 481.47, 431.70 477.61 C 436.22 473.76, 438.86 472.07, 444.03 469.33 C 449.20 466.59, 451.81 465.52, 457.57 463.90 C 463.33 462.28, 466.48 461.74, 472.81 461.22 C 479.14 460.70, 482.73 460.71, 489.23 461.28 C 495.73 461.85, 498.90 462.61, 505.31 464.08 C 511.71 465.55, 515.13 466.68, 521.24 468.64 C 527.36 470.60, 530.41 471.88, 535.88 473.87 C 541.35 475.86, 544.03 476.89, 548.60 478.59 C 553.17 480.29, 555.15 481.40, 558.71 482.38 C 562.27 483.36, 564.09 483.50, 566.41 483.49 C 568.72 483.48, 569.08 483.02, 570.29 482.34 C 571.50 481.65, 571.95 481.03, 572.44 480.06 C 572.93 479.10, 572.96 478.15, 572.74 477.52 C 572.52 476.89, 572.10 476.77, 571.35 476.90 C 570.60 477.03, 569.56 477.72, 568.99 478.17 C 568.41 478.63, 568.37 478.99, 568.46 479.16 C 568.56 479.33, 569.27 479.07, 569.44 479.03 C 569.61 479.00, 569.84 479.18, 569.31 479.00 C 568.79 478.82, 568.69 478.46, 566.81 478.14 C 564.93 477.81, 563.29 478.05, 559.91 477.37 C 556.52 476.69, 554.46 476.11, 549.89 474.74 C 545.32 473.37, 542.59 472.36, 537.05 470.52 C 531.52 468.67, 528.43 467.42, 522.22 465.51 C 516.01 463.61, 512.56 462.46, 506.02 460.98 C 499.47 459.49, 496.21 458.69, 489.52 458.09 C 482.82 457.48, 479.11 457.44, 472.54 457.96 C 465.98 458.49, 462.70 459.03, 456.68 460.71 C 450.66 462.38, 447.89 463.48, 442.45 466.33 C 437.01 469.19, 434.23 470.96, 429.48 475.00 C 424.72 479.03, 422.43 481.57, 418.68 486.50 C 414.93 491.44, 413.40 494.25, 410.72 499.68 C 408.04 505.11, 406.96 507.99, 405.28 513.64 C 403.59 519.29, 402.95 522.43, 402.30 527.93 C 401.65 533.43, 401.55 536.39, 402.03 541.15 C 402.51 545.92, 402.74 548.58, 404.69 551.75 C 406.65 554.92, 408.46 556.59, 411.79 557.01 C 415.12 557.42, 417.19 556.29, 421.35 553.81 C 425.50 551.33, 427.68 549.45, 432.55 544.61 C 437.41 539.78, 440.04 536.61, 445.68 529.61 C 451.32 522.61, 454.31 518.15, 460.74 509.62 C 467.16 501.08, 470.73 496.45, 477.78 486.94 C 484.84 477.43, 488.75 472.01, 496.03 462.09 C 503.31 452.17, 507.13 447.03, 514.18 437.35 C 521.24 427.66, 524.76 422.98, 531.31 413.66 C 537.86 404.34, 541.37 399.37, 546.93 390.75 C 552.48 382.13, 554.93 377.97, 559.08 370.55 C 563.23 363.14, 565.11 359.99, 567.66 353.67 C 570.21 347.35, 571.09 344.36, 571.84 338.96 C 572.58 333.56, 572.34 331.04, 571.39 326.65 C 570.45 322.26, 569.39 320.25, 567.11 317.01 C 564.82 313.77, 563.18 312.39, 559.96 310.46 C 556.75 308.53, 554.91 307.98, 551.03 307.35 C 547.15 306.73, 544.88 306.97, 540.56 307.34 C 536.24 307.72, 533.93 308.27, 529.44 309.23 C 524.95 310.19, 522.71 310.85, 518.10 312.13 C 513.49 313.41, 510.86 314.30, 506.39 315.60 C 501.91 316.91, 499.60 317.69, 495.73 318.66 C 491.87 319.62, 489.96 319.77, 487.05 320.43 C 484.13 321.09, 483.06 321.60, 481.15 321.97 C 479.25 322.34, 478.69 322.16, 477.52 322.28 C 476.34 322.41, 475.79 322.10, 475.26 322.60 C 474.73 323.10, 474.69 323.85, 474.87 324.80 C 475.06 325.75, 475.98 326.92, 476.19 327.35 C 476.39 327.79, 476.59 327.49, 475.89 326.96 C 475.19 326.43, 473.49 325.11, 472.70 324.71"/>
  <path stroke-linecap="null" stroke-linejoin="null" stroke-dasharray="null" stroke-width="5" stroke="#000000" fill="red" d="M 662.92,254.32 C 661.84 255.61, 661.36 257.46, 660.38 261.47 C 659.41 265.49, 659.34 268.29, 658.06 274.40 C 656.78 280.52, 655.77 283.96, 653.98 292.03 C 652.19 300.11, 651.31 304.99, 649.12 314.77 C 646.94 324.55, 645.83 329.96, 643.05 340.93 C 640.27 351.90, 638.44 358.07, 635.24 369.63 C 632.04 381.19, 630.34 387.41, 627.06 398.74 C 623.78 410.07, 621.89 415.89, 618.85 426.30 C 615.81 436.70, 614.15 442.12, 611.88 450.79 C 609.60 459.46, 608.79 463.66, 607.47 469.64 C 606.15 475.62, 605.07 477.76, 605.29 480.67 C 605.51 483.58, 606.78 484.65, 608.55 484.20 C 610.32 483.75, 611.57 482.40, 614.15 478.41 C 616.73 474.42, 617.93 470.72, 621.43 464.24 C 624.93 457.77, 627.08 453.48, 631.64 446.04 C 636.21 438.60, 639.09 434.13, 644.26 427.04 C 649.44 419.94, 652.43 416.14, 657.53 410.55 C 662.62 404.96, 665.20 402.55, 669.72 399.11 C 674.25 395.66, 676.64 394.63, 680.17 393.33 C 683.70 392.02, 684.92 391.93, 687.38 392.58 C 689.84 393.22, 690.63 393.92, 692.47 396.56 C 694.30 399.19, 695.46 401.08, 696.55 405.75 C 697.64 410.43, 697.97 413.35, 697.92 419.93 C 697.87 426.52, 697.36 430.76, 696.31 438.68 C 695.26 446.60, 694.28 451.35, 692.67 459.54 C 691.07 467.72, 689.85 471.96, 688.30 479.60 C 686.75 487.25, 685.80 491.31, 684.93 497.75 C 684.05 504.20, 683.42 507.30, 683.92 511.81 C 684.42 516.32, 684.97 518.27, 687.42 520.32 C 689.88 522.36, 692.21 523.10, 696.20 522.05 C 700.19 521.00, 702.32 519.30, 707.37 515.08 C 712.41 510.86, 715.12 507.73, 721.41 500.94 C 727.70 494.16, 731.45 489.82, 738.81 481.17 C 746.17 472.51, 750.34 467.19, 758.22 457.67 C 766.09 448.14, 770.38 442.83, 778.19 433.55 C 786.00 424.27, 790.26 419.44, 797.27 411.28 C 804.28 403.13, 807.60 399.14, 813.24 392.78 C 818.88 386.42, 821.57 383.55, 825.45 379.50 C 829.34 375.46, 831.25 374.69, 832.68 372.57 C 834.11 370.46, 833.66 369.34, 832.58 368.93 C 831.51 368.51, 829.91 368.52, 827.31 370.49 C 824.70 372.47, 823.45 374.48, 819.53 378.82 C 815.62 383.16, 812.79 385.58, 807.72 392.17 C 802.65 398.76, 799.56 403.23, 794.20 411.77 C 788.84 420.31, 785.78 425.70, 780.91 434.89 C 776.03 444.07, 773.46 449.10, 769.83 457.69 C 766.21 466.28, 764.65 470.81, 762.79 477.83 C 760.94 484.85, 760.53 487.91, 760.55 492.80 C 760.57 497.68, 760.90 499.67, 762.90 502.24 C 764.90 504.82, 767.14 505.98, 770.55 505.67 C 773.96 505.36, 776.03 503.80, 779.94 500.67 C 783.85 497.54, 785.86 495.19, 790.11 490.01 C 794.35 484.83, 796.76 481.75, 801.17 474.79 C 805.58 467.84, 808.02 463.29, 812.17 455.24 C 816.31 447.19, 818.26 442.66, 821.90 434.55 C 825.55 426.44, 827.29 422.16, 830.38 414.71 C 833.47 407.25, 835.46 402.82, 837.37 397.28 C 839.28 391.73, 840.26 389.30, 839.94 386.96 C 839.63 384.63, 837.51 383.79, 835.80 385.62 C 834.10 387.45, 833.43 390.34, 831.43 396.11 C 829.43 401.89, 827.96 406.36, 825.81 414.50 C 823.66 422.63, 822.48 427.93, 820.69 436.79 C 818.90 445.64, 817.85 450.59, 816.86 458.79 C 815.86 466.99, 815.48 470.93, 815.72 477.79 C 815.97 484.66, 816.28 488.15, 818.08 493.12 C 819.89 498.09, 821.32 500.16, 824.76 502.64 C 828.20 505.12, 830.66 505.88, 835.28 505.51 C 839.89 505.14, 842.76 504.01, 847.82 500.78 C 852.87 497.54, 855.32 494.84, 860.54 489.32 C 865.77 483.81, 868.44 480.19, 873.95 473.22 C 879.45 466.24, 882.81 461.96, 888.07 454.45 C 893.34 446.94, 895.79 442.63, 900.29 435.64 C 904.80 428.65, 906.92 425.24, 910.62 419.51 C 914.31 413.78, 916.42 411.11, 918.76 407.00 C 921.11 402.89, 921.99 400.92, 922.35 398.97 C 922.70 397.02, 921.54 396.36, 920.53 397.24 C 919.53 398.11, 918.74 399.18, 917.32 403.33 C 915.90 407.47, 915.35 411.23, 913.44 417.96 C 911.53 424.70, 910.26 429.20, 907.78 437.00 C 905.29 444.81, 903.56 449.45, 901.02 456.98 C 898.48 464.50, 897.02 468.72, 895.09 474.64 C 893.16 480.56, 891.42 483.50, 891.36 486.57 C 891.29 489.64, 892.86 490.80, 894.76 489.98 C 896.66 489.17, 897.89 487.22, 900.84 482.50 C 903.79 477.77, 905.49 473.77, 909.50 466.36 C 913.51 458.96, 916.05 453.84, 920.89 445.49 C 925.72 437.14, 928.60 432.45, 933.68 424.63 C 938.76 416.80, 941.40 412.80, 946.28 406.37 C 951.15 399.95, 953.67 396.97, 958.04 392.50 C 962.40 388.03, 964.60 386.30, 968.09 384.02 C 971.58 381.74, 973.07 381.26, 975.49 381.11 C 977.90 380.96, 978.42 381.33, 980.18 383.27 C 981.95 385.20, 983.00 386.64, 984.30 390.77 C 985.60 394.89, 986.18 397.76, 986.69 403.90 C 987.20 410.04, 986.93 413.99, 986.84 421.47 C 986.74 428.96, 986.44 433.73, 986.22 441.32 C 986.00 448.90, 985.87 452.77, 985.76 459.39 C 985.64 466.00, 984.97 469.32, 985.66 474.41 C 986.34 479.50, 986.92 481.91, 989.18 484.85 C 991.44 487.79, 993.46 488.85, 996.95 489.10 C 1000.44 489.36, 1002.49 488.37, 1006.63 486.12 C 1010.77 483.88, 1013.02 482.16, 1017.66 477.87 C 1022.30 473.58, 1024.89 470.51, 1029.83 464.68 C 1034.76 458.85, 1037.31 455.36, 1042.33 448.72 C 1047.34 442.08, 1049.98 438.38, 1054.90 431.48 C 1059.81 424.58, 1062.52 420.53, 1066.89 414.21 C 1071.25 407.90, 1073.33 404.75, 1076.72 399.90 C 1080.12 395.05, 1081.71 393.12, 1083.84 389.97 C 1085.97 386.82, 1086.99 385.57, 1087.37 384.15 C 1087.75 382.73, 1087.02 382.14, 1085.73 382.88 C 1084.44 383.62, 1083.26 384.82, 1080.92 387.86 C 1078.58 390.89, 1077.28 393.10, 1074.01 398.06 C 1070.73 403.01, 1068.82 406.26, 1064.56 412.63 C 1060.31 419.01, 1057.62 423.06, 1052.73 429.94 C 1047.85 436.82, 1045.19 440.51, 1040.13 447.04 C 1035.06 453.56, 1032.43 457.00, 1027.43 462.59 C 1022.42 468.17, 1019.68 471.07, 1015.09 474.97 C 1010.50 478.88, 1008.07 480.23, 1004.49 482.10 C 1000.90 483.96, 999.50 484.28, 997.15 484.29 C 994.79 484.31, 994.26 484.26, 992.70 482.17 C 991.14 480.09, 990.09 478.42, 989.34 473.86 C 988.60 469.31, 988.99 465.90, 988.98 459.41 C 988.97 452.92, 989.07 448.98, 989.29 441.41 C 989.52 433.83, 989.87 429.09, 990.11 421.54 C 990.34 413.99, 990.77 410.07, 990.48 403.66 C 990.18 397.24, 989.98 394.23, 988.62 389.47 C 987.25 384.71, 986.33 382.41, 983.65 379.84 C 980.96 377.28, 978.73 376.40, 975.20 376.63 C 971.67 376.86, 969.87 378.21, 966.01 380.98 C 962.15 383.75, 960.24 385.70, 955.89 390.48 C 951.54 395.25, 949.10 398.29, 944.25 404.86 C 939.41 411.43, 936.78 415.45, 931.65 423.31 C 926.53 431.17, 923.63 435.86, 918.62 444.15 C 913.61 452.43, 910.84 457.47, 906.60 464.74 C 902.37 472.00, 900.17 475.78, 897.47 480.47 C 894.76 485.17, 893.50 486.83, 893.08 488.21 C 892.66 489.60, 894.29 489.89, 895.36 487.38 C 896.43 484.88, 896.73 481.56, 898.43 475.66 C 900.12 469.77, 901.37 465.45, 903.84 457.92 C 906.31 450.39, 908.10 445.76, 910.79 438.01 C 913.48 430.26, 915.03 425.81, 917.29 419.17 C 919.56 412.52, 920.99 409.06, 922.10 404.76 C 923.22 400.46, 923.45 399.16, 922.87 397.66 C 922.30 396.16, 920.72 395.78, 919.21 397.27 C 917.70 398.76, 917.56 400.97, 915.34 405.11 C 913.13 409.25, 911.57 412.14, 908.13 417.97 C 904.68 423.80, 902.55 427.25, 898.12 434.26 C 893.70 441.26, 891.26 445.54, 886.01 453.00 C 880.75 460.45, 877.38 464.70, 871.84 471.53 C 866.30 478.36, 863.50 481.93, 858.30 487.15 C 853.11 492.37, 850.53 494.78, 845.85 497.65 C 841.18 500.52, 838.69 501.13, 834.92 501.50 C 831.16 501.86, 829.75 501.38, 827.02 499.46 C 824.29 497.55, 822.95 496.29, 821.27 491.93 C 819.59 487.57, 818.97 484.23, 818.62 477.66 C 818.26 471.10, 818.53 467.17, 819.48 459.11 C 820.44 451.04, 821.47 446.09, 823.39 437.35 C 825.31 428.61, 826.71 423.40, 829.08 415.41 C 831.44 407.43, 833.27 403.08, 835.23 397.43 C 837.19 391.78, 838.54 389.37, 838.88 387.18 C 839.22 384.99, 837.87 384.69, 836.91 386.49 C 835.95 388.28, 835.88 390.72, 834.08 396.16 C 832.27 401.60, 830.76 406.23, 827.87 413.70 C 824.98 421.18, 823.23 425.47, 819.63 433.53 C 816.03 441.60, 814.05 446.11, 809.86 454.04 C 805.67 461.96, 803.20 466.46, 798.69 473.18 C 794.19 479.89, 791.64 482.84, 787.33 487.62 C 783.02 492.41, 780.65 494.44, 777.15 497.09 C 773.64 499.73, 772.02 500.31, 769.81 500.85 C 767.61 501.39, 767.30 501.42, 766.14 499.80 C 764.97 498.18, 764.12 497.00, 763.97 492.73 C 763.82 488.47, 763.80 485.31, 765.40 478.48 C 767.01 471.65, 768.48 467.09, 771.98 458.59 C 775.48 450.08, 778.05 445.05, 782.91 435.95 C 787.77 426.85, 790.85 421.48, 796.29 413.11 C 801.73 404.74, 804.86 400.36, 810.12 394.11 C 815.39 387.86, 818.41 385.76, 822.61 381.85 C 826.82 377.95, 829.03 377.00, 831.13 374.58 C 833.22 372.16, 833.34 370.67, 833.09 369.74 C 832.84 368.81, 831.84 368.40, 829.86 369.94 C 827.88 371.48, 826.85 373.17, 823.18 377.44 C 819.51 381.71, 816.98 384.77, 811.51 391.29 C 806.03 397.80, 802.74 401.81, 795.80 410.03 C 788.86 418.24, 784.60 423.09, 776.79 432.38 C 768.99 441.66, 764.69 446.98, 756.77 456.46 C 748.84 465.94, 744.64 471.24, 737.18 479.76 C 729.72 488.28, 725.86 492.57, 719.46 499.08 C 713.05 505.59, 710.04 508.54, 705.15 512.32 C 700.26 516.09, 698.02 516.95, 695.00 517.94 C 691.98 518.93, 691.50 518.57, 690.04 517.26 C 688.59 515.95, 688.14 515.23, 687.74 511.40 C 687.35 507.58, 687.42 504.39, 688.08 498.14 C 688.73 491.88, 689.58 487.76, 691.04 480.14 C 692.50 472.53, 693.73 468.28, 695.38 460.07 C 697.03 451.86, 698.07 447.11, 699.28 439.10 C 700.49 431.09, 701.14 426.86, 701.42 420.02 C 701.70 413.17, 701.70 410.12, 700.68 404.87 C 699.66 399.63, 698.76 397.15, 696.31 393.80 C 693.87 390.46, 691.96 388.98, 688.46 388.16 C 684.95 387.35, 682.91 388.05, 678.77 389.75 C 674.64 391.44, 672.43 392.84, 667.77 396.63 C 663.12 400.43, 660.62 402.95, 655.49 408.72 C 650.36 414.49, 647.40 418.32, 642.13 425.48 C 636.87 432.63, 633.95 437.09, 629.17 444.48 C 624.38 451.87, 621.98 456.08, 618.21 462.41 C 614.44 468.75, 612.47 472.11, 610.30 476.14 C 608.14 480.16, 607.64 481.58, 607.39 482.54 C 607.14 483.50, 608.47 483.40, 609.07 480.94 C 609.66 478.47, 609.39 476.13, 610.39 470.21 C 611.39 464.29, 612.00 460.01, 614.06 451.34 C 616.13 442.66, 617.76 437.25, 620.72 426.83 C 623.67 416.41, 625.56 410.59, 628.82 399.25 C 632.09 387.91, 633.80 381.69, 637.04 370.13 C 640.27 358.57, 642.14 352.40, 645.01 341.43 C 647.88 330.47, 649.03 325.04, 651.39 315.30 C 653.75 305.55, 654.75 300.72, 656.81 292.71 C 658.87 284.70, 660.10 281.31, 661.69 275.26 C 663.27 269.21, 663.93 266.49, 664.75 262.45 C 665.57 258.40, 666.16 256.65, 665.79 255.03 C 665.43 253.40, 664.01 253.03, 662.92 254.32"/>
  <path stroke-linecap="null" stroke-linejoin="null" stroke-dasharray="null" stroke-width="5" stroke="#000000" fill="green" d="M 1156.03,380.93 C 1155.76 379.50, 1154.71 377.78, 1152.62 376.42 C 1150.53 375.06, 1148.99 374.40, 1145.59 374.11 C 1142.18 373.82, 1139.91 373.87, 1135.60 374.96 C 1131.30 376.05, 1128.74 376.89, 1124.05 379.57 C 1119.37 382.24, 1117.02 384.19, 1112.19 388.33 C 1107.36 392.47, 1104.57 394.79, 1099.91 400.28 C 1095.24 405.78, 1092.63 409.18, 1088.86 415.81 C 1085.08 422.44, 1083.48 426.46, 1081.03 433.43 C 1078.59 440.41, 1077.66 444.17, 1076.63 450.70 C 1075.60 457.23, 1075.25 460.59, 1075.88 466.09 C 1076.50 471.58, 1077.24 474.42, 1079.75 478.18 C 1082.27 481.94, 1084.36 483.69, 1088.44 484.90 C 1092.51 486.11, 1095.16 485.86, 1100.15 484.24 C 1105.14 482.62, 1108.06 480.95, 1113.40 476.80 C 1118.73 472.66, 1121.47 469.57, 1126.83 463.52 C 1132.18 457.48, 1134.98 453.53, 1140.17 446.57 C 1145.35 439.62, 1148.32 435.57, 1152.74 428.75 C 1157.17 421.94, 1159.21 418.11, 1162.29 412.50 C 1165.38 406.88, 1167.06 404.08, 1168.17 400.68 C 1169.28 397.28, 1168.68 395.70, 1167.85 395.48 C 1167.02 395.27, 1165.44 395.90, 1164.04 399.59 C 1162.63 403.28, 1162.34 406.52, 1160.83 413.94 C 1159.33 421.36, 1158.59 426.28, 1156.50 436.68 C 1154.40 447.08, 1153.15 453.29, 1150.36 465.96 C 1147.58 478.64, 1146.05 485.55, 1142.59 500.06 C 1139.12 514.57, 1137.33 522.85, 1133.05 538.52 C 1128.76 554.19, 1126.26 562.83, 1121.17 578.41 C 1116.09 593.99, 1113.52 601.84, 1107.61 616.41 C 1101.71 630.99, 1098.56 638.67, 1091.65 651.29 C 1084.74 663.91, 1080.45 670.22, 1073.08 679.52 C 1065.72 688.81, 1061.74 692.47, 1054.81 697.78 C 1047.89 703.08, 1044.43 704.68, 1038.45 706.04 C 1032.48 707.39, 1029.78 707.04, 1024.94 704.56 C 1020.10 702.08, 1017.72 699.63, 1014.25 693.64 C 1010.77 687.65, 1009.04 683.55, 1007.54 674.60 C 1006.05 665.65, 1005.72 660.04, 1006.76 648.89 C 1007.79 637.75, 1008.82 631.07, 1012.71 618.88 C 1016.59 606.69, 1019.52 599.99, 1026.16 587.93 C 1032.81 575.86, 1037.13 569.90, 1045.93 558.56 C 1054.74 547.21, 1059.97 541.59, 1070.17 531.20 C 1080.36 520.82, 1085.98 515.82, 1096.90 506.63 C 1107.82 497.44, 1113.69 493.20, 1124.76 485.25 C 1135.83 477.30, 1141.59 473.46, 1152.24 466.88 C 1162.89 460.29, 1168.20 457.57, 1178.02 452.32 C 1187.83 447.06, 1192.70 445.01, 1201.32 440.62 C 1209.94 436.23, 1214.17 433.99, 1221.11 430.36 C 1228.05 426.73, 1231.15 425.16, 1236.03 422.45 C 1240.92 419.74, 1242.92 418.67, 1245.54 416.82 C 1248.15 414.97, 1248.37 414.45, 1249.10 413.20 C 1249.84 411.95, 1249.39 411.71, 1249.22 410.56 C 1249.05 409.41, 1248.88 408.54, 1248.23 407.44 C 1247.59 406.35, 1246.94 405.23, 1246.00 405.08 C 1245.07 404.92, 1244.21 405.80, 1243.57 406.67 C 1242.93 407.54, 1242.47 408.42, 1242.82 409.43 C 1243.17 410.44, 1244.22 411.43, 1245.33 411.70 C 1246.44 411.97, 1247.09 411.74, 1248.37 410.79 C 1249.66 409.84, 1250.46 409.02, 1251.76 406.96 C 1253.06 404.89, 1253.67 403.42, 1254.86 400.46 C 1256.05 397.51, 1256.35 395.81, 1257.71 392.19 C 1259.07 388.56, 1260.14 386.73, 1261.65 382.35 C 1263.15 377.97, 1264.09 375.43, 1265.23 370.28 C 1266.36 365.13, 1266.78 362.30, 1267.32 356.60 C 1267.85 350.90, 1268.09 347.72, 1267.90 341.77 C 1267.72 335.82, 1267.47 332.59, 1266.40 326.84 C 1265.33 321.09, 1264.58 318.01, 1262.57 313.03 C 1260.56 308.05, 1259.34 305.93, 1256.35 301.96 C 1253.36 297.98, 1251.52 295.85, 1247.61 293.16 C 1243.70 290.46, 1241.45 289.31, 1236.80 288.47 C 1232.14 287.64, 1229.49 287.80, 1224.32 288.98 C 1219.14 290.15, 1216.30 291.08, 1210.93 294.36 C 1205.56 297.64, 1202.60 299.91, 1197.46 305.36 C 1192.32 310.81, 1189.65 314.25, 1185.23 321.62 C 1180.81 328.98, 1178.82 333.49, 1175.35 342.18 C 1171.88 350.87, 1170.20 355.84, 1167.90 365.07 C 1165.59 374.30, 1164.52 379.12, 1163.80 388.33 C 1163.09 397.53, 1163.25 402.58, 1164.33 411.08 C 1165.41 419.58, 1166.26 423.67, 1169.20 430.84 C 1172.14 438.01, 1174.46 441.44, 1179.04 446.94 C 1183.63 452.44, 1186.58 454.75, 1192.14 458.35 C 1197.70 461.95, 1200.81 463.27, 1206.84 464.95 C 1212.87 466.64, 1216.24 466.87, 1222.30 466.77 C 1228.36 466.68, 1231.38 466.06, 1237.13 464.46 C 1242.88 462.86, 1245.93 461.47, 1251.06 458.76 C 1256.19 456.06, 1258.78 454.41, 1262.79 450.93 C 1266.80 447.44, 1268.65 445.21, 1271.10 441.35 C 1273.55 437.50, 1274.59 435.19, 1275.04 431.64 C 1275.49 428.09, 1274.92 426.26, 1273.34 423.61 C 1271.77 420.96, 1270.28 419.53, 1267.17 418.38 C 1264.05 417.23, 1261.44 417.25, 1257.76 417.88 C 1254.09 418.52, 1252.11 419.78, 1248.79 421.54 C 1245.47 423.31, 1243.64 424.31, 1241.16 426.71 C 1238.68 429.10, 1237.13 430.73, 1236.40 433.51 C 1235.67 436.28, 1236.06 438.34, 1237.51 440.60 C 1238.97 442.86, 1240.23 444.11, 1243.68 444.81 C 1247.14 445.51, 1249.84 445.05, 1254.78 444.10 C 1259.73 443.15, 1262.41 442.27, 1268.42 440.05 C 1274.42 437.83, 1278.10 436.26, 1284.79 433.00 C 1291.48 429.73, 1295.15 427.51, 1301.85 423.73 C 1308.55 419.95, 1311.99 417.87, 1318.29 414.10 C 1324.58 410.34, 1328.05 408.41, 1333.33 404.90 C 1338.60 401.38, 1341.01 399.39, 1344.66 396.53 C 1348.31 393.67, 1350.11 392.82, 1351.58 390.60 C 1353.05 388.37, 1353.12 386.79, 1351.99 385.41 C 1350.87 384.03, 1349.06 382.78, 1345.94 383.69 C 1342.82 384.60, 1340.64 386.69, 1336.39 389.96 C 1332.14 393.22, 1329.65 395.40, 1324.69 400.04 C 1319.73 404.67, 1316.69 407.46, 1311.60 413.15 C 1306.51 418.84, 1303.58 422.41, 1299.24 428.50 C 1294.91 434.58, 1292.78 437.84, 1289.94 443.58 C 1287.09 449.31, 1285.92 452.34, 1285.01 457.19 C 1284.10 462.03, 1283.84 464.56, 1285.38 467.79 C 1286.91 471.02, 1289.05 472.45, 1292.69 473.33 C 1296.33 474.21, 1298.65 473.63, 1303.58 472.20 C 1308.51 470.76, 1311.41 469.40, 1317.35 466.16 C 1323.28 462.92, 1327.05 460.81, 1333.26 456.00 C 1339.47 451.20, 1342.64 447.84, 1348.39 442.12 C 1354.15 436.39, 1357.28 433.21, 1362.05 427.39 C 1366.82 421.57, 1369.06 418.35, 1372.26 413.02 C 1375.46 407.68, 1376.90 404.70, 1378.04 400.72 C 1379.18 396.74, 1379.21 395.08, 1377.97 393.12 C 1376.73 391.15, 1374.52 390.32, 1371.84 390.89 C 1369.17 391.47, 1367.27 392.85, 1364.60 396.00 C 1361.93 399.16, 1360.70 401.75, 1358.49 406.67 C 1356.28 411.58, 1354.94 414.75, 1353.53 420.60 C 1352.13 426.44, 1351.55 429.87, 1351.46 435.88 C 1351.37 441.90, 1351.50 445.19, 1353.08 450.67 C 1354.67 456.16, 1355.75 459.06, 1359.38 463.30 C 1363.02 467.53, 1365.56 469.54, 1371.25 471.85 C 1376.95 474.15, 1380.54 474.62, 1387.85 474.83 C 1395.15 475.05, 1399.55 474.61, 1407.78 472.92 C 1416.01 471.22, 1420.49 469.80, 1429.01 466.37 C 1437.53 462.94, 1442.31 460.17, 1450.38 455.77 C 1458.44 451.36, 1462.54 449.01, 1469.33 444.35 C 1476.12 439.70, 1479.36 436.97, 1484.32 432.50 C 1489.29 428.02, 1491.66 425.99, 1494.15 421.97 C 1496.64 417.95, 1497.46 415.71, 1496.77 412.38 C 1496.08 409.05, 1494.25 407.03, 1490.70 405.31 C 1487.16 403.58, 1484.47 403.41, 1479.04 403.75 C 1473.60 404.08, 1469.97 404.72, 1463.54 406.97 C 1457.10 409.22, 1453.18 410.98, 1446.87 415.00 C 1440.55 419.03, 1437.23 421.78, 1431.96 427.10 C 1426.69 432.42, 1424.03 435.55, 1420.52 441.60 C 1417.01 447.65, 1415.54 451.24, 1414.41 457.35 C 1413.27 463.46, 1413.24 466.80, 1414.84 472.14 C 1416.45 477.49, 1418.31 480.16, 1422.44 484.09 C 1426.56 488.03, 1429.41 489.62, 1435.48 491.81 C 1441.55 494.00, 1445.45 494.77, 1452.80 495.04 C 1460.14 495.31, 1464.55 494.85, 1472.19 493.15 C 1479.83 491.45, 1484.08 490.03, 1491.01 486.52 C 1497.94 483.01, 1501.47 480.68, 1506.84 475.60 C 1512.21 470.52, 1514.80 467.31, 1517.86 461.11 C 1520.91 454.90, 1522.01 451.19, 1522.12 444.58 C 1522.24 437.97, 1521.24 434.23, 1518.44 428.05 C 1515.64 421.88, 1513.04 418.71, 1508.12 413.69 C 1503.20 408.67, 1499.66 406.53, 1493.85 402.94 C 1488.03 399.35, 1484.13 398.05, 1479.06 395.75 C 1473.99 393.45, 1471.84 392.66, 1468.50 391.42 C 1465.15 390.19, 1463.75 389.55, 1462.34 389.56 C 1460.92 389.57, 1460.52 390.35, 1461.44 391.46 C 1462.35 392.57, 1463.71 393.58, 1466.93 395.12 C 1470.15 396.67, 1472.51 397.07, 1477.55 399.20 C 1482.59 401.33, 1486.47 402.43, 1492.14 405.76 C 1497.82 409.10, 1501.21 411.16, 1505.91 415.87 C 1510.62 420.58, 1513.03 423.59, 1515.67 429.32 C 1518.31 435.05, 1519.21 438.43, 1519.12 444.53 C 1519.04 450.63, 1518.09 454.02, 1515.24 459.82 C 1512.40 465.62, 1510.00 468.71, 1504.90 473.55 C 1499.80 478.39, 1496.41 480.66, 1489.74 484.01 C 1483.08 487.37, 1478.93 488.73, 1471.57 490.31 C 1464.20 491.90, 1459.91 492.27, 1452.92 491.94 C 1445.93 491.62, 1442.24 490.76, 1436.61 488.70 C 1430.99 486.63, 1428.51 485.10, 1424.81 481.60 C 1421.10 478.09, 1419.54 475.89, 1418.09 471.16 C 1416.65 466.43, 1416.56 463.54, 1417.57 457.93 C 1418.58 452.32, 1419.84 448.86, 1423.14 443.12 C 1426.44 437.37, 1428.99 434.29, 1434.08 429.21 C 1439.16 424.13, 1442.44 421.46, 1448.56 417.71 C 1454.69 413.96, 1458.56 412.40, 1464.70 410.47 C 1470.84 408.54, 1474.43 408.25, 1479.25 408.07 C 1484.07 407.88, 1486.15 408.51, 1488.81 409.55 C 1491.47 410.59, 1492.09 411.16, 1492.53 413.26 C 1492.97 415.37, 1493.07 416.65, 1491.02 420.06 C 1488.97 423.47, 1486.93 425.88, 1482.30 430.31 C 1477.66 434.75, 1474.48 437.58, 1467.86 442.24 C 1461.24 446.90, 1457.16 449.27, 1449.21 453.63 C 1441.25 457.99, 1436.48 460.72, 1428.09 464.05 C 1419.69 467.37, 1415.27 468.71, 1407.25 470.26 C 1399.22 471.81, 1394.90 472.09, 1387.96 471.79 C 1381.01 471.49, 1377.70 470.91, 1372.52 468.75 C 1367.35 466.59, 1365.28 464.81, 1362.10 461.00 C 1358.91 457.18, 1357.98 454.68, 1356.60 449.68 C 1355.23 444.67, 1355.05 441.58, 1355.23 435.97 C 1355.41 430.36, 1355.98 427.06, 1357.51 421.64 C 1359.05 416.21, 1360.59 413.21, 1362.92 408.83 C 1365.25 404.45, 1367.02 402.47, 1369.16 399.73 C 1371.30 396.98, 1372.40 396.18, 1373.62 395.11 C 1374.84 394.03, 1375.19 393.50, 1375.27 394.37 C 1375.34 395.23, 1375.16 396.04, 1373.98 399.44 C 1372.80 402.84, 1372.18 406.13, 1369.35 411.35 C 1366.51 416.58, 1364.39 419.82, 1359.80 425.57 C 1355.21 431.32, 1352.07 434.50, 1346.39 440.09 C 1340.71 445.68, 1337.53 448.97, 1331.38 453.53 C 1325.23 458.09, 1321.44 460.01, 1315.64 462.90 C 1309.85 465.80, 1306.81 466.85, 1302.41 468.01 C 1298.01 469.17, 1296.24 469.13, 1293.65 468.71 C 1291.06 468.29, 1290.42 468.08, 1289.45 465.90 C 1288.47 463.73, 1288.10 462.04, 1288.79 457.86 C 1289.48 453.68, 1290.31 450.53, 1292.90 445.01 C 1295.49 439.49, 1297.53 436.21, 1301.74 430.27 C 1305.95 424.33, 1308.86 420.77, 1313.95 415.29 C 1319.05 409.81, 1322.15 407.13, 1327.21 402.88 C 1332.27 398.62, 1335.02 396.74, 1339.26 394.02 C 1343.49 391.30, 1346.08 390.75, 1348.39 389.27 C 1350.71 387.79, 1350.90 386.97, 1350.85 386.62 C 1350.80 386.26, 1349.90 386.13, 1348.14 387.48 C 1346.37 388.83, 1345.36 390.41, 1342.02 393.35 C 1338.69 396.29, 1336.50 398.55, 1331.45 402.19 C 1326.40 405.83, 1322.96 407.78, 1316.75 411.57 C 1310.55 415.36, 1307.08 417.44, 1300.41 421.14 C 1293.74 424.84, 1290.05 427.03, 1283.40 430.07 C 1276.75 433.12, 1273.03 434.55, 1267.16 436.36 C 1261.29 438.17, 1258.55 438.71, 1254.05 439.15 C 1249.55 439.59, 1247.23 438.80, 1244.65 438.56 C 1242.08 438.33, 1241.74 438.52, 1241.17 437.96 C 1240.60 437.41, 1240.86 436.97, 1241.80 435.78 C 1242.75 434.59, 1243.84 433.65, 1245.89 432.01 C 1247.94 430.37, 1249.41 429.03, 1252.05 427.56 C 1254.69 426.10, 1256.42 425.29, 1259.09 424.68 C 1261.76 424.07, 1263.42 424.19, 1265.40 424.51 C 1267.38 424.84, 1268.14 425.01, 1268.99 426.29 C 1269.84 427.57, 1270.02 428.38, 1269.65 430.92 C 1269.28 433.45, 1269.06 435.58, 1267.15 438.98 C 1265.24 442.39, 1263.67 444.63, 1260.11 447.93 C 1256.54 451.24, 1254.10 452.88, 1249.31 455.51 C 1244.52 458.14, 1241.58 459.50, 1236.16 461.08 C 1230.75 462.66, 1227.92 463.25, 1222.23 463.41 C 1216.53 463.56, 1213.38 463.38, 1207.68 461.86 C 1201.99 460.34, 1199.06 459.16, 1193.75 455.82 C 1188.45 452.48, 1185.60 450.35, 1181.16 445.16 C 1176.72 439.96, 1174.45 436.74, 1171.56 429.86 C 1168.67 422.98, 1167.79 419.05, 1166.70 410.78 C 1165.61 402.50, 1165.41 397.53, 1166.10 388.50 C 1166.78 379.47, 1167.83 374.72, 1170.13 365.63 C 1172.43 356.55, 1174.12 351.61, 1177.59 343.08 C 1181.07 334.56, 1183.09 330.13, 1187.50 323.00 C 1191.91 315.88, 1194.61 312.59, 1199.66 307.47 C 1204.70 302.35, 1207.62 300.32, 1212.72 297.40 C 1217.82 294.48, 1220.50 293.81, 1225.16 292.87 C 1229.81 291.92, 1232.01 291.93, 1236.02 292.69 C 1240.02 293.46, 1241.76 294.34, 1245.18 296.68 C 1248.60 299.03, 1250.34 300.87, 1253.11 304.43 C 1255.87 307.99, 1257.08 309.87, 1259.00 314.49 C 1260.92 319.11, 1261.68 322.05, 1262.71 327.53 C 1263.74 333.01, 1264.02 336.14, 1264.16 341.88 C 1264.29 347.61, 1264.03 350.71, 1263.39 356.19 C 1262.76 361.66, 1262.28 364.38, 1260.99 369.25 C 1259.70 374.12, 1258.71 376.46, 1256.95 380.54 C 1255.19 384.62, 1254.01 386.38, 1252.18 389.63 C 1250.36 392.89, 1249.45 394.39, 1247.84 396.81 C 1246.24 399.24, 1245.40 400.10, 1244.16 401.76 C 1242.91 403.42, 1242.16 403.87, 1241.61 405.10 C 1241.05 406.34, 1241.06 406.86, 1241.40 407.94 C 1241.74 409.02, 1242.78 409.57, 1243.30 410.50 C 1243.82 411.43, 1243.87 411.78, 1244.00 412.59 C 1244.13 413.41, 1243.47 414.42, 1243.96 414.57 C 1244.46 414.72, 1245.71 414.03, 1246.46 413.35 C 1247.22 412.67, 1247.61 411.65, 1247.71 411.17 C 1247.81 410.70, 1247.92 410.58, 1246.96 410.95 C 1245.99 411.33, 1245.40 411.29, 1242.88 413.04 C 1240.37 414.79, 1238.96 416.68, 1234.37 419.71 C 1229.79 422.75, 1226.74 424.39, 1219.94 428.21 C 1213.15 432.03, 1208.94 434.31, 1200.39 438.82 C 1191.84 443.33, 1186.98 445.42, 1177.18 450.76 C 1167.38 456.10, 1162.05 458.85, 1151.39 465.51 C 1140.72 472.16, 1134.96 476.02, 1123.88 484.02 C 1112.79 492.03, 1106.91 496.28, 1095.96 505.51 C 1085.01 514.75, 1079.37 519.76, 1069.13 530.18 C 1058.89 540.61, 1053.63 546.24, 1044.75 557.64 C 1035.88 569.03, 1031.52 575.02, 1024.77 587.16 C 1018.03 599.30, 1015.04 606.03, 1011.03 618.34 C 1007.02 630.65, 1005.91 637.37, 1004.74 648.69 C 1003.56 660.02, 1003.74 665.72, 1005.18 674.98 C 1006.61 684.24, 1008.20 688.60, 1011.91 694.99 C 1015.62 701.39, 1018.31 704.30, 1023.73 706.97 C 1029.14 709.64, 1032.53 709.87, 1038.99 708.34 C 1045.45 706.82, 1048.94 704.89, 1056.02 699.33 C 1063.10 693.77, 1067.00 690.00, 1074.38 680.53 C 1081.75 671.06, 1086.02 664.70, 1092.91 651.98 C 1099.80 639.25, 1102.94 631.54, 1108.85 616.91 C 1114.75 602.28, 1117.33 594.43, 1122.43 578.83 C 1127.54 563.22, 1130.06 554.57, 1134.38 538.89 C 1138.71 523.21, 1140.52 514.93, 1144.07 500.42 C 1147.62 485.92, 1149.18 479.01, 1152.14 466.36 C 1155.09 453.72, 1156.46 447.52, 1158.85 437.19 C 1161.24 426.85, 1162.24 421.97, 1164.10 414.69 C 1165.96 407.41, 1167.38 404.61, 1168.15 400.78 C 1168.92 396.95, 1168.70 395.89, 1167.95 395.55 C 1167.21 395.20, 1166.12 395.96, 1164.41 399.05 C 1162.70 402.13, 1162.21 405.35, 1159.41 410.99 C 1156.61 416.63, 1154.70 420.47, 1150.41 427.26 C 1146.13 434.05, 1143.15 438.09, 1137.99 444.94 C 1132.83 451.79, 1129.95 455.71, 1124.61 461.53 C 1119.28 467.35, 1116.44 470.26, 1111.30 474.04 C 1106.17 477.83, 1103.27 479.09, 1098.94 480.45 C 1094.60 481.81, 1092.78 481.76, 1089.62 480.85 C 1086.45 479.95, 1085.14 478.98, 1083.09 475.94 C 1081.05 472.90, 1080.07 470.61, 1079.40 465.65 C 1078.73 460.70, 1078.86 457.42, 1079.75 451.17 C 1080.63 444.92, 1081.50 441.19, 1083.84 434.41 C 1086.18 427.64, 1087.76 423.71, 1091.46 417.30 C 1095.16 410.90, 1097.72 407.61, 1102.34 402.39 C 1106.95 397.16, 1109.76 394.93, 1114.52 391.15 C 1119.28 387.38, 1121.70 385.64, 1126.13 383.50 C 1130.56 381.37, 1132.93 380.94, 1136.67 380.47 C 1140.41 380.01, 1142.19 380.80, 1144.83 381.15 C 1147.47 381.51, 1148.04 381.77, 1149.87 382.25 C 1151.70 382.73, 1152.75 383.84, 1153.98 383.57 C 1155.22 383.31, 1156.31 382.36, 1156.03 380.93"/>
</g>
</svg>